<?xml version="1.0" encoding="utf-8"?>
<!-- Generator: Adobe Illustrator 22.1.0, SVG Export Plug-In . SVG Version: 6.00 Build 0)  -->
<svg version="1.1" id="Layer_1" xmlns="http://www.w3.org/2000/svg" xmlns:xlink="http://www.w3.org/1999/xlink" x="0px" y="0px"
	 viewBox="0 0 1500 999" style="enable-background:new 0 0 1500 999;" xml:space="preserve">
<style type="text/css">
	.st0{enable-background:new    ;}
	.st1{fill:#EAEAEA;}
</style>
<g id="U__S__E__R">
	<g class="st0">
		<path class="st1" d="M447.7,394.2c0-0.7,0.3-1,0.9-1h0.3c0.7,0,1,0.4,1,1v16.7c0,6.5,2.9,9.9,8.8,9.9c5.9,0,8.8-3.3,8.8-9.9v-16.7
			c0-0.7,0.3-1,1-1h0.4c0.6,0,0.9,0.3,0.9,1V411c0,7.7-3.9,11.9-11.2,11.9c-7.2,0-11-4-11-11.8V394.2z"/>
		<path class="st1" d="M490.6,417.1c0-1,1.3-1.5,1.4-1.4c1.2,2.5,4,5.2,9,5.2c4.8,0,7.7-2.3,7.7-5.9c0-4.2-4-5.3-8.4-6.3
			c-4.5-1.1-9-2.4-9-8c0-4.6,4.1-7.8,9.5-7.8c3.9,0,6.7,1.3,8.1,2.8c0.9,0.9,1.3,1.8,1.3,2.3c0,1-1.3,1.5-1.4,1.4
			c-1.1-2.4-3.8-4.6-8-4.6s-7.2,2.3-7.2,5.8c0,4,3.4,4.9,7.9,5.9c4.7,1.1,9.4,2.7,9.4,8.3c0,4.8-3.9,8-9.9,8c-4.3,0-7.3-1.5-9-3.2
			C491,418.7,490.6,417.7,490.6,417.1z"/>
		<path class="st1" d="M532.3,421v-26.3c0-0.8,0.5-1.4,1.3-1.4H551c0.7,0,1.1,0.3,1.1,0.9v0.2c0,0.7-0.4,0.9-1.1,0.9h-16.4v11.1
			h12.7c0.7,0,1.1,0.3,1.1,0.9v0.1c0,0.6-0.4,0.9-1.1,0.9h-12.7v11.8h16.8c0.7,0,1.1,0.3,1.1,0.9v0.2c0,0.6-0.4,0.9-1.1,0.9h-17.8
			C532.8,422.4,532.3,421.9,532.3,421z"/>
		<path class="st1" d="M573.4,421.5v-26.8c0-0.8,0.5-1.4,1.3-1.4h7.9c6.8,0,10.5,2.9,10.5,8.3c0,5.4-3.7,8.4-9.9,8.4h-1l10.8,11.5
			c0.1,0.2-0.4,1.1-1.4,1.1c-0.4,0-0.9-0.2-1.4-0.8L579.3,410h-3.6v11.6c0,0.6-0.3,1-1,1h-0.3C573.7,422.6,573.4,422.2,573.4,421.5z
			 M582.8,408c5.3,0,7.9-2.5,7.9-6.3c0-4.1-2.7-6.3-8-6.3h-7V408H582.8z"/>
	</g>
</g>
<g id="D__E__S__I__G__N">
	<g class="st0">
		<path class="st1" d="M831.2,627.7c0-0.8,0.5-1.4,1.3-1.4h6.9c10,0,15.8,5.4,15.8,14.5c0,9.1-6,14.6-16.1,14.6h-6.7
			c-0.8,0-1.3-0.6-1.3-1.4V627.7z M852.8,640.9c0-7.8-5-12.5-13.5-12.5h-5.9v25.1h5.8C847.9,653.4,852.8,648.7,852.8,640.9z"/>
		<path class="st1" d="M876.8,654v-26.3c0-0.8,0.5-1.4,1.3-1.4h17.4c0.7,0,1.1,0.3,1.1,0.9v0.2c0,0.7-0.5,0.9-1.1,0.9h-16.4v11.1
			h12.7c0.7,0,1.1,0.3,1.1,0.9v0.1c0,0.6-0.4,0.9-1.1,0.9h-12.7v11.8h16.8c0.7,0,1.1,0.3,1.1,0.9v0.2c0,0.6-0.4,0.9-1.1,0.9h-17.8
			C877.3,655.4,876.8,654.9,876.8,654z"/>
		<path class="st1" d="M916.2,650.1c0-1,1.3-1.5,1.4-1.4c1.2,2.5,4,5.2,9,5.2c4.8,0,7.7-2.3,7.7-5.9c0-4.2-4-5.3-8.4-6.3
			c-4.5-1.1-9-2.4-9-8c0-4.6,4.1-7.8,9.5-7.8c3.9,0,6.7,1.3,8.1,2.8c0.9,0.9,1.3,1.8,1.3,2.3c0,1-1.3,1.5-1.4,1.4
			c-1.1-2.4-3.8-4.6-8-4.6c-4.2,0-7.2,2.3-7.2,5.8c0,4,3.4,4.9,7.9,5.9c4.7,1.1,9.5,2.7,9.5,8.3c0,4.8-3.9,8-9.9,8
			c-4.3,0-7.3-1.5-9-3.2C916.6,651.7,916.2,650.7,916.2,650.1z"/>
		<path class="st1" d="M958.3,627.2c0-0.7,0.3-1,0.9-1h0.3c0.7,0,1,0.4,1,1v27.3c0,0.7-0.4,1-1,1h-0.3c-0.6,0-0.9-0.4-0.9-1V627.2z"
			/>
		<path class="st1" d="M1008.4,642.8v12.5c0,0-0.3,0.2-0.7,0.2c-0.8,0-1.3-0.4-1.3-2.2v-3.6c-1.6,3.7-5.5,6.1-10.6,6.1
			c-8.4,0-13.6-6.3-13.6-14.9c0-8.8,5.8-15.1,14.3-15.1c4.4,0,7.5,1.7,9.1,3.3c1.1,1.1,1.6,2.2,1.6,2.7c0,1.3-1.3,1.4-1.4,1.3
			c-1.4-3-4.9-5.4-9.4-5.4c-7.1,0-11.9,5.4-11.9,13c0,7.5,4.3,13,11.6,13c5.7,0,9.9-3.7,10.3-8.8v-2h-8.9c-0.9,0-1.3-0.3-1.3-0.9
			v-0.2c0-0.6,0.4-0.9,1.3-0.9h9.3C1007.7,641.1,1008.4,641.8,1008.4,642.8z"/>
		<path class="st1" d="M1030.5,654.5v-26.8c0-0.9,0.4-1.5,1.2-1.5h0.6c0.8,0,1.2,0.5,1.8,1.2l17.5,24.5v-24.7c0-0.7,0.3-1,0.9-1h0.3
			c0.6,0,0.9,0.3,0.9,1v26.9c0,0.9-0.5,1.5-1.2,1.5h-0.2c-0.9,0-1.1-0.3-1.5-0.9l-18.1-25.4v25.3c0,0.7-0.3,1-1,1h-0.3
			C1030.7,655.6,1030.5,655.2,1030.5,654.5z"/>
	</g>
</g>
</svg>
