<?xml version="1.0" encoding="utf-8"?>
<!-- Generator: Adobe Illustrator 22.1.0, SVG Export Plug-In . SVG Version: 6.00 Build 0)  -->
<svg version="1.1" id="Layer_1" xmlns="http://www.w3.org/2000/svg" xmlns:xlink="http://www.w3.org/1999/xlink" x="0px" y="0px"
	 viewBox="0 0 1887 1000" style="enable-background:new 0 0 1887 1000;" xml:space="preserve">
<style type="text/css">
	.st0{display:none;}
	.st1{display:inline;}
	.st2{enable-background:new    ;}
	.st3{fill:#EAEAEA;}
</style>
<g id="Layer_1_1_" class="st0">
	<g id="U__S__E__R" class="st1">
		<g class="st2">
			<path class="st3" d="M566.2,379.7c0-0.7,0.3-1,0.9-1h0.3c0.7,0,1,0.4,1,1v16.7c0,6.5,2.9,9.9,8.8,9.9c5.9,0,8.8-3.3,8.8-9.9
				v-16.7c0-0.7,0.3-1,1-1h0.4c0.6,0,0.9,0.3,0.9,1v16.8c0,7.7-3.9,11.9-11.2,11.9c-7.2,0-11-4-11-11.8L566.2,379.7L566.2,379.7z"/>
			<path class="st3" d="M609.1,402.6c0-1,1.3-1.5,1.4-1.4c1.2,2.5,4,5.2,9,5.2c4.8,0,7.7-2.3,7.7-5.9c0-4.2-4-5.3-8.4-6.3
				c-4.5-1.1-9-2.4-9-8c0-4.6,4.1-7.8,9.5-7.8c3.9,0,6.7,1.3,8.1,2.8c0.9,0.9,1.3,1.8,1.3,2.3c0,1-1.3,1.5-1.4,1.4
				c-1.1-2.4-3.8-4.6-8-4.6s-7.2,2.3-7.2,5.8c0,4,3.4,4.9,7.9,5.9c4.7,1.1,9.4,2.7,9.4,8.3c0,4.8-3.9,8-9.9,8c-4.3,0-7.3-1.5-9-3.2
				C609.5,404.2,609.1,403.2,609.1,402.6z"/>
			<path class="st3" d="M650.8,406.5v-26.3c0-0.8,0.5-1.4,1.3-1.4h17.4c0.7,0,1.1,0.3,1.1,0.9v0.2c0,0.7-0.4,0.9-1.1,0.9h-16.4v11.1
				h12.7c0.7,0,1.1,0.3,1.1,0.9v0.1c0,0.6-0.4,0.9-1.1,0.9h-12.7v11.8h16.8c0.7,0,1.1,0.3,1.1,0.9v0.2c0,0.6-0.4,0.9-1.1,0.9h-17.8
				C651.3,407.9,650.8,407.4,650.8,406.5z"/>
			<path class="st3" d="M691.9,407v-26.8c0-0.8,0.5-1.4,1.3-1.4h7.9c6.8,0,10.5,2.9,10.5,8.3s-3.7,8.4-9.9,8.4h-1l10.8,11.5
				c0.1,0.2-0.4,1.1-1.4,1.1c-0.4,0-0.9-0.2-1.4-0.8l-10.9-11.8h-3.6v11.6c0,0.6-0.3,1-1,1h-0.3C692.2,408.1,691.9,407.7,691.9,407z
				 M701.3,393.5c5.3,0,7.9-2.5,7.9-6.3c0-4.1-2.7-6.3-8-6.3h-7v12.6L701.3,393.5L701.3,393.5z"/>
		</g>
	</g>
	<g id="D__E__S__I__G__N" class="st1">
		<g class="st2">
			<path class="st3" d="M1099.7,638.2c0-0.8,0.5-1.4,1.3-1.4h6.9c10,0,15.8,5.4,15.8,14.5s-6,14.6-16.1,14.6h-6.7
				c-0.8,0-1.3-0.6-1.3-1.4L1099.7,638.2L1099.7,638.2z M1121.3,651.4c0-7.8-5-12.5-13.5-12.5h-5.9V664h5.8
				C1116.4,663.9,1121.3,659.2,1121.3,651.4z"/>
			<path class="st3" d="M1145.3,664.5v-26.3c0-0.8,0.5-1.4,1.3-1.4h17.4c0.7,0,1.1,0.3,1.1,0.9v0.2c0,0.7-0.5,0.9-1.1,0.9h-16.4
				v11.1h12.7c0.7,0,1.1,0.3,1.1,0.9v0.1c0,0.6-0.4,0.9-1.1,0.9h-12.7v11.8h16.8c0.7,0,1.1,0.3,1.1,0.9v0.2c0,0.6-0.4,0.9-1.1,0.9
				h-17.8C1145.8,665.9,1145.3,665.4,1145.3,664.5z"/>
			<path class="st3" d="M1184.7,660.6c0-1,1.3-1.5,1.4-1.4c1.2,2.5,4,5.2,9,5.2c4.8,0,7.7-2.3,7.7-5.9c0-4.2-4-5.3-8.4-6.3
				c-4.5-1.1-9-2.4-9-8c0-4.6,4.1-7.8,9.5-7.8c3.9,0,6.7,1.3,8.1,2.8c0.9,0.9,1.3,1.8,1.3,2.3c0,1-1.3,1.5-1.4,1.4
				c-1.1-2.4-3.8-4.6-8-4.6s-7.2,2.3-7.2,5.8c0,4,3.4,4.9,7.9,5.9c4.7,1.1,9.5,2.7,9.5,8.3c0,4.8-3.9,8-9.9,8c-4.3,0-7.3-1.5-9-3.2
				C1185.1,662.2,1184.7,661.2,1184.7,660.6z"/>
			<path class="st3" d="M1226.8,637.7c0-0.7,0.3-1,0.9-1h0.3c0.7,0,1,0.4,1,1V665c0,0.7-0.4,1-1,1h-0.3c-0.6,0-0.9-0.4-0.9-1V637.7z
				"/>
			<path class="st3" d="M1276.9,653.3v12.5c0,0-0.3,0.2-0.7,0.2c-0.8,0-1.3-0.4-1.3-2.2v-3.6c-1.6,3.7-5.5,6.1-10.6,6.1
				c-8.4,0-13.6-6.3-13.6-14.9c0-8.8,5.8-15.1,14.3-15.1c4.4,0,7.5,1.7,9.1,3.3c1.1,1.1,1.6,2.2,1.6,2.7c0,1.3-1.3,1.4-1.4,1.3
				c-1.4-3-4.9-5.4-9.4-5.4c-7.1,0-11.9,5.4-11.9,13c0,7.5,4.3,13,11.6,13c5.7,0,9.9-3.7,10.3-8.8v-2h-8.9c-0.9,0-1.3-0.3-1.3-0.9
				v-0.2c0-0.6,0.4-0.9,1.3-0.9h9.3C1276.2,651.6,1276.9,652.3,1276.9,653.3z"/>
			<path class="st3" d="M1299,665v-26.8c0-0.9,0.4-1.5,1.2-1.5h0.6c0.8,0,1.2,0.5,1.8,1.2l17.5,24.5v-24.7c0-0.7,0.3-1,0.9-1h0.3
				c0.6,0,0.9,0.3,0.9,1v26.9c0,0.9-0.5,1.5-1.2,1.5h-0.2c-0.9,0-1.1-0.3-1.5-0.9l-18.1-25.4v25.3c0,0.7-0.3,1-1,1h-0.3
				C1299.2,666.1,1299,665.7,1299,665z"/>
		</g>
	</g>
</g>
<g id="Layer_2_1_">
	<g>
		
			<image style="overflow:visible;opacity:0.75;enable-background:new    ;" width="497" height="320" xlink:href="764017939EBEA877.png"  transform="matrix(1 0 0 1 695 350)">
		</image>
		<g>
			<g class="st2">
				<path class="st3" d="M712.8,548.4c-0.3,2.5-0.3,5-0.3,7.6c0,8.7,1.7,19,12.6,19h-1.4c-11.2,0-13.2-11.8-13.2-20.4
					c0-11.5,2-22.7,4.5-33.9l-1.4-1.4l5.9-23c1.7-0.3,3.6-0.3,5.3-0.3c1.4,0,3.1,0,4.5,0.3c-1.4,13.7-3.1,27.7-4.8,41.4
					c-0.3,1.4-0.3,2.8-0.3,4.2c1.4-13.4,3.9-26.9,6.4-40.3c0,13.4-4.2,26.9-4.8,40.3c0.3-0.6,0.3-0.8,0.3-1.4
					c0.8-14.8,3.9-29.4,7-44c-1.4,9.2-2.5,18.5-3.6,27.7c-0.8,8.4-2.8,17.4-2.8,25.8c0.6-2.2,0.6-4.5,0.8-6.7
					c1.7-15.1,3.9-30,6.2-45.1c0.3,0.3,0.6,0.6,0.6,1.1c0,7.3-0.6,14.8-1.4,22.1c-1.4,12.3-4.2,24.9-4.2,37.5c0,0.6,0,3.4,0.8,3.4
					c5,0,17.4-37.2,19.6-43.4c2,1.1,3.9,2,5.6,3.1c-4.5,13.4-12.3,49-30.5,49C713.1,571,712.8,556.5,712.8,548.4z M721.5,479.5
					c0-5,1.1-10.1,2.2-15.1c2-0.6,4.2-0.6,6.2-0.6c4.2,0,7.8,0.6,7.8,5.6c0,4.8-2.2,12.6-3.9,17.1c0.6-2,2.5-10.9,2.5-12.9v-2.8
					c-0.3,3.6-1.4,7-2.8,10.4c0.8-3.9,1.7-7.8,1.7-11.8c0-1.4-0.3-2.8-1.4-3.9c-0.8,5-2,10.1-2,15.4v2.5l2.2-15.7
					c-0.3,6.4-1.4,12.6-2,19C726.2,486.8,721.5,486.8,721.5,479.5z M723.7,569.6c-0.3,0.3-0.6,0.3-0.8,0.3
					C723.2,569.9,723.4,569.9,723.7,569.6z M723.7,569.6c3.4-0.6,6.2-2,9.2-3.4c-2,1.7-4.2,3.1-6.7,3.6
					c12.3-2.8,19.3-19.6,21.8-30.8c-2.5,8.1-7.6,21.6-14.6,26.6c7.3-9,10.4-17.1,14-28C743.3,549.2,736.9,566.3,723.7,569.6z
					 M726,542.2c-0.3,2.8-0.6,5.6-0.6,8.4c0,1.7,0.3,3.4,0.6,5C725.4,551.4,725.7,546.4,726,542.2z M748.4,534.9l-0.8,2.8
					L748.4,534.9z"/>
				<path class="st3" d="M811.3,519c2.2,0,4.2,0.8,4.2,3.4c0,1.1-0.3,2-0.6,3.1c-2.5,9.2-10.4,29.7-21.8,29.7
					c-12.3,0-14.3-16.5-14.3-25.8c0-6.2,0.6-12.3,1.1-18.5c-0.6,1.4-1.7,2.2-2.5,3.6c-1.7,2.2-2.8,5.3-3.9,7.8
					c-2.8,6.2-4.2,12.6-6.4,19c-3.1,1.1-6.4,1.7-9.8,1.7c-8.7,0-9-8.7-9-15.1c0-9.2,0.6-18.2,2-27.4h1.7c2.2,0,12,0,12,3.4
					c0,7.3-0.3,14.6-0.6,21.8c3.6-10.4,10.4-34.2,24.1-34.2c0.6,0,1.4,0,2,0.3c-13.4-1.7-21.3,24.6-24.6,34.4
					c2.5-6.4,11.8-27.4,18.5-29.4c1.1-0.3,2.2-0.6,3.4-0.6c3.1,0,11.2,2,11.2,5.9c0,4.2-1.1,8.1-1.4,12.3
					c-0.8,9.2-2.2,18.5-2.2,27.7c0,0.8,0,4.8,1.4,4.8c5.9,0,13.7-22.7,15.4-28H811.3z M761.8,522.6c0-5.9,0.3-11.8,0.6-17.6
					c0,2.5,0,5,0,7.6c0,7.6,0.3,14.8,0.8,22.4c-0.3-3.4-0.3-6.7-0.3-10.1v-10.4l0.3,9.5c0-5.6,0-11.2,0-16.8c0-1.7-0.3-3.4-2-4.5
					c0,5.9-0.3,11.8-0.3,17.6c0,2.5,0,17.6,2,18.5C762.1,533.5,761.8,527.9,761.8,522.6z M800.4,546.4c-0.8,1.1-2.8,2.5-4.2,2.5
					c-3.1,0-3.1-4.8-3.1-7c0-12.6,1.4-24.9,2.8-37.5c-1.7,13.7-5,28.8-3.4,42.8c-1.4-0.3-1.4-8.7-1.4-10.1c0-9.2,1.4-18.2,2.5-27.2
					c-1.7,10.1-3.1,20.2-3.1,30.5c0,2.8,0,7.8,3.4,9c-7.3,0-7.6-20.2-6.7-25.2c-0.6,3.1-0.6,6.2-0.6,9.2c0,5,0.6,16.5,7.6,16.5
					C796.5,550,799.6,548.4,800.4,546.4z"/>
				<path class="st3" d="M836.8,460.4c-3.9,17.1-5.9,34.2-7,51.5c0,1.1-0.3,2-0.3,3.1c0,12.9,2,39.5,7.3,50.7
					c-10.6-5.9-11.5-35.8-11.5-47c0-16.2,1.1-32.5,3.4-48.7c-3.4,16.8-5,34.2-5.9,51.2c-0.3-2.2-0.3-4.2-0.3-6.4
					c0-17.4,2.5-35,5.3-52.1c-5,18.2-7.6,37-7.6,56c0,12.6,0.3,52.4,18.8,52.4c2.2,0,4.5-0.6,6.2-2.2c-1.7,0.8-3.6,1.4-5.6,1.4
					c-18.2,0-17.6-34.7-17.6-47.3c0.8,10.9,1.4,43.1,15.4,45.6c-10.9-3.9-13.2-23-13.2-32.8c0.8,7.6,4.5,31.9,14.8,31.9
					c15.4,0,20.7-36.1,22.4-47.6c0.8-0.3,1.7-0.3,2.5-0.3c2,0,3.1,0.3,3.1,2.5v1.1c-1.4,17.4-7.6,58.2-30.5,58.2
					c-13.4,0-18.8-13.7-21.8-24.9c2,12.9,10.6,30.2,25.8,30.2c6.2,0,12-3.4,16.2-7.6c-4.2,5-11.2,9.5-17.9,9.5
					c-10.4,0-17.6-9.8-22.1-17.9c-5.9-11.2-7.3-26.9-7.3-39.2c0-14.8,1.4-29.4,3.9-44c0.8-4.5,2.2-9.2,2.2-14
					c0-13.7-26.6-14.3-36.1-14.6c-0.6-1.1-0.8-2.5-0.8-3.6c0-7,7.3-7.6,12.6-7.6c10.4,0,20.7,1.7,31.1,2.5
					c1.7-4.8,6.7-17.4,12.3-17.9c0.6,0,1.4,0,2,0c2.5,0,6.2,0.6,7.3,3.1c-2,5-3.4,10.1-4.8,15.4c7.3,0,12.9-0.3,19.3-3.6
					c-3.9,3.9-12.6,4.8-17.9,5c7-0.3,13.7-0.8,20.7-1.4v1.1c0,7.6-3.6,6.4-9.5,6.4c-19.6,0-39.2-4.2-58.8-4.2
					c22.4,1.4,44.8,5,67.2,5.6C852.2,460.7,844.7,460.7,836.8,460.4z M817.5,467.2c0.6-2.8,1.1-5.6,2.2-8.1l-22.4-1.7
					C802.9,459.3,813.6,463.2,817.5,467.2z"/>
				<path class="st3" d="M903.2,473.6c0-10.9,5.6-22.7,17.1-24.9c-8.4,3.4-14.8,11.5-14.8,20.7c0,1.4,0,2.8,0.3,4.2
					c0.8-7,5.3-17.6,13.7-17.6c8.4,0,10.4,9.5,10.4,16.2s-1.1,13.4-2.5,20.2c7,3.1,19.6,11.8,19.6,20.4c0,16.8-9,33-9,49.8
					c0,1.4,0.3,3.9,2.2,3.9c9.5,0,20.7-41.4,22.4-47.9c0.6-0.6,1.4-0.8,2-0.8c1.4,0,2.2,1.1,2.8,2.2c-3.1,16.8-9.5,56.6-32.5,56.6
					c-9,0-12.6-9.2-12.6-17.1c0-4.8,1.7-10.4,2.5-15.1c2.2-10.4,4.8-20.7,7.3-31.1c-3.9,12-12,38.4-12,50.7c0,6.4,2.2,16.5,9,19.3
					c-7.8-2.5-10.1-13.2-10.1-20.2c0-10.9,5.9-29.7,9-40.6c1.4-5,3.6-11.2,3.6-16.2c0-2.2-3.6-5.6-5.9-5.3
					c-5.9,20.7-16.5,59.9-43.7,59.9c-5.3,0-11.2-3.6-14.8-7.3c3.6,5.6,9.2,8.4,16,8.4c4.5,0,8.7-1.4,12.6-3.1
					c-3.6,2.5-8.4,3.9-12.9,3.9c-18.5,0-23-15.4-23-31.1c0-18.2,10.9-51.5,33-51.5c1.1,0,2.5,0,3.6,0.3c-14.8,0-23.5,9.2-28.8,22.4
					c5-8.4,12-18.2,23-18.2c-7.3,1.1-12.6,4.5-16.8,10.4c4.2-5,9.8-8.4,16.5-8.4c8.1,0,13.7,4.5,13.7,12.9c0,11.5-10.6,26.9-23,26.9
					c-1.4,0-2.8-0.3-4.2-0.8c-0.6,2.8-0.6,5.9-0.6,8.7c0,2.8,0.3,5.9,0.6,8.7c-1.1-3.6-1.4-7.6-1.4-11.2c0-8.1,2.5-21.3,6.4-28.3
					c-6.2,4.5-8.7,23.5-8.7,30.8c0,3.9,0.8,14.3,5.3,16c-3.4-3.6-4.2-11.5-4.2-16.2c0-6.2,0.6-12.9,2.5-18.8
					c-1.1,5.3-1.7,10.6-1.7,16c0,6.2,0.3,20.7,9.2,20.7c18.2,0,30.2-38.4,33.6-52.9C908.8,493.5,903.2,484.5,903.2,473.6z
					 M869.6,529.9c0,4.2,0.6,9.5,2,13.4c-0.8-4.8-1.1-9.5-1.1-14.3c0-8.7,6.4-33.9,17.6-33.9c0.3,0,0.8,0.3,1.1,0.3
					c-2.8,2.5-9.8,14.3-9.8,17.9v-0.3c-0.8,2.5-1.1,5-1.7,7.6c0.3,0.3,0.8,0.3,1.1,0.3c5.9,0,14.8-16.8,14.8-22.1
					c0-3.4-2.2-4.8-5.3-4.8c-3.6,0-6.7,2.2-9.2,4.8c-7.6,7.6-10.4,20.2-10.4,30.5c0,2.8,0,5.9,0.6,8.7c-0.3-2.2-0.3-4.2-0.3-6.4
					c0-8.7,2-19.3,6.7-26.9C872.7,512.8,869.6,521.2,869.6,529.9z M902.3,499.9c0-3.1-1.1-9-4.5-10.1c2.5,2.5,3.6,7.3,3.6,10.9
					c0,9.5-6.4,19.6-15.4,23.2c-1.4,0.6-3.1,0.8-4.5,1.7C893.9,523.2,902.3,512.5,902.3,499.9z M896.5,480.6c0.6,0,1.1,0.3,1.7,0.6
					L896.5,480.6z M906.8,476.7c0,7.3,6.4,16,12.6,19.6c-5.3-4.8-11.2-13.2-11.2-20.7c0-3.1,0.8-6.4,2-9.2
					C908.2,469.1,906.8,473.3,906.8,476.7z M925.3,473.3c0,14.8-5.3,28.8-8.4,43.1v0.3c2.5-7.8,10.4-35.6,9.2-42
					c0.6,0.3,0.6,3.1,0.6,3.1c0,7.8-3.6,27.2-6.7,34.4c3.9-8.1,7.8-27.2,7.8-35.8c0-3.4-0.8-11.2-3.6-13.7
					C925.3,466,925.3,470,925.3,473.3z M920.8,463.5c-2.8,1.4-3.1,8.4-3.1,11.2c0,4.2,0.6,8.7,2,12.6c1.1-5.9,2-11.8,2-17.9
					C921.7,468,921.7,464.6,920.8,463.5z M936.2,574.7c3.1,0,6.7-1.4,8.7-3.6c-2,2-5,3.1-7.8,3.1c-8.4,0-9.8-7.8-9.8-14.6
					c0-11.2,5-25.8,7.3-37c-3.1,8.4-8.7,29.1-8.7,37.5c0,3.6,0.6,7.3,2.2,10.6c-2.5-2-3.1-8.7-3.1-11.8c0-14,7.3-31.9,10.1-45.9
					c-3.4,12.3-10.9,34.2-10.9,46.2C924.2,567.7,926.4,574.7,936.2,574.7z"/>
				<path class="st3" d="M1008.2,523.4c0,5.9-17.6,16.2-22.7,19c7.3,19.3,14.3,39.8,16,60.5c-0.3-2-0.3-3.6-0.3-5.6
					c-0.6-13.7-4.2-27.2-7.8-40.3c6.4,10.6,10.4,44.2,10.4,57.1c0,11.2-1.4,31.4-16.5,31.4c-8.1,0-14.6-7.8-16.8-14.8h0.3
					c-7.8-21-10.1-60.2-10.1-82.9c0-26,2-59.1,16.8-81.5c1.4-2,2.5-3.6,4.5-5c-10.1,14.3-13.7,38.9-15.1,56.3
					c2.2-10.6,3.1-21.8,6.4-32.2c1.7-5.3,3.9-10.6,6.2-15.7c-9.5,22.1-12.3,59.6-12.3,84c0,8.7,0.8,17.1,2.2,25.5
					c-0.8-9.8-1.1-19.3-1.1-29.1c0-15.4,0.6-30.8,3.4-45.9c-1.4,14-2.2,28.3-2.2,42.3c0,19.3,1.7,38.9,7,57.4
					c-3.9-16.8-5.9-34.2-5.9-51.5c0-20.7,1.7-56.3,8.7-75.3c1.7-4.2,5.6-15.1,11.2-15.1c2.2,0,4.5,2.2,5.3,4.2
					c-11.8,16.8-15.7,50.4-15.7,70.8c7.6-4.8,19-11.2,24.6-17.9C1006.2,519.5,1008.2,521.5,1008.2,523.4z M970.1,583.6
					c0-0.6,0-1.1-0.3-1.7C969.8,582.5,969.8,583.1,970.1,583.6z M976.3,603.8c0,0.3,0,0.8,0.3,1.1
					C976.3,604.6,976.3,604.1,976.3,603.8z M981.6,599.3c0.8,5,5.9,25.5,8.7,28.6l0.6,0.3c2.5-2,2.2-9.5,2.2-12.6
					c0-23.5-7.8-44.5-13.4-66.9c0,9,0.3,17.9,1.1,26.9c-2.2-12.3-2.8-24.9-2.8-37.5c0-21.3,2.5-42.3,8.4-62.7
					c-8.7,16.8-9.5,42.8-9.5,61.6C976.8,557.9,977.9,578.6,981.6,599.3z M979.3,469.7l0.8-1.7L979.3,469.7z M980.2,468
					c0-0.3,0-0.3,0.3-0.6C980.2,467.7,980.2,467.7,980.2,468z M983,543c4.2,15.7,10.4,29.1,12.9,45.6c-3.6-14.6-8.1-29.4-15.4-42.8
					c7.6,19,12.9,38.6,17.6,58.5c-2-10.4-4.5-20.7-7.6-31.1c3.6,10.9,6.4,22.4,9,33.6V606c0-6.4-4.2-27.2-6.4-33.3l4.2,13.7
					C993.6,571.6,988.6,557.3,983,543z M990.5,573.3c-0.6-1.1-1.1-2.5-1.4-3.6C989.4,570.8,990,572.2,990.5,573.3z M1001.5,603.5
					c0,1.1,0,2,0.3,3.1C1001.5,605.5,1001.5,604.6,1001.5,603.5z"/>
				<path class="st3" d="M1067.5,562.1c-1.1,8.4-11.2,16-19.3,16c-0.3,0-3.1-0.8-3.4-0.8c-9-2.5-10.4-20.7-10.4-28.3
					c0-9.2,1.4-18.5,2.5-27.4c-2.2,7.3-11.8,30.8-19.3,32.8c-1.4,0.3-2.5,0.6-3.9,0.6c-6.4,0-14.3-4.5-14.3-11.5
					c0-23,17.4-62.7,44.2-62.7c2.2,0,5.9,0.3,7.3,2.2c-2-1.1-4.5-1.7-6.7-1.7c-3.4,0-6.2,1.1-9.2,2.2c-13.4,5.3-21.6,15.1-26.6,28.6
					c-1.1,3.1-2.2,6.2-2.2,9.5c5.3-15.4,17.1-37.2,35.8-37.2c10.1,0,16.8,5,16.8,15.7c0,2.5-0.6,3.6-3.6,3.6c-3.6,0-2.5-3.9-2.5-6.2
					c0-4.5-2.8-7.6-7.3-7.6c-12.9,0-29.4,42.6-31.1,53.8v-1.7c0-11.2,9.8-29.7,15.1-39.8c-4.2,5.9-7,12.3-10.4,18.8
					c2.2-4.2,3.9-8.7,5.9-13.2c-5.3,9-9.5,19.6-11.8,29.7c0.8-9.2,4.5-17.6,7.6-26.3c-3.6,6.7-5.6,14.6-7.8,21.8
					c-0.6,1.1-1.1,7.3-1.1,9c0,1.4,1.4,4.2,3.1,4.2c3.6,0,21.8-34.7,21.6-40c-0.3-2,6.4-2.2,7.6-2.2c10.6,0,12.6,2.5,12.6,12.6
					c0,12.3-2.5,24.1-4.2,36.1c-0.6,4.2-1.4,8.1-1.4,12.3c0,0.6,0,3.6,0.8,3.6c6.4,0,22.4-42.6,21.3-49.6c2.2,0,5.3,0.8,5.3,3.4
					c0,12.3-14.3,46.5-24.1,53.5C1059.1,574.7,1065.6,566.6,1067.5,562.1z M1049.3,561c0-16.2,4.8-32.2,4.8-48.4
					c0-0.8,0-1.7-0.3-2.5c0,0.6-0.3,1.1-0.3,1.7c-0.8,8.1-1.7,16-3.1,24.1c-1.1,5.6-2.8,11.5-2.8,17.4v0.8
					c-0.3-10.9,3.1-21.3,3.1-32.2c-1.7,10.4-3.6,21-3.6,31.6c0,3.1-0.3,13.2,3.4,14.3l-0.6-0.8
					C1049.1,565.7,1049.3,562.4,1049.3,561z M1070.9,536.9c-3.4,10.4-7,21-13.4,30c5.9-6.2,9.5-15.7,12.9-23.5
					c-2,5.3-9.8,30.5-17.9,27.2c0.6,0.6,1.7,0.8,2.5,0.8c7,0,16.2-26.6,16.2-32.8C1071.2,538,1071.2,537.4,1070.9,536.9z"/>
				<path class="st3" d="M1130,524.8c-4.5,17.6-19,44.2-40.6,40.9c1.7,0.6,3.6,0.8,5.6,0.8c11.2,0,21-8.1,26-17.6
					c-4.5,10.6-15.4,19-27.2,19c-18.2,0-23.5-16-23.5-31.4c0-17.1,11.2-54.3,32.5-54.3c2.8,0,5,1.7,7.8,1.7
					c0.6-2.8,2.2-12.6,3.1-14.6h2.5c4.2,0,8.7,0.6,8.7,5.9c0,11.2-7,23.2-7.8,34.7c-0.6,0.3-1.1,0.6-1.7,0.6c-1.1,0-2-0.3-3.1-0.6
					c-1.4-1.7-1.4-4.2-1.4-6.4c0-9,1.7-17.9,3.4-26.9c-2,8.7-5.3,17.6-5.3,26.9c0,1.7,0.3,3.6,0.8,5.3c-1.7-1.7-1.7-3.6-1.7-5.9
					c0-4.2,0.8-8.4,1.4-12.6c-0.8-0.6-1.7-1.1-2.5-1.1c-2.5,0-4.8,2.5-6.2,4.2c-9.8,12-12.3,31.9-13.7,46.8V538
					c0-13.4,2.8-27.2,8.1-39.5c-6.2,10.9-9.8,26-9.8,38.6c0,4.5,0.3,9.2,2,13.4c-3.9-4.8-4.8-11.5-4.8-17.4c0-9.2,2-18.8,5.6-27.4
					c-4.2,8.4-6.2,17.6-6.2,26.9c0,10.4,2.5,23.2,15.4,23.2c8.4,0,16-9.8,19.6-16.5c3.4-6.4,5.6-13.4,9.5-19.6h0.8
					c1.7,0,2.8,1.1,2.8,2.8C1130.3,523.4,1130.3,524,1130,524.8z M1097.5,556.8c3.1,0,5.9-1.4,8.4-3.1c-2.8,1.4-5.9,2.5-9,2.5
					c-1.7,0-3.4-0.6-5-1.1l1.7,0.8c-1.7-0.3-3.1-1.4-4.5-2.2c-7-4.8-7.8-12.6-7.8-20.4c0-5.3,0.6-10.6,2-15.7
					c-1.7,5.9-2.8,11.8-2.8,17.9C1080.4,545.8,1085.7,556.8,1097.5,556.8z M1085.5,552.3l-1.1-1.4L1085.5,552.3z M1085.5,552.3
					l1.7,1.4L1085.5,552.3z M1086,508.3c0.8-2.5,1.7-4.8,3.1-7C1088,503.6,1086.9,505.8,1086,508.3z M1087.4,553.7h-0.3
					c0.6,0.6,1.4,1.1,2.2,1.4L1087.4,553.7z M1089.1,501.3c0-0.3,0.3-0.8,0.6-1.1C1089.4,500.5,1089.1,501,1089.1,501.3z
					 M1120.2,537.7c-4.5,9-12.9,21-24.1,21c-2,0-4.2-0.6-6.2-1.4c1.7,1.1,4.2,1.4,6.2,1.4c7.6,0,14.8-5,18.8-11.5
					c-5,7.6-10.4,12.6-19.9,12.6c0.8,0.3,2,0.3,2.8,0.3c3.1,0,6.7-2,9.5-3.4c-2.2,2.2-5.3,3.4-8.4,3.9
					C1110.9,559.3,1116.8,548.1,1120.2,537.7z M1114.3,476.7c0.3-2,0.6-3.9,1.1-5.9C1114.9,472.8,1114.6,474.7,1114.3,476.7z
					 M1123,477c0,6.2-4.5,21.3-6.2,28l3.6-16.2l-4.5,18.5l0.6,0.3c2.2-7.3,7.3-24.4,7.3-31.6c0-3.6-2.5-5.3-5.9-5.3
					c2.5,1.1,3.1,3.9,3.1,6.4c0,6.2-1.4,12-2.8,17.9c1.4-4.5,3.6-12.6,3.6-17.1c0-1.7,0-5-1.7-6.2C1122.1,472.2,1123,475,1123,477z"
					/>
				<path class="st3" d="M1172.3,519.5c1.7,0,4.2,0.6,4.2,2.8c0,0.6-0.3,1.1-0.3,1.7c-2.8,13.4-15.1,35.3-30.8,35.3
					c-5.9,0-10.9-3.9-14-8.4c2.8,6.4,9,10.1,16,10.1c3.9,0,7.3-2,10.9-3.4c-3.4,2.2-8.1,4.2-12.3,4.2c-17.1,0-21.3-16-21.3-30
					c0-16.8,10.9-45.4,31.1-45.4c1.7,0,3.6,0.3,5.3,0.8c-1.4-0.6-2.8-0.6-4.2-0.6c-11.8,0-20.4,9.5-24.9,19.6c5-7.6,11.5-16,21.6-16
					c-6.7,1.1-11.8,3.9-16,9.2c3.9-4.2,9.5-7.6,15.7-7.6c7.3,0,12.9,3.6,12.9,11.5c0,10.6-10.4,23.5-21.6,23.5
					c-1.4,0-2.8-0.3-3.9-0.8c-0.6,2.5-0.6,5.3-0.6,7.8c0,2.5,0.3,5,0.6,7.6c-1.1-3.1-1.1-6.4-1.1-9.8c0-7.3,2.2-18.8,5.9-24.9
					c-5.9,3.6-8.1,20.4-8.1,27.2c0,3.6,0.8,12.6,5,14c-3.1-3.1-3.9-10.1-3.9-14.3c0-5.6,0.6-11.8,2.5-17.1
					c-1.1,4.8-1.7,9.5-1.7,14.6c0,5.9,0.6,18.2,8.7,18.2c10.6,0,22.4-20.7,23.8-30H1172.3z M1133.9,529.9c0,3.9,0.6,8.4,1.7,12
					c-0.6-4.2-0.8-8.4-0.8-12.6c0-9.5,5.9-29.7,17.6-29.7c-2.8,2.2-9.2,12.3-9.2,16v-0.3c-0.8,2-1.1,4.2-1.7,6.4
					c0.3,0.3,0.8,0.3,1.1,0.3c5.3,0,14-14.3,14-19.3c0-3.1-2.2-4.2-5-4.2c-3.4,0-6.4,2-8.7,4.2c-7.3,7-9.8,17.1-9.8,26.9
					c0,2.5,0,5.3,0.6,7.6c-0.3-2-0.3-3.9-0.3-5.6c0-8.1,2-17.1,6.2-23.8C1136.7,514.8,1133.9,522,1133.9,529.9z M1136.1,501.3
					l1.4-1.7L1136.1,501.3z M1164.7,503.6c0-2.8-1.1-7.8-4.2-8.7c2.2,2.2,3.4,6.4,3.4,9.5c0,9.2-6.4,16.8-14.6,20.4
					c-1.4,0.6-2.8,0.8-4.2,1.4C1156.3,524,1164.7,515.3,1164.7,503.6z"/>
			</g>
		</g>
	</g>
</g>
</svg>
