<svg width="504" height="146" viewBox="0 0 504 146" fill="none" xmlns="http://www.w3.org/2000/svg">
<path d="M18.08 26.6H18.28C18.92 26.6 19.24 26.3067 19.24 25.72C19.24 25.5067 19.2 25.28 19.12 25.04L15.52 15.32H8.52L5.04 24.88C4.96 25.0933 4.92 25.2933 4.92 25.48C4.92 25.8267 5.01333 26.1067 5.2 26.32C5.38667 26.5067 5.58667 26.6 5.8 26.6H6V27H1.56V26.6H1.76C2.10667 26.6 2.44 26.4 2.76 26C3.10667 25.5733 3.38667 25.08 3.6 24.52L12.76 0.119998L21.72 24.28C21.9067 24.8133 22.16 25.3333 22.48 25.84C22.8267 26.3467 23.2667 26.6 23.8 26.6H24V27H18.08V26.6ZM8.92 13.96H15.08L12 5.6L8.92 13.96ZM37.9381 27V24.96L37.7381 25.16C37.0715 25.8267 36.2981 26.3467 35.4181 26.72C34.5648 27.0933 33.5248 27.28 32.2981 27.28C31.3648 27.28 30.5648 27.1733 29.8981 26.96C29.2315 26.7467 28.6848 26.4533 28.2581 26.08C27.8315 25.68 27.5115 25.2267 27.2981 24.72C27.1115 24.2133 27.0181 23.68 27.0181 23.12C27.0181 22.2133 27.2581 21.4133 27.7381 20.72C28.2448 20.0267 28.9648 19.4133 29.8981 18.88C30.8315 18.3467 31.9648 17.8667 33.2981 17.44C34.6581 16.9867 36.2048 16.5467 37.9381 16.12C37.8848 15.08 37.6715 14.24 37.2981 13.6C36.9248 12.96 36.4848 12.4667 35.9781 12.12C35.4715 11.7467 34.9381 11.5067 34.3781 11.4C33.8181 11.2667 33.3381 11.2 32.9381 11.2C32.2448 11.2 31.6315 11.3067 31.0981 11.52C30.5915 11.7333 30.1381 12.0133 29.7381 12.36C29.3648 12.68 29.0448 13.04 28.7781 13.44C28.5115 13.8133 28.2981 14.1733 28.1381 14.52H27.7781V11.6C27.9915 11.5733 28.1915 11.5067 28.3781 11.4C28.5648 11.2933 28.7915 11.1867 29.0581 11.08C29.4581 10.92 30.0048 10.6933 30.6981 10.4C31.3915 10.08 32.3648 9.92 33.6181 9.92C35.0848 9.92 36.2715 10.1067 37.1781 10.48C38.0848 10.8533 38.7781 11.3467 39.2581 11.96C39.7648 12.5733 40.0981 13.28 40.2581 14.08C40.4181 14.8533 40.4981 15.6533 40.4981 16.48V24.4C40.4981 24.9333 40.6181 25.44 40.8581 25.92C41.0981 26.3733 41.4181 26.6 41.8181 26.6V27H37.9381ZM37.9381 23.2V17.48L37.5381 17.56C36.8981 17.72 36.1115 17.9333 35.1781 18.2C34.2715 18.4667 33.4048 18.8133 32.5781 19.24C31.7515 19.6667 31.0448 20.1733 30.4581 20.76C29.8715 21.3467 29.5781 22.0267 29.5781 22.8C29.5781 23.6533 29.9248 24.36 30.6181 24.92C31.3115 25.48 32.2181 25.76 33.3381 25.76C34.2181 25.76 34.9915 25.5733 35.6581 25.2C36.3248 24.8 36.9381 24.2933 37.4981 23.68L37.9381 23.2ZM60.05 26.6H60.25C60.4367 26.6 60.61 26.52 60.77 26.36C60.93 26.2 61.0633 26.0133 61.17 25.8C61.3033 25.5867 61.3967 25.36 61.45 25.12C61.5033 24.8533 61.53 24.6133 61.53 24.4V3.12C61.53 2.93333 61.5033 2.72 61.45 2.48C61.3967 2.24 61.3033 2.01333 61.17 1.8C61.0633 1.56 60.9167 1.37333 60.73 1.24C60.57 1.08 60.3833 0.999999 60.17 0.999999H59.97V0.599999H66.53C69.01 0.599999 70.9433 1.14667 72.33 2.24C73.7433 3.33333 74.45 4.78667 74.45 6.6C74.45 7.37333 74.3167 8.06667 74.05 8.68C73.7833 9.29333 73.4367 9.84 73.01 10.32C72.61 10.8 72.17 11.2133 71.69 11.56C71.21 11.88 70.7567 12.1467 70.33 12.36C71.45 12.5733 72.3833 12.9333 73.13 13.44C73.8767 13.9467 74.4767 14.5333 74.93 15.2C75.41 15.84 75.7433 16.5333 75.93 17.28C76.1167 18.0267 76.21 18.76 76.21 19.48C76.21 20.8667 75.9567 22.04 75.45 23C74.9433 23.9333 74.2633 24.7067 73.41 25.32C72.5833 25.9067 71.6233 26.3333 70.53 26.6C69.4633 26.8667 68.3567 27 67.21 27H60.05V26.6ZM73.49 19.72C73.2767 17.6667 72.5833 16.08 71.41 14.96C70.2367 13.84 68.5833 13.28 66.45 13.28H64.21V25.68H66.53C68.69 25.68 70.3833 25.2 71.61 24.24C72.8633 23.2533 73.49 21.8933 73.49 20.16V19.72ZM71.85 6.96C71.77 5.41333 71.2233 4.18667 70.21 3.28C69.2233 2.37333 67.89 1.92 66.21 1.92H64.21V12H66.29C67.41 12 68.3167 11.8533 69.01 11.56C69.73 11.2667 70.3033 10.8933 70.73 10.44C71.1567 9.96 71.45 9.44 71.61 8.88C71.77 8.32 71.85 7.77333 71.85 7.24V6.96ZM90.1803 9.92C91.6203 9.92 92.8603 10.16 93.9003 10.64C94.967 11.12 95.847 11.76 96.5403 12.56C97.2336 13.36 97.7536 14.28 98.1003 15.32C98.447 16.3333 98.6203 17.3733 98.6203 18.44C98.6203 19.5333 98.447 20.6133 98.1003 21.68C97.7536 22.72 97.2203 23.6667 96.5003 24.52C95.807 25.3467 94.9403 26.0133 93.9003 26.52C92.8603 27.0267 91.6603 27.28 90.3003 27.28C89.287 27.28 88.367 27.08 87.5403 26.68C86.7136 26.2533 86.0603 25.7467 85.5803 25.16V27H81.6603V26.6C81.847 26.6 82.0203 26.52 82.1803 26.36C82.3403 26.2 82.4736 26.0133 82.5803 25.8C82.7136 25.5867 82.807 25.36 82.8603 25.12C82.9136 24.8533 82.9403 24.6133 82.9403 24.4V4C82.9403 3.54667 82.8736 3.12 82.7403 2.72C82.607 2.32 82.2203 2.10667 81.5803 2.08V1.68L85.5803 0.439999V11.88C86.1936 11.2667 86.9136 10.7867 87.7403 10.44C88.5936 10.0933 89.407 9.92 90.1803 9.92ZM90.5803 25.92C91.5403 25.8667 92.367 25.64 93.0603 25.24C93.7536 24.8133 94.327 24.28 94.7803 23.64C95.2603 23 95.607 22.28 95.8203 21.48C96.0603 20.6533 96.1803 19.8133 96.1803 18.96C96.1803 18 96.047 17.0667 95.7803 16.16C95.5136 15.2533 95.1136 14.44 94.5803 13.72C94.0736 13 93.4336 12.4267 92.6603 12C91.887 11.5467 91.007 11.32 90.0203 11.32C89.4603 11.32 88.9136 11.4533 88.3803 11.72C87.847 11.96 87.367 12.2933 86.9403 12.72C86.5403 13.12 86.207 13.6133 85.9403 14.2C85.7003 14.76 85.5803 15.36 85.5803 16V20.96C85.5803 21.7333 85.727 22.4267 86.0203 23.04C86.3136 23.6533 86.7003 24.1733 87.1803 24.6C87.6603 25.0267 88.1936 25.36 88.7803 25.6C89.3936 25.8133 89.9936 25.92 90.5803 25.92ZM130.638 1.64C128.664 1.64 126.944 2 125.478 2.72C124.038 3.41333 122.838 4.33333 121.878 5.48C120.918 6.6 120.198 7.86667 119.718 9.28C119.264 10.6933 119.038 12.0933 119.038 13.48C119.038 15.0533 119.344 16.6 119.958 18.12C120.571 19.6133 121.411 20.9467 122.478 22.12C123.571 23.2667 124.838 24.2 126.278 24.92C127.718 25.6133 129.278 25.96 130.958 25.96C131.438 25.96 131.998 25.9067 132.638 25.8C133.304 25.6933 133.958 25.4933 134.598 25.2C135.238 24.88 135.824 24.44 136.358 23.88C136.918 23.32 137.344 22.5867 137.638 21.68H138.038V26.12C137.638 26.12 137.211 26.1733 136.758 26.28C136.331 26.3867 135.851 26.5067 135.318 26.64C134.624 26.8267 133.851 27 132.998 27.16C132.171 27.32 131.291 27.4 130.358 27.4C128.038 27.4 125.998 27 124.238 26.2C122.478 25.4 121.011 24.36 119.838 23.08C118.664 21.8 117.784 20.36 117.198 18.76C116.611 17.1333 116.318 15.4933 116.318 13.84C116.318 12.1867 116.611 10.5467 117.198 8.92C117.784 7.29333 118.678 5.84 119.878 4.56C121.078 3.25333 122.584 2.2 124.398 1.4C126.211 0.599999 128.344 0.199999 130.798 0.199999C131.678 0.199999 132.464 0.279999 133.158 0.439999C133.878 0.599998 134.518 0.759998 135.078 0.92C135.478 1.05333 135.838 1.16 136.158 1.24C136.504 1.29333 136.838 1.32 137.158 1.32V5.76H136.758C136.598 4.93333 136.304 4.25333 135.878 3.72C135.451 3.16 134.944 2.73333 134.358 2.44C133.798 2.14667 133.184 1.94667 132.518 1.84C131.878 1.70667 131.251 1.64 130.638 1.64ZM158.24 25.56C158.026 25.56 157.826 25.6133 157.64 25.72C157.453 25.8 157.24 25.9067 157 26.04C156.546 26.3067 155.973 26.5867 155.28 26.88C154.586 27.1467 153.68 27.28 152.56 27.28C151.2 27.28 149.933 27.0667 148.76 26.64C147.613 26.1867 146.613 25.5733 145.76 24.8C144.933 24 144.28 23.08 143.8 22.04C143.346 20.9733 143.12 19.8267 143.12 18.6C143.12 17.4533 143.32 16.36 143.72 15.32C144.146 14.28 144.746 13.36 145.52 12.56C146.293 11.76 147.24 11.12 148.36 10.64C149.506 10.16 150.8 9.92 152.24 9.92C153.226 9.92 154.026 10.04 154.64 10.28C155.253 10.4933 155.773 10.7067 156.2 10.92C156.44 11.0533 156.666 11.16 156.88 11.24C157.12 11.32 157.36 11.36 157.6 11.36V14.4H157.2C157.066 13.8933 156.826 13.4533 156.48 13.08C156.133 12.68 155.733 12.3467 155.28 12.08C154.826 11.8133 154.333 11.6133 153.8 11.48C153.266 11.3467 152.746 11.28 152.24 11.28C151.146 11.28 150.186 11.48 149.36 11.88C148.533 12.2533 147.853 12.76 147.32 13.4C146.786 14.0133 146.386 14.72 146.12 15.52C145.853 16.32 145.72 17.1467 145.72 18C145.72 18.9867 145.88 19.96 146.2 20.92C146.52 21.8533 146.973 22.6933 147.56 23.44C148.173 24.1867 148.906 24.7867 149.76 25.24C150.613 25.6933 151.573 25.92 152.64 25.92C153.386 25.92 154.066 25.8133 154.68 25.6C155.32 25.3867 155.853 25.1067 156.28 24.76C156.733 24.4133 157.093 24.04 157.36 23.64C157.626 23.2133 157.786 22.8133 157.84 22.44H158.24V25.56ZM175.252 26.6H175.452C175.639 26.6 175.812 26.52 175.972 26.36C176.132 26.2 176.266 26.0133 176.372 25.8C176.506 25.5867 176.599 25.36 176.652 25.12C176.706 24.8533 176.732 24.6133 176.732 24.4V3.08C176.732 2.89333 176.706 2.68 176.652 2.44C176.599 2.2 176.519 1.97333 176.412 1.76C176.306 1.54666 176.172 1.37333 176.012 1.24C175.852 1.08 175.666 0.999999 175.452 0.999999H175.252V0.599999H182.972C185.079 0.599999 186.972 0.973332 188.652 1.72C190.332 2.44 191.746 3.42667 192.892 4.68C194.066 5.90667 194.959 7.32 195.572 8.92C196.186 10.52 196.492 12.1867 196.492 13.92C196.492 15.5467 196.199 17.1467 195.612 18.72C195.026 20.2667 194.146 21.6533 192.972 22.88C191.799 24.1067 190.332 25.1067 188.572 25.88C186.812 26.6267 184.772 27 182.452 27H175.252V26.6ZM193.772 14.52C193.772 12.8133 193.466 11.2 192.852 9.68C192.239 8.16 191.372 6.84 190.252 5.72C189.159 4.57333 187.852 3.66667 186.332 3C184.839 2.33333 183.212 2 181.452 2H179.412V25.6H181.532C182.972 25.6 184.412 25.3867 185.852 24.96C187.319 24.5067 188.639 23.8267 189.812 22.92C190.986 21.9867 191.932 20.8267 192.652 19.44C193.399 18.0533 193.772 16.4133 193.772 14.52ZM214.661 27V25.24C214.207 25.7467 213.594 26.2133 212.821 26.64C212.074 27.0667 211.127 27.28 209.981 27.28C208.567 27.28 207.327 27.04 206.261 26.56C205.221 26.0533 204.354 25.4 203.661 24.6C202.967 23.8 202.447 22.8933 202.101 21.88C201.781 20.84 201.621 19.7733 201.621 18.68C201.621 17.6133 201.794 16.56 202.141 15.52C202.487 14.4533 203.007 13.5067 203.701 12.68C204.394 11.8533 205.261 11.1867 206.301 10.68C207.341 10.1733 208.541 9.92 209.901 9.92C210.807 9.92 211.701 10.0933 212.581 10.44C213.461 10.76 214.154 11.1867 214.661 11.72V3.92C214.661 3.46667 214.594 3.04 214.461 2.64C214.327 2.24 213.941 2.02667 213.301 2V1.6L217.301 0.36V24.4C217.301 24.6133 217.327 24.8533 217.381 25.12C217.434 25.36 217.514 25.5867 217.621 25.8C217.727 26.0133 217.861 26.2 218.021 26.36C218.181 26.52 218.367 26.6 218.581 26.6V27H214.661ZM210.261 25.96C210.821 25.96 211.367 25.8533 211.901 25.64C212.434 25.4 212.901 25.0933 213.301 24.72C213.701 24.32 214.021 23.8667 214.261 23.36C214.527 22.8267 214.661 22.2533 214.661 21.64V16.16C214.661 15.4133 214.501 14.7467 214.181 14.16C213.861 13.5467 213.461 13.0267 212.981 12.6C212.501 12.1733 211.967 11.8533 211.381 11.64C210.821 11.4 210.274 11.28 209.741 11.28C208.861 11.28 208.074 11.4933 207.381 11.92C206.687 12.32 206.101 12.8533 205.621 13.52C205.141 14.16 204.781 14.8933 204.541 15.72C204.301 16.52 204.181 17.32 204.181 18.12C204.181 19.0533 204.314 19.9867 204.581 20.92C204.847 21.8267 205.234 22.6533 205.741 23.4C206.274 24.12 206.914 24.72 207.661 25.2C208.407 25.68 209.274 25.9333 210.261 25.96ZM236.839 26.6H237.039C237.252 26.6 237.439 26.5333 237.599 26.4C237.759 26.24 237.892 26.0533 237.999 25.84C238.132 25.6267 238.226 25.4 238.279 25.16C238.359 24.92 238.399 24.6933 238.399 24.48V3.08C238.399 2.89333 238.359 2.68 238.279 2.44C238.226 2.2 238.132 1.97333 237.999 1.76C237.892 1.54666 237.759 1.37333 237.599 1.24C237.439 1.08 237.252 0.999999 237.039 0.999999H236.839V0.599999H252.239V4.32H251.839C251.786 3.70667 251.546 3.17333 251.119 2.72C250.692 2.24 250.026 2 249.119 2H241.079V12.12H247.719C248.332 12.12 248.839 11.9333 249.239 11.56C249.666 11.1867 249.879 10.7467 249.879 10.24H250.279V15.24H249.879C249.879 14.76 249.679 14.3467 249.279 14C248.879 13.6533 248.359 13.48 247.719 13.48H241.079V25.6H249.839C250.346 25.6 250.786 25.48 251.159 25.24C251.532 25 251.839 24.72 252.079 24.4C252.346 24.0533 252.532 23.6933 252.639 23.32C252.772 22.92 252.839 22.5867 252.839 22.32H253.239V27H236.839V26.6ZM260.453 18.92C260.56 19.8533 260.786 20.7467 261.133 21.6C261.48 22.4267 261.933 23.16 262.493 23.8C263.08 24.44 263.786 24.96 264.613 25.36C265.44 25.7333 266.4 25.92 267.493 25.92C268.08 25.92 268.693 25.84 269.333 25.68C270 25.4933 270.613 25.24 271.173 24.92C271.733 24.6 272.226 24.2133 272.653 23.76C273.106 23.28 273.413 22.7467 273.573 22.16H273.933V25.16C273.773 25.16 273.586 25.2133 273.373 25.32C273.186 25.4267 272.96 25.56 272.693 25.72C272.16 26.04 271.44 26.3867 270.533 26.76C269.626 27.1067 268.426 27.28 266.933 27.28C265.733 27.28 264.586 27.1067 263.493 26.76C262.426 26.4133 261.48 25.88 260.653 25.16C259.826 24.44 259.16 23.52 258.653 22.4C258.173 21.28 257.933 19.9467 257.933 18.4C257.933 17.4133 258.093 16.4133 258.413 15.4C258.76 14.3867 259.266 13.48 259.933 12.68C260.626 11.8533 261.506 11.1867 262.573 10.68C263.64 10.1733 264.92 9.92 266.413 9.92C267.746 9.92 268.906 10.1467 269.893 10.6C270.906 11.0533 271.733 11.68 272.373 12.48C273.04 13.28 273.533 14.2267 273.853 15.32C274.173 16.4133 274.333 17.6133 274.333 18.92H260.453ZM266.253 11.24C265.32 11.24 264.506 11.4267 263.813 11.8C263.146 12.1733 262.573 12.6533 262.093 13.24C261.613 13.8267 261.24 14.4933 260.973 15.24C260.706 15.9867 260.533 16.7333 260.453 17.48H271.853C271.826 16.7067 271.68 15.9467 271.413 15.2C271.173 14.4533 270.826 13.7867 270.373 13.2C269.92 12.6133 269.346 12.1467 268.653 11.8C267.96 11.4267 267.16 11.24 266.253 11.24ZM297.618 26.6H297.818V27H292.098V26.6H292.298C292.511 26.6 292.698 26.5333 292.858 26.4C293.018 26.24 293.151 26.0533 293.258 25.84C293.391 25.6267 293.484 25.4 293.538 25.16C293.591 24.92 293.618 24.6933 293.618 24.48V3.08C293.618 2.89333 293.591 2.68 293.538 2.44C293.484 2.2 293.404 1.97333 293.298 1.76C293.191 1.54666 293.044 1.37333 292.858 1.24C292.698 1.08 292.511 0.999999 292.298 0.999999H292.098V0.599999H307.458V4.32H307.058C307.058 3.70667 306.844 3.17333 306.418 2.72C306.018 2.24 305.378 2 304.498 2H296.298V12.12H302.938C303.551 12.12 304.058 11.9333 304.458 11.56C304.884 11.1867 305.098 10.7467 305.098 10.24H305.498V15.24H305.098C305.098 14.76 304.898 14.3467 304.498 14C304.098 13.6533 303.578 13.48 302.938 13.48H296.298V24.48C296.298 24.6933 296.324 24.92 296.378 25.16C296.431 25.4 296.511 25.6267 296.618 25.84C296.751 26.0533 296.898 26.24 297.058 26.4C297.218 26.5333 297.404 26.6 297.618 26.6ZM316.176 11.56V24.4C316.176 24.6133 316.203 24.8533 316.256 25.12C316.31 25.36 316.39 25.5867 316.496 25.8C316.63 26.0133 316.763 26.2 316.896 26.36C317.056 26.52 317.243 26.6 317.456 26.6V27H312.256V26.6C312.443 26.6 312.616 26.52 312.776 26.36C312.936 26.2 313.07 26.0133 313.176 25.8C313.31 25.5867 313.403 25.36 313.456 25.12C313.51 24.8533 313.536 24.6133 313.536 24.4V11.56H311.536V10.2H313.536V6.96C313.536 6.13333 313.563 5.33333 313.616 4.56C313.67 3.78667 313.83 3.09333 314.096 2.48C314.363 1.86667 314.763 1.37333 315.296 0.999999C315.856 0.626665 316.616 0.439999 317.576 0.439999C318.11 0.439999 318.563 0.506665 318.936 0.639998C319.336 0.746665 319.67 0.879999 319.936 1.04C320.23 1.17333 320.47 1.30666 320.656 1.44C320.843 1.54666 321.003 1.6 321.136 1.6V4.52H320.776C320.643 3.74667 320.296 3.10667 319.736 2.6C319.176 2.06667 318.616 1.8 318.056 1.8C317.283 1.8 316.776 2.21333 316.536 3.04C316.296 3.84 316.176 4.96 316.176 6.4V10.2H320.696V11.56H316.176ZM355.258 13.08H360.978V13.48H360.778C360.564 13.48 360.378 13.56 360.218 13.72C360.058 13.8533 359.924 14.0267 359.818 14.24C359.711 14.4533 359.618 14.68 359.538 14.92C359.484 15.16 359.458 15.3733 359.458 15.56V26.28C358.978 26.4667 358.431 26.6267 357.818 26.76C357.204 26.8933 356.564 27 355.898 27.08C355.231 27.1867 354.551 27.2667 353.858 27.32C353.164 27.3733 352.524 27.4 351.938 27.4C349.538 27.4 347.444 27 345.658 26.2C343.871 25.4 342.391 24.36 341.218 23.08C340.044 21.7733 339.164 20.3067 338.578 18.68C338.018 17.0533 337.738 15.4133 337.738 13.76C337.738 12.1067 338.018 10.4667 338.578 8.84C339.164 7.21333 340.044 5.76 341.218 4.48C342.418 3.2 343.911 2.17333 345.698 1.4C347.511 0.599999 349.658 0.199999 352.138 0.199999C353.071 0.199999 353.938 0.279999 354.738 0.439999C355.538 0.599998 356.244 0.746665 356.858 0.879998C357.204 0.959998 357.498 1.04 357.738 1.12C358.004 1.17333 358.231 1.2 358.418 1.2H358.778V5.44H358.378C358.218 4.61333 357.898 3.94666 357.418 3.44C356.964 2.93333 356.431 2.54667 355.818 2.28C355.204 2.01333 354.551 1.84 353.858 1.76C353.191 1.65333 352.564 1.6 351.978 1.6C349.978 1.6 348.244 1.96 346.778 2.68C345.311 3.37333 344.111 4.28 343.178 5.4C342.244 6.52 341.551 7.78667 341.098 9.2C340.644 10.5867 340.418 11.9733 340.418 13.36C340.418 14.9067 340.711 16.44 341.298 17.96C341.884 19.4533 342.711 20.8 343.778 22C344.844 23.1733 346.124 24.1333 347.618 24.88C349.138 25.6 350.818 25.96 352.658 25.96C353.164 25.96 353.791 25.9067 354.538 25.8C355.284 25.6667 356.031 25.3867 356.778 24.96V15.56C356.778 15.3733 356.751 15.16 356.698 14.92C356.644 14.68 356.551 14.4533 356.418 14.24C356.311 14.0267 356.178 13.8533 356.018 13.72C355.858 13.56 355.671 13.48 355.458 13.48H355.258V13.08ZM374.667 34.44C375.467 34.44 376.227 34.36 376.947 34.2C377.667 34.0667 378.294 33.8667 378.827 33.6C379.387 33.3333 379.827 33.0133 380.147 32.64C380.467 32.2667 380.627 31.8667 380.627 31.44C380.627 30.9867 380.4 30.6 379.947 30.28C379.52 29.96 378.934 29.68 378.187 29.44C377.44 29.2 376.574 28.9867 375.587 28.8C374.6 28.64 373.574 28.4667 372.507 28.28L370.467 27.92C369.854 28.4 369.427 28.9067 369.187 29.44C368.947 29.9733 368.827 30.44 368.827 30.84C368.827 31.4 368.974 31.8933 369.267 32.32C369.587 32.7733 370 33.16 370.507 33.48C371.04 33.8 371.654 34.04 372.347 34.2C373.067 34.36 373.84 34.44 374.667 34.44ZM376.867 26.44C377.934 26.6 378.814 26.8133 379.507 27.08C380.227 27.3467 380.8 27.6533 381.227 28C381.654 28.3733 381.947 28.7733 382.107 29.2C382.267 29.6533 382.347 30.1333 382.347 30.64C382.347 31.5467 382.094 32.3333 381.587 33C381.107 33.6667 380.467 34.2133 379.667 34.64C378.894 35.0933 378 35.4267 376.987 35.64C376 35.8533 374.987 35.96 373.947 35.96C372.934 35.96 371.96 35.8533 371.027 35.64C370.094 35.4533 369.267 35.16 368.547 34.76C367.827 34.36 367.254 33.8533 366.827 33.24C366.4 32.6533 366.187 31.9733 366.187 31.2C366.187 30.5067 366.4 29.84 366.827 29.2C367.254 28.5867 367.947 27.9733 368.907 27.36C367.974 26.88 367.254 26.24 366.747 25.44C366.267 24.6133 366.027 23.7733 366.027 22.92C366.027 22.4133 366.147 21.92 366.387 21.44C366.627 20.9333 367.014 20.4667 367.547 20.04C367.094 19.5067 366.774 18.9733 366.587 18.44C366.4 17.9067 366.307 17.3333 366.307 16.72C366.307 15.76 366.507 14.8667 366.907 14.04C367.307 13.2133 367.854 12.4933 368.547 11.88C369.24 11.2667 370.054 10.7867 370.987 10.44C371.92 10.0933 372.92 9.92 373.987 9.92C375.107 9.92 376.174 10.12 377.187 10.52C378.2 10.8933 379.054 11.3867 379.747 12H382.627V13.44H380.787C380.974 13.84 381.16 14.32 381.347 14.88C381.534 15.4133 381.627 15.9733 381.627 16.56C381.627 17.4133 381.427 18.2267 381.027 19C380.627 19.7467 380.067 20.4133 379.347 21C378.654 21.56 377.827 22.0133 376.867 22.36C375.934 22.68 374.934 22.84 373.867 22.84C372.88 22.84 371.92 22.6933 370.987 22.4C370.054 22.1067 369.227 21.68 368.507 21.12C368.214 21.3067 368.014 21.5467 367.907 21.84C367.8 22.1067 367.747 22.3867 367.747 22.68C367.747 23.5333 368.134 24.2 368.907 24.68C369.68 25.1333 370.667 25.4533 371.867 25.64L376.867 26.44ZM373.507 11.32C372.867 11.32 372.267 11.44 371.707 11.68C371.147 11.8933 370.654 12.2 370.227 12.6C369.8 13 369.454 13.4933 369.187 14.08C368.947 14.64 368.827 15.28 368.827 16C368.827 16.88 369 17.6667 369.347 18.36C369.72 19.0533 370.187 19.6267 370.747 20.08C371.307 20.5333 371.92 20.88 372.587 21.12C373.28 21.36 373.934 21.48 374.547 21.48C375.214 21.48 375.814 21.36 376.347 21.12C376.907 20.8533 377.387 20.5067 377.787 20.08C378.187 19.6267 378.494 19.1067 378.707 18.52C378.92 17.9333 379.027 17.32 379.027 16.68C379.027 15.88 378.867 15.1467 378.547 14.48C378.227 13.8133 377.8 13.2533 377.267 12.8C376.76 12.32 376.174 11.96 375.507 11.72C374.84 11.4533 374.174 11.32 373.507 11.32ZM416.502 26.6H416.702C416.889 26.6 417.062 26.5333 417.222 26.4C417.382 26.24 417.516 26.0533 417.622 25.84C417.756 25.6 417.849 25.36 417.902 25.12C417.956 24.8533 417.982 24.6133 417.982 24.4V13.52H405.182V24.4C405.182 24.6133 405.209 24.8533 405.262 25.12C405.316 25.36 405.396 25.5867 405.502 25.8C405.609 26.0133 405.729 26.2 405.862 26.36C406.022 26.52 406.209 26.6 406.422 26.6H406.622V27H401.022V26.6H401.222C401.409 26.6 401.582 26.5333 401.742 26.4C401.902 26.24 402.036 26.0533 402.142 25.84C402.276 25.6 402.369 25.36 402.422 25.12C402.476 24.8533 402.502 24.6133 402.502 24.4V3.08C402.502 2.89333 402.476 2.68 402.422 2.44C402.369 2.2 402.289 1.97333 402.182 1.76C402.076 1.54666 401.942 1.37333 401.782 1.24C401.622 1.08 401.436 0.999999 401.222 0.999999H401.022V0.599999H406.622V0.999999H406.422C406.209 0.999999 406.022 1.08 405.862 1.24C405.702 1.37333 405.569 1.54666 405.462 1.76C405.382 1.97333 405.316 2.2 405.262 2.44C405.209 2.68 405.182 2.89333 405.182 3.08V12.12H417.982V3.08C417.982 2.89333 417.956 2.68 417.902 2.44C417.849 2.2 417.769 1.97333 417.662 1.76C417.556 1.54666 417.422 1.37333 417.262 1.24C417.102 1.08 416.916 0.999999 416.702 0.999999H416.502V0.599999H422.102V0.999999H421.902C421.689 0.999999 421.502 1.08 421.342 1.24C421.182 1.37333 421.049 1.54666 420.942 1.76C420.862 1.97333 420.796 2.2 420.742 2.44C420.689 2.68 420.662 2.89333 420.662 3.08V24.4C420.662 24.6133 420.689 24.8533 420.742 25.12C420.822 25.36 420.916 25.5867 421.022 25.8C421.129 26.0133 421.249 26.2 421.382 26.36C421.542 26.52 421.716 26.6 421.902 26.6H422.102V27H416.502V26.6ZM443.505 24.4C443.505 24.6133 443.532 24.8533 443.585 25.12C443.638 25.36 443.718 25.5867 443.825 25.8C443.958 26.0133 444.092 26.2 444.225 26.36C444.385 26.52 444.572 26.6 444.785 26.6V27H439.625V26.6C439.812 26.6 439.985 26.52 440.145 26.36C440.305 26.2 440.438 26.0133 440.545 25.8C440.678 25.5867 440.772 25.36 440.825 25.12C440.878 24.8533 440.905 24.6133 440.905 24.4V16.96C440.905 16 440.772 15.16 440.505 14.44C440.238 13.72 439.878 13.12 439.425 12.64C438.972 12.16 438.452 11.8133 437.865 11.6C437.305 11.36 436.732 11.24 436.145 11.24C435.558 11.24 434.972 11.36 434.385 11.6C433.825 11.8133 433.318 12.12 432.865 12.52C432.438 12.92 432.078 13.4133 431.785 14C431.518 14.56 431.385 15.1867 431.385 15.88V24.4C431.385 24.6133 431.412 24.8533 431.465 25.12C431.518 25.36 431.598 25.5867 431.705 25.8C431.838 26.0133 431.972 26.2 432.105 26.36C432.265 26.52 432.452 26.6 432.665 26.6V27H427.465V26.6C427.652 26.6 427.825 26.52 427.985 26.36C428.145 26.2 428.278 26.0133 428.385 25.8C428.518 25.5867 428.612 25.36 428.665 25.12C428.718 24.8533 428.745 24.6133 428.745 24.4V3.96C428.745 3.50666 428.678 3.08 428.545 2.68C428.412 2.28 428.025 2.06667 427.385 2.04V1.64L431.385 0.399999V11.96C431.572 11.7467 431.812 11.52 432.105 11.28C432.398 11.0133 432.745 10.7733 433.145 10.56C433.572 10.32 434.052 10.1333 434.585 10C435.145 9.84 435.798 9.76 436.545 9.76C437.798 9.76 438.865 9.97333 439.745 10.4C440.625 10.8267 441.345 11.3867 441.905 12.08C442.465 12.7467 442.865 13.4933 443.105 14.32C443.372 15.12 443.505 15.9067 443.505 16.68V24.4ZM463.265 0.599999H468.985V0.999999H468.785C468.598 0.999999 468.425 1.08 468.265 1.24C468.105 1.37333 467.971 1.54666 467.865 1.76C467.758 1.94667 467.665 2.17333 467.585 2.44C467.531 2.68 467.505 2.89333 467.505 3.08V24.4C467.505 24.6133 467.531 24.8533 467.585 25.12C467.638 25.36 467.718 25.5867 467.825 25.8C467.958 26.0133 468.091 26.2 468.225 26.36C468.385 26.52 468.571 26.6 468.785 26.6H468.985V27H463.265V26.6H463.465C463.678 26.6 463.865 26.5333 464.025 26.4C464.185 26.24 464.318 26.0533 464.425 25.84C464.558 25.6 464.651 25.36 464.705 25.12C464.758 24.8533 464.785 24.6133 464.785 24.4V3.08C464.785 2.89333 464.758 2.68 464.705 2.44C464.651 2.2 464.558 1.97333 464.425 1.76C464.318 1.54666 464.185 1.37333 464.025 1.24C463.865 1.08 463.678 0.999999 463.465 0.999999H463.265V0.599999ZM475.391 27V26.6C475.605 26.6 475.791 26.52 475.951 26.36C476.111 26.2 476.245 26.0133 476.351 25.8C476.458 25.5867 476.538 25.36 476.591 25.12C476.645 24.8533 476.671 24.6133 476.671 24.4V13.32C476.671 12.8667 476.605 12.44 476.471 12.04C476.338 11.6133 475.951 11.3867 475.311 11.36V11L479.311 9.72V24.4C479.311 24.6133 479.338 24.8533 479.391 25.12C479.445 25.36 479.525 25.5867 479.631 25.8C479.738 26.0133 479.871 26.2 480.031 26.36C480.191 26.52 480.378 26.6 480.591 26.6V27H475.391ZM475.591 5.88C475.591 5.34667 475.765 4.89333 476.111 4.52C476.485 4.14667 476.938 3.96 477.471 3.96C478.005 3.96 478.458 4.14667 478.831 4.52C479.205 4.89333 479.391 5.34667 479.391 5.88C479.391 6.41333 479.205 6.85333 478.831 7.2C478.458 7.54667 478.005 7.72 477.471 7.72C476.938 7.72 476.485 7.54667 476.111 7.2C475.765 6.85333 475.591 6.41333 475.591 5.88ZM4 55.6H9.76V56H9.56C9.34667 56 9.16 56.08 9 56.24C8.84 56.3733 8.69333 56.56 8.56 56.8C8.45333 57.0133 8.36 57.24 8.28 57.48C8.22667 57.72 8.2 57.9333 8.2 58.12V80.4C8.2 81.2533 8.09333 82.04 7.88 82.76C7.66667 83.48 7.37333 84.1467 7 84.76C6.65333 85.4 6.25333 85.9733 5.8 86.48C5.37333 87.0133 4.92 87.4933 4.44 87.92C3.34667 88.9067 2.09333 89.7333 0.68 90.4L0.48 90.08C1.41333 89.4133 2.24 88.6267 2.96 87.72C3.57333 86.9467 4.14667 86 4.68 84.88C5.21333 83.76 5.48 82.4667 5.48 81V58.12C5.48 57.9333 5.45333 57.72 5.4 57.48C5.34667 57.24 5.25333 57.0133 5.12 56.8C5.01333 56.56 4.88 56.3733 4.72 56.24C4.56 56.08 4.38667 56 4.2 56H4V55.6ZM17.3994 64.76V81.16C17.3994 81.9867 17.2927 82.7467 17.0794 83.44C16.8927 84.1333 16.6394 84.7733 16.3194 85.36C15.9994 85.9467 15.6394 86.4667 15.2394 86.92C14.8394 87.4 14.426 87.8267 13.9994 88.2C12.986 89.08 11.8527 89.7867 10.5994 90.32L10.4394 89.96C11.2394 89.4533 11.9594 88.8 12.5994 88C13.1327 87.3333 13.626 86.48 14.0794 85.44C14.5594 84.4267 14.7994 83.2 14.7994 81.76V68.36C14.7994 67.9067 14.7327 67.48 14.5994 67.08C14.466 66.6533 14.0794 66.4267 13.4394 66.4V66.04L17.3994 64.76ZM13.8794 60.88C13.8794 60.3467 14.066 59.8933 14.4394 59.52C14.8127 59.1467 15.266 58.96 15.7994 58.96C16.3327 58.96 16.7727 59.1467 17.1194 59.52C17.4927 59.8933 17.6794 60.3467 17.6794 60.88C17.6794 61.4133 17.4927 61.8533 17.1194 62.2C16.7727 62.5467 16.3327 62.72 15.7994 62.72C15.266 62.72 14.8127 62.5467 14.4394 62.2C14.066 61.8533 13.8794 61.4133 13.8794 60.88ZM41.4294 81.6H41.6294V82H35.9094V81.6H36.1094C36.3227 81.6 36.5094 81.52 36.6694 81.36C36.8294 81.2 36.9627 81.0133 37.0694 80.8C37.2027 80.5867 37.296 80.36 37.3494 80.12C37.4027 79.8533 37.4294 79.6133 37.4294 79.4V58.08C37.4294 57.8933 37.4027 57.68 37.3494 57.44C37.296 57.2 37.2027 56.9733 37.0694 56.76C36.9627 56.5467 36.8294 56.3733 36.6694 56.24C36.5094 56.08 36.336 56 36.1494 56H35.9494V55.6H41.6694V56H41.4694C41.256 56 41.0694 56.08 40.9094 56.24C40.7494 56.3733 40.6027 56.5467 40.4694 56.76C40.3627 56.9733 40.2694 57.2 40.1894 57.44C40.136 57.68 40.1094 57.8933 40.1094 58.08V67.36L50.2694 57.28C50.4294 57.0933 50.5094 56.88 50.5094 56.64C50.5094 56.2133 50.3494 56 50.0294 56H49.8294V55.6H54.7094V56H54.5094C54.136 56 53.7494 56.1333 53.3494 56.4C52.9494 56.6667 52.5494 57 52.1494 57.4L43.7494 65.76L52.5894 79.16C52.616 79.2133 52.736 79.3733 52.9494 79.64C53.1627 79.9067 53.416 80.1867 53.7094 80.48C54.0294 80.7733 54.376 81.04 54.7494 81.28C55.1494 81.4933 55.5494 81.6 55.9494 81.6V82H54.9894C54.1894 82 53.5094 81.96 52.9494 81.88C52.416 81.7733 51.9494 81.6133 51.5494 81.4C51.1494 81.1867 50.7894 80.92 50.4694 80.6C50.176 80.28 49.8694 79.88 49.5494 79.4L41.7894 67.68L40.1094 69.4V79.4C40.1094 79.6133 40.136 79.84 40.1894 80.08C40.2694 80.32 40.3627 80.56 40.4694 80.8C40.576 81.0133 40.7094 81.2 40.8694 81.36C41.0294 81.52 41.216 81.6 41.4294 81.6ZM73.8856 82C73.4323 82 73.0056 81.9067 72.6056 81.72C72.2323 81.5067 71.899 81.28 71.6056 81.04C71.259 80.7467 70.939 80.4267 70.6456 80.08L65.4856 73.44L64.6456 74.28V79.48C64.6456 79.6667 64.6723 79.88 64.7256 80.12C64.779 80.36 64.859 80.6 64.9656 80.84C65.099 81.0533 65.2456 81.24 65.4056 81.4C65.5656 81.5333 65.7523 81.6 65.9656 81.6V82H60.7656V81.6C60.9523 81.6 61.1256 81.5333 61.2856 81.4C61.4456 81.24 61.579 81.0533 61.6856 80.84C61.7923 80.6267 61.8723 80.4 61.9256 80.16C61.979 79.92 62.0056 79.6933 62.0056 79.48V59.12C62.0056 58.7467 61.8856 58.3733 61.6456 58C61.4056 57.6267 61.0856 57.4267 60.6856 57.4V57L64.6456 55.76V72.44L71.1256 66.36C71.259 66.2267 71.3256 66.0667 71.3256 65.88C71.3256 65.6933 71.2323 65.6 71.0456 65.6V65.2H74.6456V65.6C74.4856 65.6 74.3123 65.64 74.1256 65.72C73.9656 65.8 73.8056 65.8933 73.6456 66C73.459 66.1067 73.2723 66.24 73.0856 66.4L67.4056 71.68L73.3256 79.16C73.6723 79.64 74.019 80.0533 74.3656 80.4C74.659 80.6933 74.9656 80.9733 75.2856 81.24C75.6323 81.48 75.9256 81.6 76.1656 81.6V82H73.8856ZM93.3547 81.6H93.5547C93.768 81.6 93.9547 81.5333 94.1147 81.4C94.2747 81.24 94.408 81.0533 94.5147 80.84C94.648 80.6267 94.7414 80.4 94.7947 80.16C94.8747 79.92 94.9147 79.6933 94.9147 79.48V58.08C94.9147 57.8933 94.8747 57.68 94.7947 57.44C94.7414 57.2 94.648 56.9733 94.5147 56.76C94.408 56.5467 94.2747 56.3733 94.1147 56.24C93.9547 56.08 93.768 56 93.5547 56H93.3547V55.6H99.1147V56H98.9147C98.7014 56 98.5147 56.08 98.3547 56.24C98.1947 56.3733 98.0614 56.5467 97.9547 56.76C97.848 56.9733 97.7547 57.2 97.6747 57.44C97.6214 57.68 97.5947 57.8933 97.5947 58.08V80.52H106.355C106.861 80.52 107.301 80.4 107.675 80.16C108.048 79.92 108.355 79.6267 108.595 79.28C108.861 78.9067 109.048 78.52 109.155 78.12C109.288 77.6933 109.355 77.3067 109.355 76.96H109.755V82H93.3547V81.6ZM114.108 82V81.6C114.322 81.6 114.508 81.52 114.668 81.36C114.828 81.2 114.962 81.0133 115.068 80.8C115.202 80.5867 115.295 80.36 115.348 80.12C115.402 79.8533 115.428 79.6133 115.428 79.4V58.92C115.428 58.4667 115.362 58.04 115.228 57.64C115.095 57.24 114.695 57.0267 114.028 57V56.6L118.068 55.36V79.4C118.068 79.6133 118.095 79.8533 118.148 80.12C118.202 80.36 118.282 80.5867 118.388 80.8C118.522 81.0133 118.655 81.2 118.788 81.36C118.948 81.52 119.135 81.6 119.348 81.6V82H114.108ZM159.117 81.6H159.317C159.504 81.6 159.677 81.52 159.837 81.36C159.997 81.2 160.13 81.0133 160.237 80.8C160.37 80.5867 160.464 80.36 160.517 80.12C160.57 79.8533 160.597 79.6133 160.597 79.4V58.36L150.277 82.44L140.477 59.6V79.4C140.477 79.6133 140.504 79.8533 140.557 80.12C140.61 80.36 140.69 80.5867 140.797 80.8C140.93 81.0133 141.077 81.2 141.237 81.36C141.397 81.52 141.584 81.6 141.797 81.6H141.997V82H137.637V81.6H137.837C138.024 81.6 138.197 81.52 138.357 81.36C138.517 81.2 138.65 81.0133 138.757 80.8C138.864 80.5867 138.944 80.36 138.997 80.12C139.05 79.8533 139.077 79.6133 139.077 79.4V58.08C139.077 57.8933 139.05 57.68 138.997 57.44C138.944 57.2 138.864 56.9733 138.757 56.76C138.65 56.5467 138.517 56.3733 138.357 56.24C138.197 56.08 138.024 56 137.837 56H137.637V55.6H141.717L150.997 77.48L160.277 55.6H164.797V56H164.597C164.384 56 164.197 56.08 164.037 56.24C163.877 56.3733 163.73 56.5467 163.597 56.76C163.49 56.9733 163.41 57.2 163.357 57.44C163.304 57.68 163.277 57.8933 163.277 58.08V79.4C163.277 79.6133 163.304 79.8533 163.357 80.12C163.41 80.36 163.49 80.5867 163.597 80.8C163.73 81.0133 163.877 81.2 164.037 81.36C164.197 81.52 164.384 81.6 164.597 81.6H164.797V82H159.117V81.6ZM196.291 79.4C196.291 79.6133 196.317 79.8533 196.371 80.12C196.424 80.36 196.504 80.5867 196.611 80.8C196.717 81.0133 196.837 81.2 196.971 81.36C197.131 81.52 197.317 81.6 197.531 81.6V82H192.331V81.6C192.544 81.6 192.731 81.52 192.891 81.36C193.051 81.2 193.184 81.0133 193.291 80.8C193.424 80.5867 193.517 80.36 193.571 80.12C193.624 79.8533 193.651 79.6133 193.651 79.4V70.76C193.651 70.1467 193.557 69.56 193.371 69C193.211 68.44 192.957 67.96 192.611 67.56C192.264 67.1333 191.837 66.8 191.331 66.56C190.824 66.2933 190.251 66.16 189.611 66.16C188.891 66.16 188.264 66.3333 187.731 66.68C187.224 67 186.797 67.4 186.451 67.88C186.131 68.36 185.891 68.8533 185.731 69.36C185.571 69.84 185.491 70.24 185.491 70.56V79.4C185.491 79.6133 185.517 79.8533 185.571 80.12C185.624 80.36 185.704 80.5867 185.811 80.8C185.944 81.0133 186.077 81.2 186.211 81.36C186.371 81.52 186.557 81.6 186.771 81.6V82H181.611V81.6C181.797 81.6 181.971 81.52 182.131 81.36C182.291 81.2 182.424 81.0133 182.531 80.8C182.664 80.5867 182.757 80.36 182.811 80.12C182.864 79.8533 182.891 79.6133 182.891 79.4V70.52C182.891 69.88 182.771 69.2933 182.531 68.76C182.317 68.2 182.011 67.7333 181.611 67.36C181.237 66.9867 180.797 66.6933 180.291 66.48C179.811 66.2667 179.317 66.16 178.811 66.16C178.117 66.16 177.504 66.2933 176.971 66.56C176.464 66.8267 176.037 67.16 175.691 67.56C175.371 67.96 175.117 68.4 174.931 68.88C174.771 69.3333 174.691 69.7733 174.691 70.2V79.4C174.691 79.6133 174.717 79.8533 174.771 80.12C174.824 80.36 174.904 80.5867 175.011 80.8C175.144 81.0133 175.277 81.2 175.411 81.36C175.571 81.52 175.757 81.6 175.971 81.6V82H170.811V81.6C170.997 81.6 171.171 81.52 171.331 81.36C171.491 81.2 171.624 81.0133 171.731 80.8C171.864 80.5867 171.957 80.36 172.011 80.12C172.064 79.8533 172.091 79.6133 172.091 79.4V68.72C172.091 68.5067 172.077 68.2667 172.051 68C172.024 67.7333 171.971 67.48 171.891 67.24C171.811 67 171.677 66.8 171.491 66.64C171.304 66.48 171.051 66.4 170.731 66.4V66.04L174.691 64.72V66.76C175.091 66.3067 175.637 65.8667 176.331 65.44C177.051 65.0133 177.984 64.8 179.131 64.8C179.877 64.8 180.544 64.9067 181.131 65.12C181.717 65.3333 182.224 65.6133 182.651 65.96C183.104 66.28 183.491 66.6533 183.811 67.08C184.131 67.5067 184.397 67.92 184.611 68.32C184.824 67.92 185.077 67.52 185.371 67.12C185.664 66.6933 186.011 66.3067 186.411 65.96C186.837 65.6133 187.331 65.3333 187.891 65.12C188.477 64.9067 189.157 64.8 189.931 64.8C191.424 64.8 192.597 65.0667 193.451 65.6C194.304 66.1333 194.931 66.7733 195.331 67.52C195.757 68.2667 196.024 69.0533 196.131 69.88C196.237 70.68 196.291 71.36 196.291 71.92V79.4ZM220.219 81.6H220.419V82H215.979V81.6H216.179C216.365 81.6 216.539 81.52 216.699 81.36C216.885 81.2 217.032 81.0133 217.139 80.8C217.245 80.5867 217.325 80.36 217.379 80.12C217.459 79.8533 217.499 79.6133 217.499 79.4V58.08C217.499 57.8933 217.472 57.68 217.419 57.44C217.392 57.2 217.325 56.9733 217.219 56.76C217.112 56.5467 216.965 56.3733 216.779 56.24C216.592 56.08 216.365 56 216.099 56H215.899V55.6H219.939L234.459 78.48V58.08C234.459 57.8933 234.419 57.68 234.339 57.44C234.285 57.2 234.192 56.9733 234.059 56.76C233.952 56.5467 233.819 56.3733 233.659 56.24C233.499 56.08 233.312 56 233.099 56H232.899V55.6H237.379V56H237.179C236.965 56 236.779 56.08 236.619 56.24C236.459 56.3733 236.312 56.5467 236.179 56.76C236.072 56.9733 235.992 57.2 235.939 57.44C235.885 57.68 235.859 57.8933 235.859 58.08V82H233.379L218.899 59.04V79.4C218.899 79.6133 218.925 79.8533 218.979 80.12C219.032 80.36 219.112 80.5867 219.219 80.8C219.352 81.0133 219.499 81.2 219.659 81.36C219.819 81.52 220.005 81.6 220.219 81.6ZM259.216 79.4C259.216 79.6133 259.243 79.8533 259.296 80.12C259.349 80.36 259.429 80.5867 259.536 80.8C259.669 81.0133 259.803 81.2 259.936 81.36C260.096 81.52 260.283 81.6 260.496 81.6V82H255.336V81.6C255.523 81.6 255.696 81.52 255.856 81.36C256.016 81.2 256.149 81.0133 256.256 80.8C256.389 80.5867 256.483 80.36 256.536 80.12C256.589 79.8533 256.616 79.6133 256.616 79.4V71.96C256.616 71 256.483 70.16 256.216 69.44C255.949 68.72 255.589 68.12 255.136 67.64C254.683 67.16 254.163 66.8133 253.576 66.6C253.016 66.36 252.443 66.24 251.856 66.24C251.269 66.24 250.683 66.36 250.096 66.6C249.536 66.84 249.029 67.16 248.576 67.56C248.149 67.9333 247.789 68.3867 247.496 68.92C247.229 69.4267 247.096 69.96 247.096 70.52V79.4C247.096 79.6133 247.123 79.8533 247.176 80.12C247.229 80.36 247.309 80.5867 247.416 80.8C247.549 81.0133 247.683 81.2 247.816 81.36C247.976 81.52 248.163 81.6 248.376 81.6V82H243.176V81.6C243.363 81.6 243.536 81.52 243.696 81.36C243.856 81.2 243.989 81.0133 244.096 80.8C244.229 80.5867 244.323 80.36 244.376 80.12C244.429 79.8533 244.456 79.6133 244.456 79.4V68.36C244.456 67.9067 244.389 67.48 244.256 67.08C244.123 66.6533 243.736 66.4267 243.096 66.4V66.04L247.096 64.76V66.96C247.283 66.7467 247.523 66.52 247.816 66.28C248.109 66.0133 248.456 65.7733 248.856 65.56C249.283 65.32 249.763 65.1333 250.296 65C250.856 64.84 251.509 64.76 252.256 64.76C253.509 64.76 254.576 64.9733 255.456 65.4C256.336 65.8267 257.056 66.3867 257.616 67.08C258.176 67.7467 258.576 68.4933 258.816 69.32C259.083 70.12 259.216 70.9067 259.216 71.68V79.4ZM292.296 55.2C294.376 55.2 296.242 55.5733 297.896 56.32C299.549 57.04 300.949 58.0267 302.096 59.28C303.269 60.5067 304.162 61.9467 304.776 63.6C305.416 65.2267 305.736 66.9333 305.736 68.72C305.736 70.72 305.362 72.56 304.616 74.24C303.896 75.92 302.896 77.36 301.616 78.56C300.336 79.76 298.842 80.7067 297.136 81.4C295.456 82.0667 293.656 82.4 291.736 82.4C289.682 82.4 287.829 82.0267 286.176 81.28C284.549 80.5333 283.162 79.5467 282.016 78.32C280.896 77.0933 280.029 75.68 279.416 74.08C278.802 72.48 278.496 70.8133 278.496 69.08C278.496 67.3733 278.802 65.6933 279.416 64.04C280.029 62.36 280.922 60.8667 282.096 59.56C283.296 58.2533 284.749 57.2 286.456 56.4C288.162 55.6 290.109 55.2 292.296 55.2ZM292.256 81C294.042 80.92 295.602 80.52 296.936 79.8C298.296 79.0533 299.429 78.12 300.336 77C301.242 75.8533 301.909 74.6 302.336 73.24C302.789 71.88 303.016 70.5333 303.016 69.2C303.016 67.7333 302.749 66.2533 302.216 64.76C301.682 63.2667 300.922 61.92 299.936 60.72C298.949 59.4933 297.762 58.5067 296.376 57.76C295.016 56.9867 293.482 56.6 291.776 56.6C290.122 56.6 288.642 56.9733 287.336 57.72C286.029 58.44 284.909 59.3733 283.976 60.52C283.069 61.6667 282.376 62.9467 281.896 64.36C281.416 65.7733 281.176 67.16 281.176 68.52C281.176 69.9867 281.456 71.4667 282.016 72.96C282.576 74.4267 283.349 75.76 284.336 76.96C285.322 78.16 286.482 79.1333 287.816 79.88C289.176 80.6267 290.656 81 292.256 81ZM319.645 82.28C318.312 82.28 317.112 82.0667 316.045 81.64C314.979 81.1867 314.059 80.5867 313.285 79.84C312.539 79.0667 311.952 78.16 311.525 77.12C311.125 76.08 310.925 74.9467 310.925 73.72C310.925 72.4133 311.152 71.2267 311.605 70.16C312.059 69.0667 312.685 68.1333 313.485 67.36C314.285 66.5867 315.232 65.9867 316.325 65.56C317.419 65.1333 318.605 64.92 319.885 64.92C321.165 64.92 322.339 65.1333 323.405 65.56C324.472 65.96 325.392 66.5333 326.165 67.28C326.939 68.0267 327.539 68.92 327.965 69.96C328.392 70.9733 328.605 72.0933 328.605 73.32C328.605 74.4667 328.405 75.5867 328.005 76.68C327.632 77.7467 327.059 78.6933 326.285 79.52C325.539 80.3467 324.605 81.0133 323.485 81.52C322.392 82.0267 321.112 82.28 319.645 82.28ZM319.405 66.24C318.445 66.2933 317.592 66.5333 316.845 66.96C316.125 67.36 315.512 67.8933 315.005 68.56C314.525 69.2 314.152 69.9333 313.885 70.76C313.645 71.5867 313.525 72.4267 313.525 73.28C313.525 74.2667 313.672 75.2267 313.965 76.16C314.285 77.0667 314.725 77.88 315.285 78.6C315.872 79.32 316.565 79.8933 317.365 80.32C318.165 80.7467 319.059 80.96 320.045 80.96C321.032 80.96 321.899 80.7467 322.645 80.32C323.419 79.8933 324.059 79.3467 324.565 78.68C325.072 77.9867 325.445 77.2133 325.685 76.36C325.952 75.5067 326.085 74.6533 326.085 73.8C326.085 72.92 325.952 72.04 325.685 71.16C325.419 70.2533 325.005 69.44 324.445 68.72C323.885 67.9733 323.179 67.3733 322.325 66.92C321.499 66.4667 320.525 66.24 319.405 66.24ZM346.533 55.6H352.213C355.173 55.6 357.413 56.1733 358.933 57.32C360.48 58.44 361.253 60.04 361.253 62.12C361.253 63.24 360.987 64.24 360.453 65.12C359.92 66 359.213 66.7467 358.333 67.36C357.48 67.9467 356.507 68.4 355.413 68.72C354.347 69.04 353.28 69.2 352.213 69.2H350.693V79.4C350.693 79.6133 350.72 79.8533 350.773 80.12C350.827 80.36 350.907 80.5867 351.013 80.8C351.147 81.0133 351.28 81.2 351.413 81.36C351.573 81.52 351.76 81.6 351.973 81.6H352.173V82H346.533V81.6H346.733C346.92 81.6 347.093 81.52 347.253 81.36C347.413 81.2 347.547 81.0133 347.653 80.8C347.76 80.5867 347.84 80.36 347.893 80.12C347.947 79.8533 347.973 79.6133 347.973 79.4V58.08C347.973 57.7067 347.867 57.28 347.653 56.8C347.44 56.32 347.133 56.0533 346.733 56H346.533V55.6ZM350.693 57V67.8H351.893C352.96 67.8 353.907 67.6533 354.733 67.36C355.587 67.0667 356.293 66.68 356.853 66.2C357.413 65.72 357.84 65.1733 358.133 64.56C358.427 63.9467 358.573 63.32 358.573 62.68C358.573 61.9067 358.44 61.1867 358.173 60.52C357.933 59.8267 357.52 59.2267 356.933 58.72C356.373 58.1867 355.627 57.7733 354.693 57.48C353.76 57.16 352.613 57 351.253 57H350.693ZM375.179 64.92C376.619 64.92 377.859 65.1733 378.899 65.68C379.966 66.16 380.846 66.8 381.539 67.6C382.259 68.4 382.793 69.32 383.139 70.36C383.486 71.4 383.659 72.4667 383.659 73.56C383.659 74.6267 383.486 75.68 383.139 76.72C382.819 77.76 382.313 78.6933 381.619 79.52C380.953 80.3467 380.113 81.0133 379.099 81.52C378.086 82.0267 376.886 82.28 375.499 82.28C374.673 82.28 373.819 82.0667 372.939 81.64C372.086 81.1867 371.313 80.6267 370.619 79.96V87.8C370.619 88.0133 370.646 88.24 370.699 88.48C370.753 88.7467 370.833 88.9867 370.939 89.2C371.073 89.4133 371.206 89.6 371.339 89.76C371.499 89.92 371.686 90 371.899 90V90.4H366.699V90C366.886 90 367.059 89.92 367.219 89.76C367.379 89.6 367.513 89.4133 367.619 89.2C367.753 88.9867 367.846 88.7467 367.899 88.48C367.953 88.24 367.979 88.0133 367.979 87.8V67.56C367.979 67.32 367.966 67.0933 367.939 66.88C367.939 66.64 367.899 66.44 367.819 66.28C367.739 66.0933 367.606 65.9467 367.419 65.84C367.259 65.7067 367.019 65.6267 366.699 65.6V65.2H370.619V66.96C371.153 66.32 371.793 65.8267 372.539 65.48C373.313 65.1067 374.193 64.92 375.179 64.92ZM375.539 80.92C376.473 80.8933 377.286 80.68 377.979 80.28C378.673 79.88 379.246 79.36 379.699 78.72C380.153 78.08 380.486 77.3733 380.699 76.6C380.913 75.8 381.019 74.9733 381.019 74.12C381.019 73.16 380.886 72.2133 380.619 71.28C380.353 70.3467 379.966 69.52 379.459 68.8C378.953 68.0533 378.326 67.4533 377.579 67C376.859 66.52 376.033 66.28 375.099 66.28C374.539 66.28 373.979 66.3867 373.419 66.6C372.886 66.8133 372.406 67.12 371.979 67.52C371.579 67.92 371.246 68.4 370.979 68.96C370.739 69.4933 370.619 70.0933 370.619 70.76V76C370.619 76.72 370.766 77.3867 371.059 78C371.353 78.5867 371.726 79.1067 372.179 79.56C372.659 79.9867 373.193 80.32 373.779 80.56C374.366 80.8 374.953 80.92 375.539 80.92ZM415.196 55.2C417.276 55.2 419.143 55.6 420.796 56.4C422.449 57.1733 423.849 58.2 424.996 59.48C426.169 60.7333 427.063 62.16 427.676 63.76C428.316 65.36 428.636 66.9867 428.636 68.64C428.636 69.84 428.516 70.9467 428.276 71.96C428.036 72.9733 427.703 73.9067 427.276 74.76C426.849 75.6133 426.356 76.4 425.796 77.12C425.263 77.8133 424.676 78.4533 424.036 79.04L425.356 80.52C426.396 81.48 427.529 82.3333 428.756 83.08C429.983 83.8533 431.223 84.4933 432.476 85C433.729 85.5333 434.969 85.9333 436.196 86.2C437.423 86.4667 438.543 86.6 439.556 86.6C440.436 86.6 441.369 86.52 442.356 86.36C443.369 86.2 444.383 85.96 445.396 85.64C446.436 85.32 447.463 84.8933 448.476 84.36C449.489 83.8533 450.449 83.24 451.356 82.52L451.596 82.88C450.716 83.84 449.729 84.68 448.636 85.4C447.543 86.1467 446.396 86.76 445.196 87.24C443.996 87.72 442.756 88.08 441.476 88.32C440.223 88.5867 438.983 88.72 437.756 88.72C436.529 88.72 435.303 88.6133 434.076 88.4C432.849 88.1867 431.623 87.8267 430.396 87.32C429.169 86.8133 427.943 86.12 426.716 85.24C425.489 84.3867 424.263 83.3067 423.036 82L421.676 80.56C421.223 80.8533 420.703 81.12 420.116 81.36C419.556 81.5733 418.956 81.76 418.316 81.92C417.676 82.08 417.023 82.2 416.356 82.28C415.689 82.36 415.063 82.4 414.476 82.4C412.609 82.4 410.876 82.0267 409.276 81.28C407.703 80.5067 406.329 79.5067 405.156 78.28C404.009 77.0267 403.103 75.6 402.436 74C401.769 72.4 401.436 70.76 401.436 69.08C401.436 67.3733 401.743 65.6933 402.356 64.04C402.969 62.36 403.863 60.8667 405.036 59.56C406.236 58.2533 407.689 57.2 409.396 56.4C411.103 55.6 413.036 55.2 415.196 55.2ZM415.156 81C416.943 80.92 418.516 80.52 419.876 79.8C421.236 79.0533 422.356 78.12 423.236 77C424.143 75.8533 424.823 74.6 425.276 73.24C425.729 71.88 425.956 70.5467 425.956 69.24C425.956 67.7733 425.676 66.2933 425.116 64.8C424.583 63.28 423.823 61.92 422.836 60.72C421.876 59.4933 420.703 58.5067 419.316 57.76C417.929 56.9867 416.396 56.6 414.716 56.6C413.063 56.6 411.569 56.9733 410.236 57.72C408.929 58.44 407.823 59.3733 406.916 60.52C406.009 61.6667 405.316 62.9467 404.836 64.36C404.356 65.7467 404.116 67.12 404.116 68.48C404.116 69.9467 404.383 71.4267 404.916 72.92C405.476 74.4133 406.249 75.76 407.236 76.96C408.223 78.16 409.383 79.1333 410.716 79.88C412.076 80.6267 413.556 81 415.156 81ZM445.975 90C446.189 90 446.375 89.92 446.535 89.76C446.695 89.6 446.829 89.4133 446.935 89.2C447.042 88.9867 447.122 88.7467 447.175 88.48C447.229 88.24 447.255 88.0133 447.255 87.8V80.24C446.775 80.8533 446.189 81.3467 445.495 81.72C444.802 82.0933 443.855 82.28 442.655 82.28C441.242 82.28 440.002 82.04 438.935 81.56C437.895 81.0533 437.029 80.3867 436.335 79.56C435.642 78.7333 435.122 77.8 434.775 76.76C434.455 75.72 434.295 74.6533 434.295 73.56C434.295 72.4933 434.482 71.44 434.855 70.4C435.255 69.36 435.802 68.44 436.495 67.64C437.215 66.8133 438.082 66.16 439.095 65.68C440.135 65.1733 441.295 64.92 442.575 64.92C443.509 64.92 444.429 65.1467 445.335 65.6C446.269 66.0267 447.002 66.5333 447.535 67.12L449.895 64.6V87.8C449.895 88.0133 449.922 88.24 449.975 88.48C450.029 88.7467 450.109 88.9867 450.215 89.2C450.322 89.4133 450.455 89.6 450.615 89.76C450.775 89.92 450.962 90 451.175 90V90.4H445.975V90ZM442.895 80.92C443.455 80.92 443.989 80.8133 444.495 80.6C445.029 80.36 445.495 80.0533 445.895 79.68C446.322 79.28 446.655 78.8267 446.895 78.32C447.135 77.7867 447.255 77.2133 447.255 76.6V71.16C447.255 70.3867 447.109 69.7067 446.815 69.12C446.522 68.5067 446.149 68 445.695 67.6C445.242 67.1733 444.722 66.8533 444.135 66.64C443.549 66.4267 442.962 66.32 442.375 66.32C441.495 66.32 440.709 66.52 440.015 66.92C439.349 67.2933 438.775 67.8 438.295 68.44C437.842 69.08 437.495 69.8 437.255 70.6C437.015 71.4 436.895 72.2133 436.895 73.04C436.895 73.9733 437.029 74.9067 437.295 75.84C437.562 76.7733 437.949 77.6133 438.455 78.36C438.989 79.08 439.615 79.68 440.335 80.16C441.082 80.64 441.935 80.8933 442.895 80.92ZM474.873 81.6H475.073V82H469.433V81.6H469.633C469.819 81.6 469.993 81.52 470.153 81.36C470.313 81.2 470.446 81.0133 470.553 80.8C470.686 80.5867 470.779 80.36 470.833 80.12C470.886 79.8533 470.913 79.6133 470.913 79.4V58.08C470.913 57.8933 470.886 57.68 470.833 57.44C470.779 57.2 470.686 56.9733 470.553 56.76C470.446 56.5467 470.313 56.3733 470.153 56.24C469.993 56.08 469.819 56 469.633 56H469.433V55.6H476.393C479.059 55.6 481.113 56.12 482.553 57.16C484.019 58.2 484.753 59.7333 484.753 61.76C484.753 62.7733 484.579 63.6667 484.233 64.44C483.913 65.1867 483.473 65.84 482.913 66.4C482.353 66.9333 481.686 67.3733 480.913 67.72C480.166 68.04 479.366 68.28 478.513 68.44L481.393 72.84C482.086 73.9067 482.793 74.96 483.513 76C484.233 77.0133 484.939 78.0667 485.633 79.16C485.819 79.4267 486.019 79.7067 486.233 80C486.473 80.2933 486.713 80.56 486.953 80.8C487.219 81.04 487.486 81.24 487.753 81.4C488.046 81.5333 488.339 81.6 488.633 81.6V82H486.913C485.846 82 484.966 81.7467 484.273 81.24C483.606 80.7067 483.046 80.0933 482.593 79.4C481.393 77.64 480.193 75.8533 478.993 74.04C477.819 72.2267 476.646 70.44 475.473 68.68C475.179 68.6533 474.859 68.6267 474.513 68.6C474.193 68.5467 473.886 68.4933 473.593 68.44V79.4C473.593 79.6133 473.619 79.8533 473.673 80.12C473.726 80.36 473.806 80.5867 473.913 80.8C474.046 81.0133 474.179 81.2 474.313 81.36C474.473 81.52 474.659 81.6 474.873 81.6ZM473.593 56.96V67.12H473.793C474.006 67.1467 474.339 67.1733 474.793 67.2C475.273 67.2 475.859 67.2 476.553 67.2C477.113 67.2 477.699 67.12 478.313 66.96C478.953 66.7733 479.539 66.48 480.073 66.08C480.633 65.6533 481.086 65.1067 481.433 64.44C481.806 63.7733 481.993 62.9333 481.993 61.92C481.993 60.9067 481.793 60.08 481.393 59.44C481.019 58.8 480.486 58.2933 479.793 57.92C479.126 57.5467 478.313 57.2933 477.353 57.16C476.393 57.0267 475.339 56.96 474.193 56.96H473.593ZM502.794 68.12C502.474 67.5867 502.141 67.2533 501.794 67.12C501.448 66.9867 501.048 66.92 500.594 66.92C500.301 66.92 499.981 66.9867 499.634 67.12C499.314 67.2533 498.994 67.4267 498.674 67.64C498.354 67.8533 498.034 68.0933 497.714 68.36C497.421 68.6 497.168 68.8267 496.954 69.04V79.44C496.954 79.6533 496.981 79.88 497.034 80.12C497.088 80.36 497.168 80.6 497.274 80.84C497.408 81.0533 497.541 81.24 497.674 81.4C497.834 81.5333 498.021 81.6 498.234 81.6V82H493.034V81.6C493.221 81.6 493.394 81.5333 493.554 81.4C493.714 81.24 493.848 81.0533 493.954 80.84C494.088 80.6 494.181 80.36 494.234 80.12C494.288 79.88 494.314 79.6533 494.314 79.44V68.28C494.314 67.9067 494.194 67.5333 493.954 67.16C493.714 66.7867 493.368 66.5467 492.914 66.44V66.12L496.954 64.92V67.32C497.194 67.0267 497.448 66.7467 497.714 66.48C497.981 66.1867 498.274 65.9333 498.594 65.72C498.941 65.48 499.314 65.2933 499.714 65.16C500.114 65 500.581 64.92 501.114 64.92C501.488 64.92 501.968 65 502.554 65.16C503.141 65.32 503.621 65.4933 503.994 65.68L502.794 68.12ZM19 129.92C19 131.253 18.7333 132.4 18.2 133.36C17.6667 134.293 16.9733 135.053 16.12 135.64C15.2933 136.227 14.3467 136.653 13.28 136.92C12.24 137.187 11.2 137.32 10.16 137.32C9.09333 137.32 8.17333 137.213 7.4 137C6.62667 136.787 5.92 136.587 5.28 136.4C4.85333 136.267 4.46667 136.16 4.12 136.08C3.77333 135.973 3.42667 135.92 3.08 135.92V131.36H3.48C3.48 132.373 3.73333 133.187 4.24 133.8C4.77333 134.387 5.38667 134.84 6.08 135.16C6.77333 135.48 7.46667 135.693 8.16 135.8C8.85333 135.88 9.36 135.92 9.68 135.92C10.8267 135.92 11.8133 135.76 12.64 135.44C13.4667 135.093 14.1467 134.653 14.68 134.12C15.2133 133.56 15.6 132.947 15.84 132.28C16.1067 131.613 16.24 130.933 16.24 130.24C16.24 129.36 16.0533 128.627 15.68 128.04C15.3067 127.427 14.8133 126.893 14.2 126.44C13.6133 125.987 12.9333 125.6 12.16 125.28C11.3867 124.96 10.6 124.64 9.8 124.32C8.89333 123.973 8 123.613 7.12 123.24C6.24 122.867 5.45333 122.413 4.76 121.88C4.06667 121.32 3.50667 120.667 3.08 119.92C2.65333 119.147 2.44 118.2 2.44 117.08C2.44 115.907 2.66667 114.893 3.12 114.04C3.57333 113.16 4.17333 112.44 4.92 111.88C5.69333 111.32 6.56 110.907 7.52 110.64C8.50667 110.347 9.50667 110.2 10.52 110.2C11.2133 110.2 11.8667 110.253 12.48 110.36C13.0933 110.44 13.68 110.547 14.24 110.68C14.6933 110.787 15.1333 110.88 15.56 110.96C15.9867 111.013 16.4 111.04 16.8 111.04V115.16H16.4C16.3467 113.773 15.8 112.84 14.76 112.36C13.72 111.853 12.28 111.6 10.44 111.6C9.37333 111.6 8.49333 111.787 7.8 112.16C7.13333 112.507 6.6 112.947 6.2 113.48C5.8 113.987 5.52 114.547 5.36 115.16C5.22667 115.747 5.16 116.267 5.16 116.72C5.16 117.467 5.32 118.107 5.64 118.64C5.98667 119.173 6.44 119.64 7 120.04C7.56 120.44 8.2 120.8 8.92 121.12C9.66667 121.44 10.44 121.747 11.24 122.04C12.1467 122.387 13.0667 122.76 14 123.16C14.9333 123.56 15.76 124.053 16.48 124.64C17.2267 125.227 17.8267 125.947 18.28 126.8C18.76 127.653 19 128.693 19 129.92ZM37.4094 132.44C37.4094 133.133 37.236 133.773 36.8894 134.36C36.5427 134.947 36.0627 135.467 35.4494 135.92C34.8627 136.347 34.1694 136.693 33.3694 136.96C32.5694 137.2 31.7027 137.32 30.7694 137.32C29.6227 137.32 28.6894 137.173 27.9694 136.88C27.2494 136.56 26.636 136.24 26.1294 135.92C25.7827 135.707 25.4627 135.533 25.1694 135.4C24.876 135.24 24.556 135.16 24.2094 135.16V132.12H24.6094C24.6894 132.493 24.916 132.907 25.2894 133.36C25.6894 133.787 26.156 134.187 26.6894 134.56C27.2494 134.933 27.8494 135.253 28.4894 135.52C29.156 135.76 29.8227 135.88 30.4894 135.88C30.9694 135.88 31.4627 135.827 31.9694 135.72C32.476 135.613 32.9294 135.44 33.3294 135.2C33.756 134.96 34.1027 134.667 34.3694 134.32C34.6627 133.947 34.8094 133.507 34.8094 133C34.8094 132.493 34.6627 132.053 34.3694 131.68C34.076 131.307 33.7027 130.987 33.2494 130.72C32.796 130.427 32.276 130.173 31.6894 129.96C31.1027 129.747 30.516 129.547 29.9294 129.36C29.236 129.147 28.5294 128.907 27.8094 128.64C27.116 128.373 26.4894 128.067 25.9294 127.72C25.3694 127.347 24.916 126.907 24.5694 126.4C24.2227 125.867 24.0494 125.24 24.0494 124.52C24.0494 123.907 24.156 123.32 24.3694 122.76C24.6094 122.2 24.9827 121.72 25.4894 121.32C26.0227 120.893 26.7027 120.56 27.5294 120.32C28.356 120.053 29.356 119.92 30.5294 119.92C31.5694 119.92 32.3694 120.013 32.9294 120.2C33.516 120.36 33.996 120.533 34.3694 120.72C34.6094 120.853 34.8494 120.96 35.0894 121.04C35.3294 121.093 35.596 121.12 35.8894 121.12V123.92H35.5694C35.0894 123.04 34.356 122.373 33.3694 121.92C32.3827 121.467 31.3694 121.24 30.3294 121.24C29.6627 121.24 29.0894 121.333 28.6094 121.52C28.1294 121.68 27.7294 121.893 27.4094 122.16C27.116 122.4 26.8894 122.68 26.7294 123C26.596 123.32 26.5294 123.64 26.5294 123.96C26.5294 124.413 26.6494 124.8 26.8894 125.12C27.156 125.44 27.5027 125.72 27.9294 125.96C28.3827 126.2 28.876 126.427 29.4094 126.64C29.9694 126.853 30.556 127.053 31.1694 127.24C31.916 127.48 32.6627 127.747 33.4094 128.04C34.156 128.307 34.8227 128.64 35.4094 129.04C35.996 129.44 36.476 129.92 36.8494 130.48C37.2227 131.013 37.4094 131.667 37.4094 132.44ZM65.3653 136.6H65.5653V137H59.8853V136.6H60.0853C60.2986 136.6 60.4853 136.52 60.6453 136.36C60.8053 136.2 60.9386 136.013 61.0453 135.8C61.1786 135.587 61.272 135.36 61.3253 135.12C61.3786 134.853 61.4053 134.613 61.4053 134.4V112.08H56.7653C56.3386 112.08 55.9653 112.173 55.6453 112.36C55.3253 112.547 55.0586 112.787 54.8453 113.08C54.632 113.347 54.472 113.653 54.3653 114C54.2586 114.32 54.2053 114.64 54.2053 114.96H53.8053V110.6H71.7653V114.96H71.3653C71.3653 114.64 71.312 114.32 71.2053 114C71.0986 113.653 70.9386 113.347 70.7253 113.08C70.512 112.787 70.2453 112.547 69.9253 112.36C69.6053 112.173 69.232 112.08 68.8053 112.08H64.0853V134.4C64.0853 134.613 64.112 134.853 64.1653 135.12C64.2186 135.36 64.2986 135.587 64.4053 135.8C64.5386 136.013 64.672 136.2 64.8053 136.36C64.9653 136.52 65.152 136.6 65.3653 136.6ZM79.8763 121.56V131.2C79.8763 131.893 79.8896 132.52 79.9163 133.08C79.9429 133.64 80.0096 134.107 80.1163 134.48C80.2229 134.853 80.3829 135.147 80.5963 135.36C80.8096 135.547 81.1029 135.64 81.4763 135.64C82.0363 135.64 82.5563 135.373 83.0363 134.84C83.5429 134.307 83.8629 133.667 83.9963 132.92H84.3563V135.84C84.1163 135.84 83.9163 135.92 83.7563 136.08C83.5429 136.267 83.2363 136.467 82.8363 136.68C82.4629 136.893 81.8896 137 81.1163 137C80.1563 137 79.4096 136.813 78.8763 136.44C78.3429 136.067 77.9563 135.573 77.7163 134.96C77.4763 134.347 77.3296 133.667 77.2763 132.92C77.2496 132.173 77.2363 131.413 77.2363 130.64V121.56H74.9963V120.2H77.2363V116.64C77.2363 116.187 77.1696 115.773 77.0363 115.4C76.9296 115 76.5429 114.787 75.8763 114.76V114.36L79.8763 113.08V120.2H84.3563V121.56H79.8763ZM101.753 110.6H107.433V111H107.233C107.02 111 106.833 111.08 106.673 111.24C106.513 111.373 106.366 111.547 106.233 111.76C106.126 111.973 106.046 112.2 105.993 112.44C105.94 112.68 105.913 112.893 105.913 113.08V128.88C105.913 129.92 106.02 130.88 106.233 131.76C106.446 132.64 106.806 133.4 107.313 134.04C107.82 134.68 108.486 135.187 109.313 135.56C110.14 135.907 111.153 136.08 112.353 136.08C113.686 136.08 114.753 135.867 115.553 135.44C116.353 135.013 116.966 134.467 117.393 133.8C117.82 133.107 118.1 132.333 118.233 131.48C118.366 130.627 118.433 129.787 118.433 128.96V113.08C118.433 112.893 118.406 112.68 118.353 112.44C118.3 112.2 118.206 111.973 118.073 111.76C117.966 111.547 117.833 111.373 117.673 111.24C117.513 111.08 117.34 111 117.153 111H116.953V110.6H121.313V111H121.113C120.9 111 120.713 111.08 120.553 111.24C120.42 111.373 120.286 111.547 120.153 111.76C120.046 111.973 119.966 112.2 119.913 112.44C119.86 112.68 119.833 112.893 119.833 113.08V128.84C119.833 130.573 119.62 132 119.193 133.12C118.766 134.213 118.18 135.08 117.433 135.72C116.686 136.36 115.806 136.8 114.793 137.04C113.806 137.28 112.753 137.4 111.633 137.4C110.433 137.4 109.313 137.267 108.273 137C107.26 136.76 106.38 136.32 105.633 135.68C104.886 135.04 104.3 134.173 103.873 133.08C103.446 131.96 103.233 130.56 103.233 128.88V113.08C103.233 112.893 103.206 112.68 103.153 112.44C103.1 112.2 103.006 111.973 102.873 111.76C102.766 111.547 102.633 111.373 102.473 111.24C102.313 111.08 102.14 111 101.953 111H101.753V110.6ZM142.953 134.4C142.953 134.587 142.979 134.813 143.033 135.08C143.086 135.32 143.153 135.56 143.233 135.8C143.339 136.013 143.473 136.2 143.633 136.36C143.793 136.52 143.979 136.6 144.193 136.6V137H140.313V134.8C139.913 135.387 139.326 135.96 138.553 136.52C137.779 137.08 136.779 137.36 135.553 137.36C134.006 137.36 132.779 137.093 131.873 136.56C130.966 136.027 130.273 135.347 129.793 134.52C129.313 133.693 129.006 132.8 128.873 131.84C128.739 130.853 128.673 129.933 128.673 129.08V123.36C128.673 123.12 128.659 122.893 128.633 122.68C128.633 122.44 128.579 122.227 128.473 122.04C128.393 121.853 128.259 121.707 128.073 121.6C127.886 121.467 127.619 121.4 127.273 121.4V121.04L131.313 119.76V129.96C131.313 131.987 131.753 133.48 132.633 134.44C133.513 135.4 134.593 135.88 135.872 135.88C136.566 135.88 137.179 135.733 137.713 135.44C138.273 135.12 138.739 134.747 139.113 134.32C139.513 133.893 139.806 133.453 139.993 133C140.206 132.547 140.313 132.173 140.313 131.88V123.36C140.313 123.12 140.299 122.893 140.273 122.68C140.273 122.44 140.219 122.227 140.113 122.04C140.033 121.853 139.899 121.707 139.713 121.6C139.526 121.467 139.259 121.4 138.913 121.4V121.04L142.953 119.76V134.4ZM165.76 112C165.76 112.16 165.8 112.36 165.88 112.6L172.92 131.56L179.96 112.4C179.986 112.347 180.013 112.267 180.04 112.16C180.066 112.053 180.08 111.973 180.08 111.92C180.08 111.6 179.946 111.373 179.68 111.24C179.44 111.08 179.213 111 179 111V110.6H183.36V111C182.96 111 182.586 111.107 182.24 111.32C181.92 111.533 181.666 111.893 181.48 112.4L172.32 137.48L162.96 112.52C162.8 112.12 162.56 111.773 162.24 111.48C161.946 111.187 161.573 111.027 161.12 111V110.6H166.8V111C166.56 111 166.32 111.093 166.08 111.28C165.866 111.44 165.76 111.68 165.76 112ZM201.343 120.2V120.6C201.156 120.6 200.969 120.667 200.783 120.8C200.596 120.933 200.409 121.107 200.223 121.32C200.063 121.533 199.903 121.773 199.743 122.04C199.609 122.28 199.489 122.507 199.383 122.72L192.503 137.68L185.663 122.56C185.476 122.133 185.236 121.707 184.943 121.28C184.649 120.827 184.276 120.6 183.823 120.6V120.2H189.303V120.6C189.143 120.6 188.929 120.68 188.663 120.84C188.423 121 188.303 121.227 188.303 121.52C188.303 121.653 188.409 121.96 188.623 122.44L193.223 132.8L198.183 122C198.289 121.733 198.343 121.533 198.343 121.4C198.343 121.16 198.223 120.973 197.983 120.84C197.769 120.68 197.583 120.6 197.423 120.6V120.2H201.343ZM248.046 111C247.513 111 247.06 111.227 246.686 111.68C246.313 112.133 246.06 112.627 245.926 113.16L238.646 137.16L232.406 117.48L226.166 137.2L218.846 113.2C218.713 112.693 218.473 112.2 218.126 111.72C217.806 111.24 217.433 111 217.006 111V110.6H222.686V111C222.34 111 222.046 111.147 221.806 111.44C221.593 111.707 221.486 112.053 221.486 112.48C221.486 112.613 221.513 112.787 221.566 113L226.766 129.96L233.126 110.36L239.246 129.92L244.526 113C244.526 112.947 244.54 112.84 244.566 112.68C244.62 112.493 244.646 112.347 244.646 112.24C244.646 111.867 244.54 111.573 244.326 111.36C244.113 111.12 243.9 111 243.686 111V110.6H248.046V111ZM274.687 120.6C274.207 120.6 273.834 120.733 273.567 121C273.327 121.267 273.101 121.667 272.887 122.2L266.847 137.32L261.687 124.68L256.567 137.28L250.647 122.64C250.461 122.187 250.221 121.733 249.927 121.28C249.661 120.827 249.301 120.6 248.847 120.6V120.2H254.327V120.6C254.141 120.6 253.901 120.693 253.607 120.88C253.341 121.04 253.207 121.32 253.207 121.72C253.207 121.773 253.221 121.893 253.247 122.08C253.301 122.24 253.354 122.387 253.407 122.52L257.327 132.2L262.367 119.76L267.447 132.2L271.407 122.36C271.541 121.96 271.607 121.68 271.607 121.52C271.607 121.307 271.541 121.107 271.407 120.92C271.274 120.733 271.047 120.627 270.727 120.6V120.2H274.687V120.6ZM298.391 123.76L292.831 113.36C292.698 113.147 292.538 112.907 292.351 112.64C292.191 112.347 292.018 112.08 291.831 111.84C291.644 111.6 291.431 111.4 291.191 111.24C290.978 111.08 290.751 111 290.511 111V110.6H296.191V111C296.031 111 295.844 111.107 295.631 111.32C295.444 111.533 295.351 111.8 295.351 112.12C295.351 112.307 295.404 112.493 295.511 112.68L300.031 121.08L304.151 113.08C304.151 113 304.191 112.92 304.271 112.84C304.324 112.707 304.378 112.573 304.431 112.44C304.511 112.28 304.551 112.133 304.551 112C304.551 111.573 304.404 111.307 304.111 111.2C303.818 111.067 303.631 111 303.551 111V110.6H307.991V111C307.538 111 307.098 111.253 306.671 111.76C306.271 112.24 305.951 112.72 305.711 113.2L300.831 122.52L307.071 134.28C307.204 134.52 307.364 134.773 307.551 135.04C307.738 135.307 307.938 135.56 308.151 135.8C308.364 136.04 308.578 136.24 308.791 136.4C309.031 136.533 309.271 136.6 309.511 136.6V137H303.831V136.6C303.991 136.6 304.151 136.493 304.311 136.28C304.471 136.067 304.551 135.813 304.551 135.52C304.551 135.333 304.471 135.093 304.311 134.8L299.231 125.28L294.231 134.8C294.151 134.96 294.071 135.147 293.991 135.36C293.938 135.573 293.911 135.773 293.911 135.96C293.911 136.387 294.111 136.6 294.511 136.6V137H290.151V136.6C290.338 136.6 290.551 136.547 290.791 136.44C291.031 136.307 291.271 136.147 291.511 135.96C291.751 135.773 291.978 135.56 292.191 135.32C292.404 135.08 292.578 134.853 292.711 134.64L298.391 123.76ZM324.338 136.6C324.844 136.6 325.098 136.413 325.098 136.04C325.098 135.907 324.938 135.613 324.618 135.16L320.618 129.64L316.458 135.28C316.378 135.387 316.284 135.533 316.178 135.72C316.071 135.907 316.018 136.067 316.018 136.2C316.018 136.467 316.164 136.6 316.458 136.6V137H312.698V136.6C313.071 136.6 313.471 136.453 313.898 136.16C314.324 135.84 314.684 135.467 314.978 135.04L319.818 128.48L315.338 122.4C315.204 122.24 315.044 122.053 314.858 121.84C314.698 121.627 314.498 121.427 314.258 121.24C314.044 121.053 313.818 120.907 313.578 120.8C313.364 120.667 313.164 120.6 312.978 120.6V120.2H318.818V120.6C318.658 120.6 318.484 120.653 318.298 120.76C318.138 120.867 318.058 121.067 318.058 121.36C318.058 121.547 318.138 121.733 318.298 121.92L321.538 126.4L324.618 122.32C324.831 122.053 324.964 121.84 325.018 121.68C325.071 121.52 325.098 121.373 325.098 121.24C325.098 121.08 325.044 120.933 324.938 120.8C324.858 120.667 324.724 120.6 324.538 120.6V120.2H328.378V120.6C327.951 120.6 327.551 120.813 327.178 121.24C326.804 121.64 326.471 122.027 326.178 122.4L322.298 127.56L327.658 134.8C328.004 135.28 328.418 135.707 328.898 136.08C329.378 136.427 329.818 136.6 330.218 136.6V137H324.338V136.6ZM345.401 110.6H350.921V111C350.735 111.027 350.561 111.107 350.401 111.24C350.241 111.373 350.161 111.573 350.161 111.84C350.161 111.973 350.201 112.12 350.281 112.28L356.281 122.8L362.041 112.84C362.148 112.627 362.215 112.467 362.241 112.36C362.295 112.253 362.321 112.12 362.321 111.96C362.268 111.533 362.108 111.267 361.841 111.16C361.601 111.053 361.455 111 361.401 111V110.6H365.681V111C365.281 111 364.868 111.253 364.441 111.76C364.041 112.24 363.695 112.733 363.401 113.24L357.161 124.04V134.4C357.161 134.613 357.188 134.84 357.241 135.08C357.321 135.32 357.415 135.56 357.521 135.8C357.628 136.013 357.761 136.2 357.921 136.36C358.081 136.52 358.268 136.6 358.481 136.6H358.681V137H352.961V136.6H353.161C353.375 136.6 353.561 136.533 353.721 136.4C353.881 136.24 354.015 136.053 354.121 135.84C354.255 135.6 354.348 135.36 354.401 135.12C354.455 134.853 354.481 134.613 354.481 134.4V124.4L348.041 113.36C347.908 113.147 347.748 112.907 347.561 112.64C347.375 112.373 347.175 112.12 346.961 111.88C346.748 111.64 346.521 111.44 346.281 111.28C346.041 111.093 345.815 111 345.601 111H345.401V110.6ZM374.114 142.72C373.741 143.84 373.261 144.6 372.674 145C372.114 145.4 371.527 145.6 370.914 145.6C370.514 145.6 370.154 145.547 369.834 145.44C369.541 145.333 369.274 145.2 369.034 145.04C368.821 144.907 368.647 144.773 368.514 144.64C368.381 144.507 368.301 144.4 368.274 144.32L369.594 141.08C369.727 141.56 369.861 141.92 369.994 142.16C370.127 142.427 370.314 142.667 370.554 142.88C370.794 143.093 371.087 143.2 371.434 143.2C372.074 143.2 372.581 142.733 372.954 141.8L374.914 136.88L368.474 122.32C368.341 122 368.114 121.64 367.794 121.24C367.501 120.813 367.087 120.6 366.554 120.6V120.2H371.834V120.6C371.727 120.6 371.594 120.693 371.434 120.88C371.274 121.067 371.194 121.307 371.194 121.6C371.194 121.84 371.247 122.053 371.354 122.24L376.274 133.56L380.994 122C381.074 121.813 381.114 121.64 381.114 121.48C381.114 121.213 381.021 121 380.834 120.84C380.674 120.68 380.501 120.6 380.314 120.6V120.2H384.194V120.6C383.767 120.6 383.394 120.787 383.074 121.16C382.781 121.507 382.541 121.907 382.354 122.36L374.114 142.72ZM399.93 137L413.21 112H403.93C403.503 112 403.13 112.107 402.81 112.32C402.49 112.507 402.223 112.76 402.01 113.08C401.797 113.373 401.637 113.707 401.53 114.08C401.423 114.427 401.37 114.76 401.37 115.08H400.97V110.6H417.09L403.81 135.6H414.09C414.517 135.6 414.89 135.507 415.21 135.32C415.53 135.107 415.797 134.84 416.01 134.52C416.223 134.2 416.383 133.867 416.49 133.52C416.597 133.147 416.65 132.8 416.65 132.48H417.05V137H399.93ZM420.559 137L431.519 121.6H424.959C424.506 121.6 424.092 121.693 423.719 121.88C423.346 122.067 423.026 122.307 422.759 122.6C422.519 122.893 422.332 123.213 422.199 123.56C422.066 123.88 421.999 124.187 421.999 124.48H421.599V120.2H435.719L424.759 135.56H432.199C432.786 135.56 433.279 135.467 433.679 135.28C434.079 135.093 434.399 134.867 434.639 134.6C434.906 134.307 435.092 133.987 435.199 133.64C435.306 133.293 435.359 132.973 435.359 132.68H435.719V137H420.559Z" fill="black"/>
</svg>
