<svg width="627" height="85" viewBox="0 0 627 85" fill="none" xmlns="http://www.w3.org/2000/svg">
<circle cx="43.5" cy="15" r="14.5" fill="#312E21" stroke="#5F6862"/>
<path d="M6.12864 54.732H4.81264L0.878639 64H2.04064L3.17464 61.312H7.76664L8.90064 64H10.0626L6.12864 54.732ZM3.58064 60.346L5.47064 55.824L7.36064 60.346H3.58064ZM20.7182 54.732L17.4562 59.128L14.1382 54.732H12.9202V64H13.9702V56.328L17.4562 60.738L20.8862 56.328V64H21.9362V54.732H20.7182ZM29.6735 60.332L33.5515 54.732H32.2775L29.1415 59.24L26.0055 54.732H24.7315L28.6235 60.332V64H29.6735V60.332ZM42.9442 54.732H35.4262V55.74H38.6602V64H39.7102V55.74H42.9442V54.732ZM52.4002 54.732V58.848H47.0102V54.732H45.9602V64H47.0102V59.87H52.4002V64H53.4502V54.732H52.4002ZM64.2199 55.74V54.732H57.4019V64H64.2199V62.992H58.4519V59.87H63.6039V58.848H58.4519V55.74H64.2199ZM68.1061 57.168C68.1061 56.552 68.4701 55.6 70.5701 55.6C72.2641 55.6 73.0481 56.342 73.1601 57.266H74.2381C74.1541 55.88 73.0341 54.62 70.5701 54.62C68.2461 54.62 67.0841 55.67 67.0841 57.182C67.0841 60.36 73.4261 59.212 73.4261 61.48C73.4261 62.572 72.4461 63.118 70.8781 63.118C69.2681 63.118 67.9661 62.572 67.8961 61.228H66.8041C66.9441 62.894 68.0641 64.112 70.8081 64.112C73.0901 64.112 74.4761 63.16 74.4761 61.438C74.4761 58.204 68.1061 59.324 68.1061 57.168ZM84.2813 54.732H76.7633V55.74H79.9973V64H81.0473V55.74H84.2813V54.732ZM12.3508 73.812V74.722H13.7788L13.4988 76.738H11.9308V77.648H13.3728L13.0928 79.65H14.0028L14.2828 77.648H15.9068L15.6268 79.65H16.5368L16.8168 77.648H18.3848V76.738H16.9428L17.2228 74.722H18.8048V73.812H17.3488L17.6428 71.81H16.7328L16.4388 73.812H14.8148L15.1088 71.81H14.1988L13.9048 73.812H12.3508ZM14.6888 74.722H16.3128L16.0328 76.738H14.4088L14.6888 74.722ZM28.1016 73.35C28.1016 71.81 26.9396 70.62 24.9376 70.62C23.2296 70.62 21.8716 71.656 21.7176 73.252H22.7676C22.9076 72.216 23.7336 71.642 24.9656 71.642C26.3096 71.642 27.0516 72.3 27.0516 73.378C27.0516 75.506 21.8436 76.682 21.8436 79.426V80H28.0736V78.992H23.0896C23.2576 77.354 28.1016 75.94 28.1016 73.35ZM34.6089 70.62C32.2709 70.62 31.0949 72.44 31.0949 75.366C31.0949 78.404 32.2709 80.112 34.5249 80.112C36.2749 80.112 37.7169 78.838 37.7169 77.102C37.7169 75.338 36.3169 74.092 34.5669 74.092C33.5309 74.092 32.5929 74.638 32.1449 75.408C32.1449 73.308 32.8869 71.642 34.6089 71.642C35.6589 71.642 36.0789 72.286 36.2749 72.888H37.4509C37.2129 71.782 36.3869 70.62 34.6089 70.62ZM34.5249 75.086C35.7009 75.086 36.6669 75.954 36.6669 77.102C36.6669 78.264 35.7009 79.09 34.5249 79.09C33.3209 79.09 32.3829 78.264 32.3829 77.032C32.3829 75.884 33.3489 75.086 34.5249 75.086ZM46.8561 73.35C46.8561 71.81 45.6941 70.62 43.6921 70.62C41.9841 70.62 40.6261 71.656 40.4721 73.252H41.5221C41.6621 72.216 42.4881 71.642 43.7201 71.642C45.0641 71.642 45.8061 72.3 45.8061 73.378C45.8061 75.506 40.5981 76.682 40.5981 79.426V80H46.8281V78.992H41.8441C42.0121 77.354 46.8561 75.94 46.8561 73.35ZM51.1374 70.732V71.74H53.0974V80H54.1474V70.732H51.1374ZM63.9446 75.058C64.5746 74.862 65.3446 74.008 65.3446 73.084C65.3446 71.642 64.2386 70.62 62.4186 70.62C60.6126 70.62 59.5766 71.824 59.4506 72.958H60.4726C60.5986 72.244 61.3126 71.642 62.4466 71.642C63.6646 71.642 64.2946 72.244 64.2946 73.126C64.2946 74.022 63.4406 74.638 62.4746 74.638H61.5366V75.604H62.6006C63.7766 75.604 64.6026 76.43 64.6026 77.368C64.6026 78.32 63.8186 79.09 62.5026 79.09C61.3826 79.09 60.4026 78.418 60.2626 77.55H59.1986C59.3386 78.992 60.7666 80.112 62.5026 80.112C64.2526 80.112 65.6526 78.992 65.6526 77.34C65.6526 76.346 65.0226 75.464 63.9446 75.058ZM69.8919 70.732V71.74H71.8519V80H72.9019V70.732H69.8919Z" fill="#5F6862"/>
<circle cx="180" cy="15" r="14.5" fill="#4366A6" stroke="#5F6862"/>
<path d="M163.549 54.732H162.233L158.299 64H159.461L160.595 61.312H165.187L166.321 64H167.483L163.549 54.732ZM161.001 60.346L162.891 55.824L164.781 60.346H161.001ZM179.081 64.672C178.591 65.064 178.059 65.302 177.387 65.302C176.099 65.302 175.427 64.546 175.147 64.028C177.443 63.65 178.983 61.718 178.983 59.366C178.983 56.734 177.093 54.62 174.279 54.62C171.465 54.62 169.575 56.734 169.575 59.366C169.575 61.942 171.381 64 174.083 64.098C174.685 65.344 175.987 66.198 177.373 66.198C178.269 66.198 178.983 65.946 179.641 65.428L179.081 64.672ZM174.279 63.09C172.025 63.09 170.625 61.452 170.625 59.366C170.625 57.28 172.025 55.642 174.279 55.642C176.533 55.642 177.933 57.28 177.933 59.366C177.933 61.452 176.533 63.09 174.279 63.09ZM189.063 54.732V60.038C189.063 62.194 187.635 63.09 186.165 63.09C184.695 63.09 183.281 62.194 183.281 60.038V54.732H182.231V60.01C182.231 62.474 183.855 64.112 186.165 64.112C188.489 64.112 190.113 62.46 190.113 60.01V54.732H189.063ZM197.765 54.732H196.449L192.515 64H193.677L194.811 61.312H199.403L200.537 64H201.699L197.765 54.732ZM195.217 60.346L197.107 55.824L198.997 60.346H195.217ZM148.065 73.812V74.722H149.493L149.213 76.738H147.645V77.648H149.087L148.807 79.65H149.717L149.997 77.648H151.621L151.341 79.65H152.251L152.531 77.648H154.099V76.738H152.657L152.937 74.722H154.519V73.812H153.063L153.357 71.81H152.447L152.153 73.812H150.529L150.823 71.81H149.913L149.619 73.812H148.065ZM150.403 74.722H152.027L151.747 76.738H150.123L150.403 74.722ZM162.737 76.696V70.732H161.155L157.263 76.612V77.634H161.687V80H162.737V77.634H163.983V76.696H162.737ZM158.243 76.696L161.687 71.628V76.696H158.243ZM171.527 75.058C172.157 74.862 172.927 74.008 172.927 73.084C172.927 71.642 171.821 70.62 170.001 70.62C168.195 70.62 167.159 71.824 167.033 72.958H168.055C168.181 72.244 168.895 71.642 170.029 71.642C171.247 71.642 171.877 72.244 171.877 73.126C171.877 74.022 171.023 74.638 170.057 74.638H169.119V75.604H170.183C171.359 75.604 172.185 76.43 172.185 77.368C172.185 78.32 171.401 79.09 170.085 79.09C168.965 79.09 167.985 78.418 167.845 77.55H166.781C166.921 78.992 168.349 80.112 170.085 80.112C171.835 80.112 173.235 78.992 173.235 77.34C173.235 76.346 172.605 75.464 171.527 75.058ZM179.7 70.62C177.362 70.62 176.186 72.44 176.186 75.366C176.186 78.404 177.362 80.112 179.616 80.112C181.366 80.112 182.808 78.838 182.808 77.102C182.808 75.338 181.408 74.092 179.658 74.092C178.622 74.092 177.684 74.638 177.236 75.408C177.236 73.308 177.978 71.642 179.7 71.642C180.75 71.642 181.17 72.286 181.366 72.888H182.542C182.304 71.782 181.478 70.62 179.7 70.62ZM179.616 75.086C180.792 75.086 181.758 75.954 181.758 77.102C181.758 78.264 180.792 79.09 179.616 79.09C178.412 79.09 177.474 78.264 177.474 77.032C177.474 75.884 178.44 75.086 179.616 75.086ZM189.077 70.62C186.739 70.62 185.563 72.44 185.563 75.366C185.563 78.404 186.739 80.112 188.993 80.112C190.743 80.112 192.185 78.838 192.185 77.102C192.185 75.338 190.785 74.092 189.035 74.092C187.999 74.092 187.061 74.638 186.613 75.408C186.613 73.308 187.355 71.642 189.077 71.642C190.127 71.642 190.547 72.286 190.743 72.888H191.919C191.681 71.782 190.855 70.62 189.077 70.62ZM188.993 75.086C190.169 75.086 191.135 75.954 191.135 77.102C191.135 78.264 190.169 79.09 188.993 79.09C187.789 79.09 186.851 78.264 186.851 77.032C186.851 75.884 187.817 75.086 188.993 75.086ZM199.631 70.732H198.315L194.381 80H195.543L196.677 77.312H201.269L202.403 80H203.565L199.631 70.732ZM197.083 76.346L198.973 71.824L200.863 76.346H197.083ZM209.404 70.62C207.066 70.62 205.89 72.44 205.89 75.366C205.89 78.404 207.066 80.112 209.32 80.112C211.07 80.112 212.512 78.838 212.512 77.102C212.512 75.338 211.112 74.092 209.362 74.092C208.326 74.092 207.388 74.638 206.94 75.408C206.94 73.308 207.682 71.642 209.404 71.642C210.454 71.642 210.874 72.286 211.07 72.888H212.246C212.008 71.782 211.182 70.62 209.404 70.62ZM209.32 75.086C210.496 75.086 211.462 75.954 211.462 77.102C211.462 78.264 210.496 79.09 209.32 79.09C208.116 79.09 207.178 78.264 207.178 77.032C207.178 75.884 208.144 75.086 209.32 75.086Z" fill="#5F6862"/>
<circle cx="316" cy="15" r="14.5" fill="#F6F6F6" stroke="#5F6862"/>
<path d="M293.285 54.62C290.499 54.62 288.721 56.734 288.721 59.366C288.721 61.998 290.429 64.112 293.257 64.112C294.937 64.112 296.029 63.258 296.617 62.362V64H297.583V59.072H293.229V60.024H296.617C296.617 61.956 295.021 63.09 293.341 63.09C291.087 63.09 289.771 61.452 289.771 59.366C289.771 57.28 291.115 55.642 293.369 55.642C294.783 55.642 295.791 56.258 296.351 57.252H297.499C296.813 55.698 295.273 54.62 293.285 54.62ZM302.156 60.444H305.376L307.616 64H308.862L306.426 60.262C307.462 60.024 308.666 59.422 308.666 57.63C308.666 55.866 307.448 54.732 305.544 54.732H301.106V64H302.156V60.444ZM302.156 55.726H305.418C306.734 55.726 307.616 56.454 307.616 57.63C307.616 59.072 306.356 59.45 305.362 59.45H302.156V55.726ZM316.309 54.732H314.993L311.059 64H312.221L313.355 61.312H317.947L319.081 64H320.243L316.309 54.732ZM313.761 60.346L315.651 55.824L317.541 60.346H313.761ZM325.911 60.332L329.789 54.732H328.515L325.379 59.24L322.243 54.732H320.969L324.861 60.332V64H325.911V60.332ZM338.018 54.732V55.74H339.978V64H341.028V54.732H338.018ZM284.154 73.812V74.722H285.582L285.302 76.738H283.734V77.648H285.176L284.896 79.65H285.806L286.086 77.648H287.71L287.43 79.65H288.34L288.62 77.648H290.188V76.738H288.746L289.026 74.722H290.608V73.812H289.152L289.446 71.81H288.536L288.242 73.812H286.618L286.912 71.81H286.002L285.708 73.812H284.154ZM286.492 74.722H288.116L287.836 76.738H286.212L286.492 74.722ZM300.744 71.74V70.732H294.052V80H295.102V75.982H300.128V74.96H295.102V71.74H300.744ZM306.876 70.62C304.538 70.62 303.362 72.44 303.362 75.366C303.362 78.404 304.538 80.112 306.792 80.112C308.542 80.112 309.984 78.838 309.984 77.102C309.984 75.338 308.584 74.092 306.834 74.092C305.798 74.092 304.86 74.638 304.412 75.408C304.412 73.308 305.154 71.642 306.876 71.642C307.926 71.642 308.346 72.286 308.542 72.888H309.718C309.48 71.782 308.654 70.62 306.876 70.62ZM306.792 75.086C307.968 75.086 308.934 75.954 308.934 77.102C308.934 78.264 307.968 79.09 306.792 79.09C305.588 79.09 304.65 78.264 304.65 77.032C304.65 75.884 305.616 75.086 306.792 75.086ZM319.964 71.74V70.732H313.272V80H314.322V75.982H319.348V74.96H314.322V71.74H319.964ZM326.096 70.62C323.758 70.62 322.582 72.44 322.582 75.366C322.582 78.404 323.758 80.112 326.012 80.112C327.762 80.112 329.204 78.838 329.204 77.102C329.204 75.338 327.804 74.092 326.054 74.092C325.018 74.092 324.08 74.638 323.632 75.408C323.632 73.308 324.374 71.642 326.096 71.642C327.146 71.642 327.566 72.286 327.762 72.888H328.938C328.7 71.782 327.874 70.62 326.096 70.62ZM326.012 75.086C327.188 75.086 328.154 75.954 328.154 77.102C328.154 78.264 327.188 79.09 326.012 79.09C324.808 79.09 323.87 78.264 323.87 77.032C323.87 75.884 324.836 75.086 326.012 75.086ZM339.183 71.74V70.732H332.491V80H333.541V75.982H338.567V74.96H333.541V71.74H339.183ZM345.315 70.62C342.977 70.62 341.801 72.44 341.801 75.366C341.801 78.404 342.977 80.112 345.231 80.112C346.981 80.112 348.423 78.838 348.423 77.102C348.423 75.338 347.023 74.092 345.273 74.092C344.237 74.092 343.299 74.638 342.851 75.408C342.851 73.308 343.593 71.642 345.315 71.642C346.365 71.642 346.785 72.286 346.981 72.888H348.157C347.919 71.782 347.093 70.62 345.315 70.62ZM345.231 75.086C346.407 75.086 347.373 75.954 347.373 77.102C347.373 78.264 346.407 79.09 345.231 79.09C344.027 79.09 343.089 78.264 343.089 77.032C343.089 75.884 344.055 75.086 345.231 75.086Z" fill="#5F6862"/>
<circle cx="454" cy="15" r="14.5" fill="#9292B0" stroke="#5F6862"/>
<path d="M431.285 54.62C428.499 54.62 426.721 56.734 426.721 59.366C426.721 61.998 428.429 64.112 431.257 64.112C432.937 64.112 434.029 63.258 434.617 62.362V64H435.583V59.072H431.229V60.024H434.617C434.617 61.956 433.021 63.09 431.341 63.09C429.087 63.09 427.771 61.452 427.771 59.366C427.771 57.28 429.115 55.642 431.369 55.642C432.783 55.642 433.791 56.258 434.351 57.252H435.499C434.813 55.698 433.273 54.62 431.285 54.62ZM440.156 60.444H443.376L445.616 64H446.862L444.426 60.262C445.462 60.024 446.666 59.422 446.666 57.63C446.666 55.866 445.448 54.732 443.544 54.732H439.106V64H440.156V60.444ZM440.156 55.726H443.418C444.734 55.726 445.616 56.454 445.616 57.63C445.616 59.072 444.356 59.45 443.362 59.45H440.156V55.726ZM454.309 54.732H452.993L449.059 64H450.221L451.355 61.312H455.947L457.081 64H458.243L454.309 54.732ZM451.761 60.346L453.651 55.824L455.541 60.346H451.761ZM463.911 60.332L467.789 54.732H466.515L463.379 59.24L460.243 54.732H458.969L462.861 60.332V64H463.911V60.332ZM481.114 57.35C481.114 55.81 479.952 54.62 477.95 54.62C476.242 54.62 474.884 55.656 474.73 57.252H475.78C475.92 56.216 476.746 55.642 477.978 55.642C479.322 55.642 480.064 56.3 480.064 57.378C480.064 59.506 474.856 60.682 474.856 63.426V64H481.086V62.992H476.102C476.27 61.354 481.114 59.94 481.114 57.35ZM422.065 73.812V74.722H423.493L423.213 76.738H421.645V77.648H423.087L422.807 79.65H423.717L423.997 77.648H425.621L425.341 79.65H426.251L426.531 77.648H428.099V76.738H426.657L426.937 74.722H428.519V73.812H427.063L427.357 71.81H426.447L426.153 73.812H424.529L424.823 71.81H423.913L423.619 73.812H422.065ZM424.403 74.722H426.027L425.747 76.738H424.123L424.403 74.722ZM434.413 80.112C436.751 80.112 437.927 78.292 437.927 75.366C437.927 72.328 436.751 70.62 434.497 70.62C432.747 70.62 431.305 71.894 431.305 73.63C431.305 75.394 432.705 76.64 434.455 76.64C435.491 76.64 436.429 76.094 436.877 75.324C436.877 77.424 436.135 79.09 434.413 79.09C433.363 79.09 432.943 78.446 432.747 77.844H431.571C431.809 78.95 432.635 80.112 434.413 80.112ZM434.497 75.646C433.321 75.646 432.355 74.778 432.355 73.63C432.355 72.468 433.321 71.642 434.497 71.642C435.701 71.642 436.639 72.468 436.639 73.7C436.639 74.848 435.673 75.646 434.497 75.646ZM447.193 73.35C447.193 71.81 446.031 70.62 444.029 70.62C442.321 70.62 440.963 71.656 440.809 73.252H441.859C441.999 72.216 442.825 71.642 444.057 71.642C445.401 71.642 446.143 72.3 446.143 73.378C446.143 75.506 440.935 76.682 440.935 79.426V80H447.165V78.992H442.181C442.349 77.354 447.193 75.94 447.193 73.35ZM453.168 80.112C455.506 80.112 456.682 78.292 456.682 75.366C456.682 72.328 455.506 70.62 453.252 70.62C451.502 70.62 450.06 71.894 450.06 73.63C450.06 75.394 451.46 76.64 453.21 76.64C454.246 76.64 455.184 76.094 455.632 75.324C455.632 77.424 454.89 79.09 453.168 79.09C452.118 79.09 451.698 78.446 451.502 77.844H450.326C450.564 78.95 451.39 80.112 453.168 80.112ZM453.252 75.646C452.076 75.646 451.11 74.778 451.11 73.63C451.11 72.468 452.076 71.642 453.252 71.642C454.456 71.642 455.394 72.468 455.394 73.7C455.394 74.848 454.428 75.646 453.252 75.646ZM465.947 73.35C465.947 71.81 464.785 70.62 462.783 70.62C461.075 70.62 459.717 71.656 459.563 73.252H460.613C460.753 72.216 461.579 71.642 462.811 71.642C464.155 71.642 464.897 72.3 464.897 73.378C464.897 75.506 459.689 76.682 459.689 79.426V80H465.919V78.992H460.935C461.103 77.354 465.947 75.94 465.947 73.35ZM475.311 75.268C475.969 74.974 476.557 74.372 476.557 73.182C476.557 72.062 475.815 70.732 473.631 70.732H469.473V80H473.869C475.983 80 477.033 78.95 477.033 77.564C477.033 76.178 476.095 75.52 475.311 75.268ZM470.523 71.726H473.743C475.017 71.726 475.507 72.496 475.507 73.266C475.507 74.4 474.597 74.876 473.631 74.876H470.523V71.726ZM473.981 79.006H470.523V75.828H473.869C475.339 75.828 475.983 76.612 475.983 77.48C475.983 78.446 475.255 79.006 473.981 79.006ZM483.138 70.62C480.954 70.62 479.89 72.272 479.89 75.366C479.89 78.46 480.954 80.112 483.138 80.112C485.322 80.112 486.386 78.46 486.386 75.366C486.386 72.944 485.686 70.662 483.138 70.62ZM483.138 79.09C481.598 79.09 480.94 77.844 480.94 75.366C480.94 72.888 481.598 71.642 483.138 71.642C484.678 71.642 485.336 72.888 485.336 75.366C485.336 77.088 485.042 79.048 483.138 79.09Z" fill="#5F6862"/>
<circle cx="593" cy="15" r="14.5" fill="white" stroke="#5F6862"/>
<path d="M574.881 56.216L577.387 64H578.577L581.461 54.732H580.355L577.975 62.516L575.483 54.732H574.279L571.787 62.516L569.407 54.732H568.301L571.185 64H572.375L574.881 56.216ZM590.841 54.732V58.848H585.451V54.732H584.401V64H585.451V59.87H590.841V64H591.891V54.732H590.841ZM596.893 54.732H595.843V64H596.893V54.732ZM607.425 54.732H599.907V55.74H603.141V64H604.191V55.74H607.425V54.732ZM617.259 55.74V54.732H610.441V64H617.259V62.992H611.491V59.87H616.643V58.848H611.491V55.74H617.259ZM560.456 73.812V74.722H561.884L561.604 76.738H560.036V77.648H561.478L561.198 79.65H562.108L562.388 77.648H564.012L563.732 79.65H564.642L564.922 77.648H566.49V76.738H565.048L565.328 74.722H566.91V73.812H565.454L565.748 71.81H564.838L564.544 73.812H562.92L563.214 71.81H562.304L562.01 73.812H560.456ZM562.794 74.722H564.418L564.138 76.738H562.514L562.794 74.722ZM577.047 71.74V70.732H570.355V80H571.405V75.982H576.431V74.96H571.405V71.74H577.047ZM586.889 71.74V70.732H580.197V80H581.247V75.982H586.273V74.96H581.247V71.74H586.889ZM596.731 71.74V70.732H590.039V80H591.089V75.982H596.115V74.96H591.089V71.74H596.731ZM606.573 71.74V70.732H599.881V80H600.931V75.982H605.957V74.96H600.931V71.74H606.573ZM616.415 71.74V70.732H609.723V80H610.773V75.982H615.799V74.96H610.773V71.74H616.415ZM626.258 71.74V70.732H619.566V80H620.616V75.982H625.642V74.96H620.616V71.74H626.258Z" fill="#5F6862"/>
</svg>
