<svg width="113" height="44" viewBox="0 0 113 44" fill="none" xmlns="http://www.w3.org/2000/svg">
<path d="M15.36 15.08C15.64 15.12 15.72 15.04 16 14.76C16.08 14.56 16.08 14.4 16.08 14.32C16 14.12 15.88 14 15.72 14C15.68 14 15.56 14 15.44 14.08L15.16 14.2L15.2 14.16C15 14.32 14.88 14.56 14.92 14.76C14.96 14.96 15.08 15.08 15.36 15.08ZM4.2 40.88C4.76 40.96 6.16 40.52 6.64 40.08C7.72 39.08 7.92 38.72 8.84 37.4C9 37.16 9.16 36.96 9.28 36.8C9.56 36.44 9.68 36.24 9.84 35.72C9.92 35.6 9.96 35.44 10 35.28C10.2 34.76 10.32 34.52 10.52 34.24C10.64 34.12 10.68 33.92 10.72 33.52C10.76 33.04 10.8 32.84 11 32.6C11.04 32.6 11 32.6 11 32.52C11.16 32.36 11.24 32.12 11.28 31.68C11.28 31.44 11.32 31.24 11.4 31C11.68 30.4 11.8 29.88 11.8 29.36C11.84 28.92 11.96 28.52 12.12 28.04C12.36 27.52 12.72 27.24 13.44 26.96C13.96 26.76 15.12 26.36 15.52 26C15.6 25.88 15.8 25.8 15.92 25.76C16.04 25.72 16.04 25.72 16.12 25.64C16.16 25.64 16.36 25.52 16.64 25.4C16.84 25.32 16.88 25.28 16.96 25.24C17.24 24.88 17.6 24.68 17.88 24.52C18.2 24.32 18.4 24.2 18.64 23.92C19.48 23.08 19.88 22.6 20.24 21.96C20.32 21.8 20.2 21.56 20.04 21.48C19.92 21.4 19.84 21.48 19.6 21.72C19.12 22.44 18.88 22.68 18.64 22.96L18.28 23.36C17.96 23.72 17.56 23.92 17.16 24.12C16.76 24.32 16.6 24.44 16.36 24.6C16.24 24.64 16.08 24.76 15.96 24.88C15.48 25.2 15.24 25.32 14.96 25.44C14.88 25.44 14.72 25.52 14.44 25.68C13.8 25.96 13.48 26.08 13.2 26.12C12.96 26.12 12.76 25.96 12.76 25.76C12.76 25.6 12.84 25.2 12.96 24.68C12.96 24.64 13.04 24.44 13.12 24.32C13.28 24.08 13.32 23.92 13.32 23.8C13.36 23.2 13.56 22.64 13.72 22.12C13.88 21.72 13.92 21.48 14 21.2C14.08 20.88 14.12 20.52 14.12 20.12C14.16 19.8 14.16 19.6 14.2 19.4C14.2 19.24 14.12 19.12 14.04 19.12C13.76 19.08 13.72 19.08 13.68 19.2C13.56 19.32 13.44 19.56 13.32 19.92L13.16 20.44C13 21 12.84 21.52 12.8 22.04C12.8 22.36 12.68 22.68 12.56 22.96C12.32 23.56 12.28 23.88 12.4 24.2C12.28 24.6 12 25.64 11.92 26.16C11.88 26.48 11.76 26.6 11.4 26.76C11.2 26.84 11.16 26.84 11.08 26.96C10.72 27.28 10.4 27.44 10.12 27.6C9.8 27.76 9.72 27.84 9.52 27.96C9.48 28.04 9.28 28.08 9.04 28.08C8.68 28.08 8.4 28.2 8.04 28.44C7.56 28.76 7.04 29 6.48 29.24C5.68 29.52 5.12 30 4.56 30.48C4.16 30.8 4 30.96 3.76 31.12C3.32 31.48 2.64 32.16 2.36 32.76C2.28 32.92 2.12 33.08 2 33.24C1.84 33.44 1.72 33.6 1.64 33.92C1.56 34.24 1.44 34.48 1.32 34.72C1.2 34.92 1.12 35.12 1.04 35.44C0.879999 36.12 0.759999 36.8 0.959999 37.52C0.959999 37.56 0.92 37.64 0.879999 37.72C0.92 38.04 1 38.28 1.28 38.68C1.44 38.92 1.64 39.28 1.84 39.72L2.32 40.08C2.48 40.16 2.56 40.2 2.76 40.36C3.08 40.68 3.36 40.88 4.2 40.88ZM4 40.12C3.84 40.08 3.96 40.08 3.88 40.08C3.76 40.08 3.52 40 3.48 39.96C3.36 39.84 3.28 39.76 3.04 39.64C2.64 39.36 2.24 39.12 2.16 38.52C2.04 38.04 1.96 37.68 1.8 37.36C1.64 37.04 1.64 36.96 1.84 36.64C1.84 36.6 1.88 36.48 1.8 36.2C1.76 35.72 1.84 35.44 2.16 34.88C2.28 34.64 2.36 34.48 2.44 34.28C2.84 33.36 2.96 32.92 3.96 32.2C4.2 32 4.44 31.72 4.72 31.44C5.28 30.84 5.56 30.6 5.96 30.4C6.12 30.32 6.4 30.16 6.6 30C7.28 29.6 7.96 29.2 8.8 29.04C8.96 29 9.16 28.88 9.36 28.76C9.68 28.6 9.88 28.48 10.16 28.44C10.16 28.44 10.24 28.44 10.36 28.4C10.56 28.32 10.76 28.28 10.88 28.32C11.16 28.32 11.16 28.52 11.08 28.8L10.92 29.32C10.76 29.92 10.64 30.36 10.64 31.08C10.6 31.16 10.6 31.2 10.6 31.24C10.56 31.4 10.48 31.52 10.32 31.72C10.12 32.04 10.08 32.2 10.08 32.44C10.12 32.76 10.04 33 9.76 33.56L9.64 33.84C9.56 34 9.52 34.2 9.48 34.4C9.36 34.76 9.32 34.92 9.2 35.12L8.88 35.72C8.52 36.36 8.32 36.72 7.6 37.44C7.32 37.68 7.2 37.88 7.12 38.16C6.88 38.8 6.36 39.12 5.88 39.4C5.52 39.6 5.36 39.68 5.16 39.84C4.92 40.04 4.52 40.12 4 40.12ZM32.3959 21.56C32.2759 21.44 32.1959 21.48 32.0359 21.56L31.5159 22.4C31.1159 23.08 30.7559 23.68 30.0359 24.12C29.8759 24.32 29.6759 24.4 29.5559 24.48C29.4359 24.52 29.3959 24.52 29.3559 24.56C29.0359 24.84 28.7959 24.88 28.3559 25C27.3959 25.32 26.7159 25.16 26.1159 24.36C25.7159 23.76 25.5159 23.32 25.5559 22.8C25.5559 22.72 25.5559 22.64 25.5959 22.56C25.6359 21.84 25.6759 21.52 25.7559 21.2C25.8359 20.84 25.8759 20.44 25.8759 20.04C25.8759 19.64 25.5559 19.44 25.1959 19.6C24.7959 19.8 24.7959 19.8 24.7559 20C24.7159 20.24 24.6359 20.4 24.3559 20.76C24.0359 21.2 23.7159 21.76 23.3959 22.28C22.9959 23 22.8359 23.32 22.5559 23.68C22.1959 24.12 21.5959 24.4 20.9159 24.72C20.8759 24.72 20.5959 24.72 20.5159 24.64C20.1159 24.12 19.9559 23.76 20.0359 23.32C20.1159 22.92 20.2359 22.44 20.3559 22.04C20.4359 21.8 20.4759 21.68 20.5159 21.48C20.5559 21.32 20.6359 21.16 20.7959 20.84C20.9559 20.6 21.0359 20.4 21.0759 20.16C21.1159 19.6 21.2759 19.16 21.5159 18.76C21.5559 18.72 21.5959 18.68 21.6359 18.6C21.7159 18.48 21.7159 18.4 21.6759 18.36C21.6759 18.36 21.6759 18.32 21.6359 18.32C21.5159 18.2 21.3959 18.08 21.3559 18.08C21.0759 17.84 20.7159 18.04 20.6359 18.4C20.3959 19.4 20.0759 20.36 19.7159 21.36C19.3559 22.32 19.0359 23.08 19.1559 24.32C19.1159 24.36 19.1559 24.56 19.1559 24.64C19.3159 24.92 19.5159 25.2 19.6759 25.4C19.7559 25.52 19.8359 25.56 19.9959 25.6C20.8759 25.76 21.7959 25.6 22.4359 24.92C22.5559 24.8 22.7559 24.64 22.8759 24.48C23.3959 23.96 23.5959 23.72 23.8359 23.36C23.9559 23.2 24.1159 23.04 24.3159 22.88C24.5159 22.68 24.8759 22.76 24.8759 23.08C24.8359 23.8 25.1559 24.36 25.4359 24.92C25.5559 25.12 25.6759 25.24 25.7159 25.24C26.3559 25.64 26.8359 26 27.3959 25.92C27.6359 25.88 27.8359 25.88 27.9959 25.88C28.2759 25.88 28.4359 25.88 28.8759 25.68C30.1559 25.16 30.9559 24.44 31.7959 23.32C32.0359 22.96 32.3159 22.48 32.5959 22.04C32.6359 21.96 32.5959 21.72 32.3959 21.56ZM38.4597 26.56C39.1797 26.72 39.4197 26.8 40.0197 26.52C40.5397 26.32 41.1797 26.04 41.8597 25.72C42.1397 25.6 42.2197 25.56 42.3397 25.44C43.2597 24.6 44.4997 23.32 45.1397 22.2C45.1397 22.24 45.2197 22.12 45.2997 21.92C45.2997 21.84 45.3397 21.84 45.3797 21.76C45.3797 21.72 45.2997 21.52 45.2597 21.52C44.9797 21.44 44.8197 21.48 44.6197 21.8C44.2197 22.6 43.6997 23.12 43.3397 23.52C43.0997 23.76 43.0197 23.8 42.9397 23.96C42.5797 24.44 41.8997 24.8 41.3797 25.08L40.9397 25.36C40.5797 25.6 39.9797 25.84 39.4997 25.92C38.2997 26.12 37.8597 25.8 37.6597 24.56C37.4597 23.4 37.5797 22.88 38.1797 22.32C38.2997 22.2 38.4597 21.96 38.5797 21.6C38.9397 20.84 39.2197 20.44 39.6197 20.08C39.5397 19.92 39.6597 19.84 39.8197 19.64C39.9797 19.48 40.0197 19.4 40.0197 19.28C40.0197 19.12 40.0597 18.96 40.1797 18.8C40.4197 18.48 40.5797 18.08 40.7797 17.68C40.9397 17.28 41.0197 17.12 41.1797 16.88C41.6197 16.04 41.8597 15.44 42.0997 14.84C42.2597 14.48 42.4197 14.16 42.4197 13.76C42.4197 13.48 42.4597 13.2 42.5397 12.92C42.7797 11.84 42.8597 11.88 41.6597 11.28C41.5797 11.24 41.5397 11.24 41.4997 11.28C40.3797 11.72 39.6997 12.28 39.3797 13.2C39.2997 13.44 39.1397 13.72 39.0597 13.96C38.7797 14.56 38.4997 15.12 38.5397 15.8C38.5397 15.92 38.4997 16.04 38.4197 16.12C38.1797 16.32 38.0997 16.64 38.0597 16.96C37.9797 17.2 37.9797 17.28 37.9397 17.4C37.8597 17.52 37.8197 17.68 37.7797 17.84C37.5797 18.44 37.4997 18.6 37.1397 18.96C36.4597 18.24 35.6997 18.24 34.9397 18.48C34.2597 18.72 33.6997 19.12 33.2597 19.8C33.2197 19.84 33.1397 19.96 33.0997 20.08C32.7797 20.6 32.6197 20.84 32.3797 21.12C32.0997 21.48 31.7797 21.76 32.0197 22.2C31.9797 22.28 31.9797 22.4 31.9397 22.52C31.8197 22.92 31.7797 23.08 31.5797 23.28C31.4597 23.4 31.4597 23.6 31.4997 23.76C31.6597 23.96 31.6197 24.16 31.4197 24.52C31.2997 24.68 31.3397 25 31.4997 25.2C31.5797 25.32 31.5797 25.36 31.6997 25.48C31.7797 25.64 31.8597 25.8 31.9397 25.88C32.3397 26.28 32.6997 26.4 33.0597 26.36C33.1797 26.32 33.3397 26.32 33.4997 26.28C34.4197 26.12 34.7797 26 35.2197 25.64C35.3797 25.44 35.7397 25.28 35.9797 25.16C36.1397 25 36.6597 25.04 36.8997 25.28C37.0197 25.44 37.1397 25.52 37.1797 25.64C37.3797 26.28 37.8997 26.48 38.4597 26.56ZM38.6997 19.52C38.3397 19.48 38.3397 19.08 38.4597 18.84C38.6997 17.68 38.9397 16.52 39.5797 15.44C39.6197 15.28 39.6997 15.08 39.7797 14.88C39.8997 14.56 39.9397 14.48 39.9797 14.32C40.0997 14.12 40.2197 13.84 40.3397 13.64C40.5397 13.16 40.6597 12.96 40.8197 12.68C40.8997 12.4 41.4997 12.2 41.5797 12.44C41.6597 12.56 41.7397 12.72 41.7397 12.84C41.7397 12.96 41.6997 13.08 41.6597 13.24C41.6597 13.32 41.6197 13.4 41.6197 13.48C41.5797 13.6 41.5397 13.76 41.5397 13.88C41.4197 14.36 41.3397 14.6 41.2197 14.88C40.9397 15.6 40.6197 16.16 40.2997 16.68C40.2197 16.8 40.1397 17 40.0597 17.16C39.8197 17.68 39.6997 17.88 39.4597 18.16C39.4197 18.2 39.3797 18.28 39.2997 18.6C39.2597 18.76 39.2597 18.84 39.2197 18.92C39.2197 19.08 38.7797 19.56 38.6997 19.52ZM33.6597 25.6C33.3797 25.68 33.0597 25.64 32.8197 25.4C32.3397 24.96 32.1797 24.52 32.2997 24.08C32.4197 23.84 32.4197 23.6 32.4597 23.36C32.4997 23.04 32.4997 22.88 32.5797 22.68C32.8597 22.04 33.2197 21.4 33.5397 20.76C33.6197 20.56 33.6997 20.48 33.7797 20.4C33.8997 20.32 34.0597 20.2 34.1397 20.12C34.6197 19.72 34.8597 19.52 35.1397 19.32C35.4197 19.04 35.8197 18.92 36.0997 19.16C36.5397 19.44 36.6597 19.72 36.5397 20.16L36.2997 20.92L36.2597 21C36.2197 21.12 36.2197 21.2 36.2197 21.28C36.0997 21.88 36.1797 22.2 36.4197 22.4C36.6197 22.52 36.6997 22.68 36.6597 22.92C36.3397 23.36 36.2197 23.56 36.0597 23.8C35.4997 24.68 34.6197 25.16 33.6597 25.6ZM41.1131 39.48C41.4731 39.52 41.9131 39.4 42.3531 39.28C42.9931 39.08 43.6331 38.96 44.1931 38.48C45.3131 37.52 46.0731 36.52 46.5531 35.4L46.7931 34.88C47.0331 34.36 47.1131 34.12 47.3131 33.8C47.5931 33.28 47.8331 32.76 47.8731 32.12C47.9131 31.76 48.0331 31.44 48.2731 31.04C48.5931 30.6 48.7131 30.2 48.7131 29.8C48.7131 29.44 48.8331 29.08 48.9531 28.72C49.1531 28.2 49.3131 27.68 49.2731 27.08C49.2731 27 49.3131 26.92 49.3531 26.8C49.3931 26.64 49.3931 26.6 49.3931 26.56C49.4331 26.04 49.5131 25.92 49.9531 25.76L50.3931 25.56C50.5931 25.48 50.8331 25.32 51.1931 25.28C51.1931 25.32 52.1531 25.04 52.4331 24.92C52.7131 24.68 53.1531 24.48 53.5531 24.36C54.2731 24.04 54.5531 23.88 54.8731 23.52C54.9531 23.48 54.9131 23.52 54.9931 23.44C55.0731 23.4 55.1131 23.4 55.1131 23.36C55.1931 23.04 55.4731 22.8 55.6731 22.64C55.8731 22.48 55.9131 22.4 56.0331 22.24L56.0731 22.08C56.0731 22.04 56.0731 22.04 56.1131 21.96C56.1531 21.76 56.1131 21.64 56.0331 21.56C55.9931 21.48 55.7531 21.44 55.7131 21.48C55.4331 21.76 55.2731 21.96 55.1931 22.12C54.9531 22.4 54.8331 22.56 54.3531 22.92C54.1531 23.16 52.9131 23.84 52.5531 24.04C52.3131 24.16 51.7931 24.28 51.3131 24.4L50.4731 24.64C50.4731 24.64 50.4331 24.64 50.3131 24.72C50.2331 24.8 50.0731 24.84 50.0331 24.8C49.9131 24.72 49.8731 24.6 49.9131 24.48V24.4C49.9131 24.28 49.9531 24.08 49.9931 23.8C50.0331 23.64 50.0331 23.56 50.0331 23.52C49.9931 23.12 50.0731 22.68 50.1531 22.28C50.2331 21.92 50.3131 21.6 50.3131 21.28C50.3131 20.88 50.2731 20.48 50.5131 20.08C50.5931 19.88 50.6331 19.56 50.5531 19.2L50.4731 19.08C50.1531 18.92 49.7931 19.04 49.5931 19.32C49.5931 19.4 49.5131 19.56 49.4731 19.68C49.3531 20.08 49.2731 20.24 49.1131 20.44C48.7931 20.8 48.5131 21.2 48.2331 21.84C47.8731 22.64 47.2331 23.24 46.1931 23.68C45.8331 23.76 45.5931 23.72 45.4731 23.56C45.3531 23.36 45.2731 23.24 45.3131 23.12C45.3131 22.4 45.3931 21.92 45.5531 21.48C45.5531 21.44 45.5931 21.4 45.5931 21.32C45.5931 21.2 45.6331 21.16 45.6331 21.08C45.9131 20.68 46.0331 20.2 46.1531 19.72C46.2731 19.24 46.3131 19.04 46.4331 18.76C46.4731 18.68 46.3131 18.36 46.1931 18.32C45.7931 18.16 45.5931 18.24 45.5131 18.68C45.4731 19.04 45.3931 19.28 45.2331 19.52C45.0731 19.76 44.9931 20.04 44.9931 20.32V20.56C44.9931 20.96 44.9931 21.04 44.7131 21.4L44.5531 21.92C44.5131 22 44.5131 22 44.5131 22.08C44.4331 22.56 44.5131 23 44.6331 23.52C44.6731 23.6 44.6731 23.76 44.7131 23.84C44.7531 23.92 44.7531 23.96 44.9131 24.08C45.7131 24.6 46.9131 24.48 47.6331 23.84L47.8331 23.6C48.1131 23.32 48.3531 23.16 48.7131 23.12C49.1131 23.12 49.0331 23.56 48.9131 24.48C48.8331 25.04 48.5931 25.32 48.0331 25.44C47.2731 25.6 46.9531 25.72 46.5931 25.92C46.3131 26.08 45.9131 26.24 45.5531 26.36L45.3531 26.44C44.6331 26.68 44.3931 26.8 44.0731 27.04C43.8731 27.2 43.5931 27.36 43.3531 27.48C42.3531 27.92 41.3531 28.68 40.2331 29.8C39.3131 30.72 38.8331 31.92 38.4331 33.2C38.4331 33.56 38.3531 33.88 38.3131 34.2C38.1531 34.84 38.1131 35.2 38.2331 35.52C38.3131 35.72 38.3131 35.88 38.2731 36.2C38.2731 36.52 38.2731 36.76 38.3531 36.92C38.4331 37 38.4331 37.04 38.5131 37.16C38.7131 37.52 38.9131 37.92 39.1531 38.16C39.2331 38.36 39.3931 38.56 39.4731 38.68C39.8331 39.12 40.3131 39.4 41.1131 39.48ZM41.5131 38.56C40.6331 38.64 39.9531 38.24 39.6331 37.44C39.2731 36.52 38.9131 35.68 39.1931 34.64C39.2331 34.6 39.2331 34.52 39.2331 34.48C39.0331 34.12 39.0331 33.84 39.2731 33.24C39.3131 33.12 39.3131 33.04 39.3531 32.88C39.6331 32.12 39.8731 31.64 40.2731 31.2L40.4731 31C40.8331 30.6 40.9531 30.44 41.1131 30.16C41.1931 29.96 41.4731 29.76 41.6731 29.6L42.1131 29.28C42.6331 28.92 42.8731 28.76 43.1931 28.52C43.7531 28.08 44.4331 27.72 45.0331 27.4L45.5131 27.16C46.0331 26.92 46.7131 26.64 47.2731 26.44L47.5931 26.32C47.9931 26.12 48.4731 26.4 48.4331 26.88C48.4331 27.04 48.3931 27.16 48.2731 27.44C48.2331 27.52 48.2331 27.6 48.1931 27.68C48.1931 27.76 48.1531 27.8 48.1531 27.88C48.1131 27.92 48.1131 27.96 48.1131 27.96C48.3131 28.32 48.3131 28.56 48.1131 29.12C48.0731 29.2 48.0731 29.24 48.0331 29.36L47.7931 29.96C47.5931 30.4 47.4331 30.76 47.4731 31.2C47.4731 31.28 47.4731 31.36 47.4331 31.4C47.1131 31.96 46.8731 32.6 46.6731 33.2C46.4331 33.88 46.3131 34.2 46.1531 34.56C45.7531 35.44 45.1931 36.16 44.5931 36.96C44.1531 37.52 43.5531 37.96 42.8331 38.28C42.3931 38.48 41.9531 38.6 41.5131 38.56ZM68.9847 26.16C69.0247 26.16 69.1447 26.08 69.2247 26.08C69.3447 26 69.3847 26 69.4647 25.96C71.4647 25.6 72.5847 24.92 73.5847 23.72L74.8247 22.32C74.9447 22.2 75.0247 21.72 74.9847 21.68C74.8247 21.44 74.7847 21.44 74.7047 21.44C74.5847 21.48 74.4247 21.56 74.3447 21.68C74.2647 21.76 74.1447 21.92 74.0647 22.04C73.6647 22.56 73.4647 22.8 73.1047 23.12C73.0247 23.28 72.7847 23.48 72.6247 23.6C72.4247 23.76 72.4247 23.8 72.3447 23.88C71.9447 24.36 71.1447 24.6 70.6647 24.72C70.3847 24.8 70.3447 24.8 70.3047 24.84C68.4647 26.12 67.3047 25.48 66.5047 25.2C66.0247 25 65.7047 24.6 65.6647 24.08C65.6647 24 65.6247 23.88 65.6247 23.76C65.5047 23.2 65.5047 22.96 65.5447 22.72C65.9047 21.2 66.4647 20.12 67.3847 19.2C67.6647 18.96 68.0247 18.84 68.4247 18.92C68.6247 19 68.8247 19.12 68.8647 19.28C68.9447 19.56 68.9047 19.84 68.7447 20.12V20.32C68.7447 20.44 69.0647 20.72 69.2647 20.72C69.4647 20.68 69.7447 20.48 69.7447 20.32V19.56C69.8247 19.32 69.7047 18.8 69.4647 18.44C69.3447 18.24 69.2247 18.2 69.2247 18.2C68.2247 18.04 67.8247 18.08 67.3447 18.52C67.1447 18.72 66.8247 19 66.4647 19.2C65.9047 19.52 65.5047 20.32 65.1447 20.92C64.8247 21.52 64.6647 21.96 64.5847 22.44C64.4647 23.08 64.5047 24 64.7447 24.48C65.1047 25.2 65.5047 25.6 66.1847 25.84C66.8647 26.12 68.3047 26.36 68.9847 26.16ZM86.8016 21.48C86.5616 21.36 86.4016 21.44 86.2416 21.64C85.9216 22 85.8016 22.16 85.6416 22.44C85.3216 23.12 84.9616 23.28 84.3616 23.68C84.1616 23.8 83.9616 24.04 83.7216 24.24C83.2816 24.68 83.0416 24.88 82.6816 25.04C82.4816 25.12 82.3616 25.2 82.2016 25.24C80.9216 25.8 80.5616 25.08 80.2416 24.24V23.32C80.2416 22.72 80.2416 22.44 80.3216 22.08C80.4416 21.76 80.6016 21.36 80.5616 20.8L80.4416 20.16C80.4016 19.96 80.3616 19.84 80.2016 19.76C79.8416 19.52 79.5216 19.48 79.0416 19.6C78.3216 19.88 78.0016 20.04 77.6816 20.44C77.5216 20.6 77.3216 20.8 77.1216 20.96C76.5216 21.56 76.3216 21.8 75.9216 22.12C75.9616 22.08 75.6416 22.08 75.5216 22C75.5216 22 75.4416 21.88 75.4416 21.84C75.4016 21.32 75.4816 20.92 75.7216 20.48C75.8816 20.2 76.0416 19.92 76.1216 19.56C76.2016 19.08 76.2016 19.12 76.4816 18.76C76.4416 18.36 76.5216 18.08 76.8416 17.44C76.9616 17.28 76.9616 17.2 77.0016 17.12C77.0816 16.96 77.5216 15.84 77.5616 15.64C77.6816 15.32 77.7616 15 77.8816 14.72C78.0416 14.16 78.2016 13.64 78.4416 13C78.7216 12.36 78.7616 11.52 78.5616 11C78.6016 10.88 78.5616 10.8 78.4016 10.76C78.1216 10.68 78.0416 10.76 77.9216 10.92C77.8816 11.08 77.8016 11.24 77.7216 11.4C77.4816 11.88 77.2816 12.28 77.2416 12.76C77.1616 13.12 77.0416 13.48 76.9216 13.84C76.8016 14.2 76.6816 14.52 76.6016 14.96C76.5616 15.2 76.4416 15.52 76.3216 15.8C76.1616 16.2 76.0016 16.6 76.0416 17.08C76.0416 17.16 76.0016 17.24 75.8816 17.4C75.8416 17.48 75.8016 17.52 75.8016 17.56C75.6416 17.76 75.5616 17.88 75.5616 18C75.6016 18.24 75.5216 18.44 75.3216 18.84L75.2016 19.16C75.1616 19.24 75.0816 19.36 75.0416 19.48C74.8416 19.84 74.8016 20.08 74.8816 20.32C74.9616 20.44 74.8816 20.6 74.7616 20.84L74.6816 20.92C74.3616 21.44 74.2416 21.92 74.2416 22.36C74.2416 22.48 74.2016 22.64 74.1616 22.8C73.8816 23.4 73.7216 24.12 73.5616 24.8L73.2416 25.96C73.2016 26.12 73.3216 26.4 73.4816 26.44C73.8416 26.56 74.1216 26.48 74.3216 26.16C74.3616 26.12 74.4016 26 74.4816 25.92C74.6816 25.56 74.8016 25.4 74.9616 25.16C75.4416 24.36 76.0816 23.52 76.6816 22.72C77.0016 22.32 77.1216 22.16 77.2816 21.92C77.7216 21.36 78.3616 20.96 78.9616 20.56C79.1616 20.44 79.6016 20.52 79.6816 20.76C79.8416 21 79.8416 21.24 79.8016 21.6V21.64L79.4416 22.64C79.0816 23.8 79.4416 25.2 80.3616 25.8C80.5216 25.92 80.6016 25.92 80.9216 26.08C81.4816 26.44 82.1616 26.4 82.7616 26C83.2816 25.72 83.6816 25.4 84.1216 25.04C84.4016 24.8 84.5216 24.68 84.7216 24.56C85.0016 24.36 85.1616 24.24 85.2416 24.12C85.4416 23.68 85.6816 23.44 85.9616 23.16C86.1216 23.04 86.2016 23 86.2816 22.88C86.6416 22.56 86.8416 22.2 86.9216 21.84C86.9616 21.72 86.9216 21.6 86.8016 21.48ZM98.7547 21.64C98.5547 21.48 98.3947 21.44 98.3147 21.56C98.2747 21.6 98.1947 21.68 98.1547 21.76C98.0747 21.84 98.0347 21.88 97.9947 21.96C97.8347 22.16 97.6747 22.4 97.5547 22.64C97.4347 22.88 97.3547 22.92 97.2747 23.08C97.0747 23.4 96.7947 23.6 96.5147 23.8L96.0347 24.28C95.1947 25.16 94.3147 25.24 93.7947 25.32C93.5547 25.4 93.3147 25.44 93.0347 25.48C92.4747 25.4 91.9947 25.08 91.7947 24.68C91.3547 24.04 91.2747 23.36 91.4747 22.56C91.5547 22.4 91.5147 22.2 91.4747 21.8C91.4747 21.68 91.2747 21.52 91.1947 21.56C90.8747 21.68 90.7147 21.8 90.5947 22C90.5547 22.12 90.4747 22.28 90.3947 22.4L90.2347 22.8C89.9947 23.36 89.7147 23.64 89.4347 23.84C89.1947 24.04 89.0347 24.2 88.8347 24.52C88.5947 24.84 88.1947 25.04 87.7947 25.24C87.4347 25.4 86.8347 25.12 86.7947 24.76C86.7947 24.64 86.7547 24.56 86.7547 24.48C86.7147 24.28 86.6747 24.16 86.6747 24.04C86.6747 23.84 86.7147 23.68 86.7147 23.52C86.7147 22.96 86.7547 22.6 87.2347 21.92C87.2747 21.84 87.3147 21.72 87.3147 21.6C87.3147 21.36 87.3947 21.24 87.6747 20.88C87.7947 20.76 87.7947 20.72 87.8747 20.6C88.0347 20.32 88.2347 20.12 88.4347 19.96C88.6347 19.8 88.7147 19.72 88.8347 19.56C89.1547 19.2 89.6347 19 90.2747 19C90.8747 19.04 91.1547 19.2 91.3147 19.64C91.3147 19.76 91.3547 19.8 91.4347 19.88C91.5547 20.04 91.5947 20.12 91.6347 20.24C91.6747 20.48 91.8747 20.6 92.1147 20.56C92.2747 20.52 92.4347 20.36 92.4747 20.12C92.4747 19.92 92.4347 19.84 92.3547 19.68C92.3147 19.6 92.2347 19.52 92.2347 19.44C91.8347 18.6 91.2347 18.16 90.1547 18C89.8347 17.96 89.6347 18 89.3147 18.24C89.2347 18.36 89.0347 18.44 88.9147 18.48C88.6347 18.64 88.5947 18.68 88.4747 18.84C87.8347 19.16 87.5947 19.32 87.2347 19.88C86.9547 20.48 86.6347 21 86.3147 21.52C86.1947 21.68 86.1947 21.8 86.2347 21.8C86.2747 22.12 86.1947 22.36 85.9947 22.88L85.8747 23.28C85.7547 23.64 85.7547 23.84 85.7947 24.2C85.7947 24.36 85.8347 24.56 85.8347 24.8C85.7947 25.12 85.9147 25.32 86.2347 25.56C86.9547 26.12 87.5547 26.16 88.3147 25.68C88.4747 25.64 88.6347 25.52 88.7947 25.4C88.8747 25.32 88.9147 25.32 88.9947 25.28L89.5547 24.84C89.8747 24.6 89.9947 24.52 90.1547 24.36C90.3147 24.32 90.6347 24.36 90.6747 24.44C90.7547 24.52 90.8347 24.64 90.8747 24.72C91.5147 25.68 91.8747 26.04 92.9147 26.2C92.9947 26.2 93.0747 26.2 93.1947 26.24H93.5947C93.8347 26.2 94.0747 26.12 94.2747 26.12C94.7947 26 95.1147 25.96 95.8347 25.48C95.8747 25.48 95.9947 25.44 96.0347 25.4C96.5147 25.12 96.7547 24.92 97.0747 24.48L98.4747 22.56C98.5147 22.56 98.5547 22.44 98.6747 22.2L98.7147 22.16C98.7147 22.12 98.7147 22.08 98.7547 22.04C98.8347 21.88 98.8347 21.72 98.7547 21.64ZM106.391 26.08C106.711 26.16 106.551 26.16 107.031 25.92C107.191 25.8 107.431 25.72 107.631 25.68C107.871 25.68 108.231 25.48 108.551 25.28L108.831 25.12C108.991 25.04 109.111 24.96 109.271 24.76C109.431 24.56 109.551 24.44 109.791 24.32C110.311 24.04 110.591 23.64 110.831 23.28C111.071 22.88 111.231 22.72 111.511 22.48C111.511 22.44 111.751 21.8 111.751 21.72C111.711 21.6 111.671 21.52 111.511 21.48C111.431 21.48 111.391 21.48 111.231 21.64C111.151 21.68 111.111 21.72 111.071 21.72C110.591 22.6 110.191 23.12 109.631 23.56C108.871 24.24 108.431 24.6 107.471 25.04C106.511 25.48 105.871 25.64 105.151 25.04C104.711 24.8 104.591 24.72 104.591 24.4C104.591 23.4 104.511 22.44 105.111 21.44C105.151 21.4 105.151 21.32 105.191 21.16C105.231 21 105.271 20.96 105.271 20.88C105.431 20.52 105.391 20.08 104.991 19.48C104.871 19.28 104.671 19.16 104.511 19.24C103.871 19.28 103.231 19.64 102.591 19.96C102.111 20.24 101.911 20.36 101.631 20.48L101.551 20.6L100.871 21.12C100.471 21.44 100.311 21.56 100.111 21.68C99.8706 21.84 99.5906 21.92 99.2706 22.04C98.9906 21.72 98.9906 21.6 99.2706 21.2C99.3106 21.16 99.3106 21.16 99.3106 21.12C99.3906 20.96 99.4706 20.68 99.5506 20.48C99.7506 19.8 99.8706 19.48 100.071 19.12C100.151 18.92 100.111 18.8 99.8706 18.56C99.6306 18.32 99.4706 18.32 99.3106 18.56C98.8306 19.2 98.6306 19.72 98.6306 20.4C98.6306 20.6 98.5506 20.72 98.3506 21.08C98.1106 21.52 97.9906 22.08 97.8306 22.72C97.7906 22.88 97.7506 23.08 97.7506 23.28C97.6706 23.92 97.6306 24.16 97.4306 24.44C97.3106 24.6 97.2306 24.92 97.2706 25.2C97.3506 25.44 97.6306 25.64 97.7906 25.56C97.9506 25.52 98.1106 25.32 98.2306 25.08C98.3906 24.88 98.4306 24.8 98.5506 24.68C98.7906 24.48 99.0306 24.12 99.2706 23.8C99.6306 23.24 99.8706 23 100.191 22.76C100.431 22.6 100.671 22.32 100.911 22.08C101.111 21.88 101.191 21.8 101.351 21.68C101.511 21.48 101.831 21.32 102.111 21.24C102.431 21.12 102.551 21.04 102.711 20.92C102.911 20.68 103.271 20.52 103.591 20.36C103.711 20.24 103.991 20.24 104.231 20.36C104.431 20.44 104.511 20.6 104.431 20.84L103.951 22.08C103.791 22.48 103.631 22.96 103.511 23.44C103.431 23.64 103.431 23.96 103.511 24.16C103.831 25 104.191 25.72 105.071 25.96C105.511 26.08 105.671 26.08 106.391 26.08Z" fill="black"/>
<path d="M15.36 15.08C15.64 15.12 15.72 15.04 16 14.76C16.08 14.56 16.08 14.4 16.08 14.32C16 14.12 15.88 14 15.72 14C15.68 14 15.56 14 15.44 14.08L15.16 14.2L15.2 14.16C15 14.32 14.88 14.56 14.92 14.76C14.96 14.96 15.08 15.08 15.36 15.08ZM4.2 40.88C4.76 40.96 6.16 40.52 6.64 40.08C7.72 39.08 7.92 38.72 8.84 37.4C9 37.16 9.16 36.96 9.28 36.8C9.56 36.44 9.68 36.24 9.84 35.72C9.92 35.6 9.96 35.44 10 35.28C10.2 34.76 10.32 34.52 10.52 34.24C10.64 34.12 10.68 33.92 10.72 33.52C10.76 33.04 10.8 32.84 11 32.6C11.04 32.6 11 32.6 11 32.52C11.16 32.36 11.24 32.12 11.28 31.68C11.28 31.44 11.32 31.24 11.4 31C11.68 30.4 11.8 29.88 11.8 29.36C11.84 28.92 11.96 28.52 12.12 28.04C12.36 27.52 12.72 27.24 13.44 26.96C13.96 26.76 15.12 26.36 15.52 26C15.6 25.88 15.8 25.8 15.92 25.76C16.04 25.72 16.04 25.72 16.12 25.64C16.16 25.64 16.36 25.52 16.64 25.4C16.84 25.32 16.88 25.28 16.96 25.24C17.24 24.88 17.6 24.68 17.88 24.52C18.2 24.32 18.4 24.2 18.64 23.92C19.48 23.08 19.88 22.6 20.24 21.96C20.32 21.8 20.2 21.56 20.04 21.48C19.92 21.4 19.84 21.48 19.6 21.72C19.12 22.44 18.88 22.68 18.64 22.96L18.28 23.36C17.96 23.72 17.56 23.92 17.16 24.12C16.76 24.32 16.6 24.44 16.36 24.6C16.24 24.64 16.08 24.76 15.96 24.88C15.48 25.2 15.24 25.32 14.96 25.44C14.88 25.44 14.72 25.52 14.44 25.68C13.8 25.96 13.48 26.08 13.2 26.12C12.96 26.12 12.76 25.96 12.76 25.76C12.76 25.6 12.84 25.2 12.96 24.68C12.96 24.64 13.04 24.44 13.12 24.32C13.28 24.08 13.32 23.92 13.32 23.8C13.36 23.2 13.56 22.64 13.72 22.12C13.88 21.72 13.92 21.48 14 21.2C14.08 20.88 14.12 20.52 14.12 20.12C14.16 19.8 14.16 19.6 14.2 19.4C14.2 19.24 14.12 19.12 14.04 19.12C13.76 19.08 13.72 19.08 13.68 19.2C13.56 19.32 13.44 19.56 13.32 19.92L13.16 20.44C13 21 12.84 21.52 12.8 22.04C12.8 22.36 12.68 22.68 12.56 22.96C12.32 23.56 12.28 23.88 12.4 24.2C12.28 24.6 12 25.64 11.92 26.16C11.88 26.48 11.76 26.6 11.4 26.76C11.2 26.84 11.16 26.84 11.08 26.96C10.72 27.28 10.4 27.44 10.12 27.6C9.8 27.76 9.72 27.84 9.52 27.96C9.48 28.04 9.28 28.08 9.04 28.08C8.68 28.08 8.4 28.2 8.04 28.44C7.56 28.76 7.04 29 6.48 29.24C5.68 29.52 5.12 30 4.56 30.48C4.16 30.8 4 30.96 3.76 31.12C3.32 31.48 2.64 32.16 2.36 32.76C2.28 32.92 2.12 33.08 2 33.24C1.84 33.44 1.72 33.6 1.64 33.92C1.56 34.24 1.44 34.48 1.32 34.72C1.2 34.92 1.12 35.12 1.04 35.44C0.879999 36.12 0.759999 36.8 0.959999 37.52C0.959999 37.56 0.92 37.64 0.879999 37.72C0.92 38.04 1 38.28 1.28 38.68C1.44 38.92 1.64 39.28 1.84 39.72L2.32 40.08C2.48 40.16 2.56 40.2 2.76 40.36C3.08 40.68 3.36 40.88 4.2 40.88ZM4 40.12C3.84 40.08 3.96 40.08 3.88 40.08C3.76 40.08 3.52 40 3.48 39.96C3.36 39.84 3.28 39.76 3.04 39.64C2.64 39.36 2.24 39.12 2.16 38.52C2.04 38.04 1.96 37.68 1.8 37.36C1.64 37.04 1.64 36.96 1.84 36.64C1.84 36.6 1.88 36.48 1.8 36.2C1.76 35.72 1.84 35.44 2.16 34.88C2.28 34.64 2.36 34.48 2.44 34.28C2.84 33.36 2.96 32.92 3.96 32.2C4.2 32 4.44 31.72 4.72 31.44C5.28 30.84 5.56 30.6 5.96 30.4C6.12 30.32 6.4 30.16 6.6 30C7.28 29.6 7.96 29.2 8.8 29.04C8.96 29 9.16 28.88 9.36 28.76C9.68 28.6 9.88 28.48 10.16 28.44C10.16 28.44 10.24 28.44 10.36 28.4C10.56 28.32 10.76 28.28 10.88 28.32C11.16 28.32 11.16 28.52 11.08 28.8L10.92 29.32C10.76 29.92 10.64 30.36 10.64 31.08C10.6 31.16 10.6 31.2 10.6 31.24C10.56 31.4 10.48 31.52 10.32 31.72C10.12 32.04 10.08 32.2 10.08 32.44C10.12 32.76 10.04 33 9.76 33.56L9.64 33.84C9.56 34 9.52 34.2 9.48 34.4C9.36 34.76 9.32 34.92 9.2 35.12L8.88 35.72C8.52 36.36 8.32 36.72 7.6 37.44C7.32 37.68 7.2 37.88 7.12 38.16C6.88 38.8 6.36 39.12 5.88 39.4C5.52 39.6 5.36 39.68 5.16 39.84C4.92 40.04 4.52 40.12 4 40.12ZM32.3959 21.56C32.2759 21.44 32.1959 21.48 32.0359 21.56L31.5159 22.4C31.1159 23.08 30.7559 23.68 30.0359 24.12C29.8759 24.32 29.6759 24.4 29.5559 24.48C29.4359 24.52 29.3959 24.52 29.3559 24.56C29.0359 24.84 28.7959 24.88 28.3559 25C27.3959 25.32 26.7159 25.16 26.1159 24.36C25.7159 23.76 25.5159 23.32 25.5559 22.8C25.5559 22.72 25.5559 22.64 25.5959 22.56C25.6359 21.84 25.6759 21.52 25.7559 21.2C25.8359 20.84 25.8759 20.44 25.8759 20.04C25.8759 19.64 25.5559 19.44 25.1959 19.6C24.7959 19.8 24.7959 19.8 24.7559 20C24.7159 20.24 24.6359 20.4 24.3559 20.76C24.0359 21.2 23.7159 21.76 23.3959 22.28C22.9959 23 22.8359 23.32 22.5559 23.68C22.1959 24.12 21.5959 24.4 20.9159 24.72C20.8759 24.72 20.5959 24.72 20.5159 24.64C20.1159 24.12 19.9559 23.76 20.0359 23.32C20.1159 22.92 20.2359 22.44 20.3559 22.04C20.4359 21.8 20.4759 21.68 20.5159 21.48C20.5559 21.32 20.6359 21.16 20.7959 20.84C20.9559 20.6 21.0359 20.4 21.0759 20.16C21.1159 19.6 21.2759 19.16 21.5159 18.76C21.5559 18.72 21.5959 18.68 21.6359 18.6C21.7159 18.48 21.7159 18.4 21.6759 18.36C21.6759 18.36 21.6759 18.32 21.6359 18.32C21.5159 18.2 21.3959 18.08 21.3559 18.08C21.0759 17.84 20.7159 18.04 20.6359 18.4C20.3959 19.4 20.0759 20.36 19.7159 21.36C19.3559 22.32 19.0359 23.08 19.1559 24.32C19.1159 24.36 19.1559 24.56 19.1559 24.64C19.3159 24.92 19.5159 25.2 19.6759 25.4C19.7559 25.52 19.8359 25.56 19.9959 25.6C20.8759 25.76 21.7959 25.6 22.4359 24.92C22.5559 24.8 22.7559 24.64 22.8759 24.48C23.3959 23.96 23.5959 23.72 23.8359 23.36C23.9559 23.2 24.1159 23.04 24.3159 22.88C24.5159 22.68 24.8759 22.76 24.8759 23.08C24.8359 23.8 25.1559 24.36 25.4359 24.92C25.5559 25.12 25.6759 25.24 25.7159 25.24C26.3559 25.64 26.8359 26 27.3959 25.92C27.6359 25.88 27.8359 25.88 27.9959 25.88C28.2759 25.88 28.4359 25.88 28.8759 25.68C30.1559 25.16 30.9559 24.44 31.7959 23.32C32.0359 22.96 32.3159 22.48 32.5959 22.04C32.6359 21.96 32.5959 21.72 32.3959 21.56ZM38.4597 26.56C39.1797 26.72 39.4197 26.8 40.0197 26.52C40.5397 26.32 41.1797 26.04 41.8597 25.72C42.1397 25.6 42.2197 25.56 42.3397 25.44C43.2597 24.6 44.4997 23.32 45.1397 22.2C45.1397 22.24 45.2197 22.12 45.2997 21.92C45.2997 21.84 45.3397 21.84 45.3797 21.76C45.3797 21.72 45.2997 21.52 45.2597 21.52C44.9797 21.44 44.8197 21.48 44.6197 21.8C44.2197 22.6 43.6997 23.12 43.3397 23.52C43.0997 23.76 43.0197 23.8 42.9397 23.96C42.5797 24.44 41.8997 24.8 41.3797 25.08L40.9397 25.36C40.5797 25.6 39.9797 25.84 39.4997 25.92C38.2997 26.12 37.8597 25.8 37.6597 24.56C37.4597 23.4 37.5797 22.88 38.1797 22.32C38.2997 22.2 38.4597 21.96 38.5797 21.6C38.9397 20.84 39.2197 20.44 39.6197 20.08C39.5397 19.92 39.6597 19.84 39.8197 19.64C39.9797 19.48 40.0197 19.4 40.0197 19.28C40.0197 19.12 40.0597 18.96 40.1797 18.8C40.4197 18.48 40.5797 18.08 40.7797 17.68C40.9397 17.28 41.0197 17.12 41.1797 16.88C41.6197 16.04 41.8597 15.44 42.0997 14.84C42.2597 14.48 42.4197 14.16 42.4197 13.76C42.4197 13.48 42.4597 13.2 42.5397 12.92C42.7797 11.84 42.8597 11.88 41.6597 11.28C41.5797 11.24 41.5397 11.24 41.4997 11.28C40.3797 11.72 39.6997 12.28 39.3797 13.2C39.2997 13.44 39.1397 13.72 39.0597 13.96C38.7797 14.56 38.4997 15.12 38.5397 15.8C38.5397 15.92 38.4997 16.04 38.4197 16.12C38.1797 16.32 38.0997 16.64 38.0597 16.96C37.9797 17.2 37.9797 17.28 37.9397 17.4C37.8597 17.52 37.8197 17.68 37.7797 17.84C37.5797 18.44 37.4997 18.6 37.1397 18.96C36.4597 18.24 35.6997 18.24 34.9397 18.48C34.2597 18.72 33.6997 19.12 33.2597 19.8C33.2197 19.84 33.1397 19.96 33.0997 20.08C32.7797 20.6 32.6197 20.84 32.3797 21.12C32.0997 21.48 31.7797 21.76 32.0197 22.2C31.9797 22.28 31.9797 22.4 31.9397 22.52C31.8197 22.92 31.7797 23.08 31.5797 23.28C31.4597 23.4 31.4597 23.6 31.4997 23.76C31.6597 23.96 31.6197 24.16 31.4197 24.52C31.2997 24.68 31.3397 25 31.4997 25.2C31.5797 25.32 31.5797 25.36 31.6997 25.48C31.7797 25.64 31.8597 25.8 31.9397 25.88C32.3397 26.28 32.6997 26.4 33.0597 26.36C33.1797 26.32 33.3397 26.32 33.4997 26.28C34.4197 26.12 34.7797 26 35.2197 25.64C35.3797 25.44 35.7397 25.28 35.9797 25.16C36.1397 25 36.6597 25.04 36.8997 25.28C37.0197 25.44 37.1397 25.52 37.1797 25.64C37.3797 26.28 37.8997 26.48 38.4597 26.56ZM38.6997 19.52C38.3397 19.48 38.3397 19.08 38.4597 18.84C38.6997 17.68 38.9397 16.52 39.5797 15.44C39.6197 15.28 39.6997 15.08 39.7797 14.88C39.8997 14.56 39.9397 14.48 39.9797 14.32C40.0997 14.12 40.2197 13.84 40.3397 13.64C40.5397 13.16 40.6597 12.96 40.8197 12.68C40.8997 12.4 41.4997 12.2 41.5797 12.44C41.6597 12.56 41.7397 12.72 41.7397 12.84C41.7397 12.96 41.6997 13.08 41.6597 13.24C41.6597 13.32 41.6197 13.4 41.6197 13.48C41.5797 13.6 41.5397 13.76 41.5397 13.88C41.4197 14.36 41.3397 14.6 41.2197 14.88C40.9397 15.6 40.6197 16.16 40.2997 16.68C40.2197 16.8 40.1397 17 40.0597 17.16C39.8197 17.68 39.6997 17.88 39.4597 18.16C39.4197 18.2 39.3797 18.28 39.2997 18.6C39.2597 18.76 39.2597 18.84 39.2197 18.92C39.2197 19.08 38.7797 19.56 38.6997 19.52ZM33.6597 25.6C33.3797 25.68 33.0597 25.64 32.8197 25.4C32.3397 24.96 32.1797 24.52 32.2997 24.08C32.4197 23.84 32.4197 23.6 32.4597 23.36C32.4997 23.04 32.4997 22.88 32.5797 22.68C32.8597 22.04 33.2197 21.4 33.5397 20.76C33.6197 20.56 33.6997 20.48 33.7797 20.4C33.8997 20.32 34.0597 20.2 34.1397 20.12C34.6197 19.72 34.8597 19.52 35.1397 19.32C35.4197 19.04 35.8197 18.92 36.0997 19.16C36.5397 19.44 36.6597 19.72 36.5397 20.16L36.2997 20.92L36.2597 21C36.2197 21.12 36.2197 21.2 36.2197 21.28C36.0997 21.88 36.1797 22.2 36.4197 22.4C36.6197 22.52 36.6997 22.68 36.6597 22.92C36.3397 23.36 36.2197 23.56 36.0597 23.8C35.4997 24.68 34.6197 25.16 33.6597 25.6ZM41.1131 39.48C41.4731 39.52 41.9131 39.4 42.3531 39.28C42.9931 39.08 43.6331 38.96 44.1931 38.48C45.3131 37.52 46.0731 36.52 46.5531 35.4L46.7931 34.88C47.0331 34.36 47.1131 34.12 47.3131 33.8C47.5931 33.28 47.8331 32.76 47.8731 32.12C47.9131 31.76 48.0331 31.44 48.2731 31.04C48.5931 30.6 48.7131 30.2 48.7131 29.8C48.7131 29.44 48.8331 29.08 48.9531 28.72C49.1531 28.2 49.3131 27.68 49.2731 27.08C49.2731 27 49.3131 26.92 49.3531 26.8C49.3931 26.64 49.3931 26.6 49.3931 26.56C49.4331 26.04 49.5131 25.92 49.9531 25.76L50.3931 25.56C50.5931 25.48 50.8331 25.32 51.1931 25.28C51.1931 25.32 52.1531 25.04 52.4331 24.92C52.7131 24.68 53.1531 24.48 53.5531 24.36C54.2731 24.04 54.5531 23.88 54.8731 23.52C54.9531 23.48 54.9131 23.52 54.9931 23.44C55.0731 23.4 55.1131 23.4 55.1131 23.36C55.1931 23.04 55.4731 22.8 55.6731 22.64C55.8731 22.48 55.9131 22.4 56.0331 22.24L56.0731 22.08C56.0731 22.04 56.0731 22.04 56.1131 21.96C56.1531 21.76 56.1131 21.64 56.0331 21.56C55.9931 21.48 55.7531 21.44 55.7131 21.48C55.4331 21.76 55.2731 21.96 55.1931 22.12C54.9531 22.4 54.8331 22.56 54.3531 22.92C54.1531 23.16 52.9131 23.84 52.5531 24.04C52.3131 24.16 51.7931 24.28 51.3131 24.4L50.4731 24.64C50.4731 24.64 50.4331 24.64 50.3131 24.72C50.2331 24.8 50.0731 24.84 50.0331 24.8C49.9131 24.72 49.8731 24.6 49.9131 24.48V24.4C49.9131 24.28 49.9531 24.08 49.9931 23.8C50.0331 23.64 50.0331 23.56 50.0331 23.52C49.9931 23.12 50.0731 22.68 50.1531 22.28C50.2331 21.92 50.3131 21.6 50.3131 21.28C50.3131 20.88 50.2731 20.48 50.5131 20.08C50.5931 19.88 50.6331 19.56 50.5531 19.2L50.4731 19.08C50.1531 18.92 49.7931 19.04 49.5931 19.32C49.5931 19.4 49.5131 19.56 49.4731 19.68C49.3531 20.08 49.2731 20.24 49.1131 20.44C48.7931 20.8 48.5131 21.2 48.2331 21.84C47.8731 22.64 47.2331 23.24 46.1931 23.68C45.8331 23.76 45.5931 23.72 45.4731 23.56C45.3531 23.36 45.2731 23.24 45.3131 23.12C45.3131 22.4 45.3931 21.92 45.5531 21.48C45.5531 21.44 45.5931 21.4 45.5931 21.32C45.5931 21.2 45.6331 21.16 45.6331 21.08C45.9131 20.68 46.0331 20.2 46.1531 19.72C46.2731 19.24 46.3131 19.04 46.4331 18.76C46.4731 18.68 46.3131 18.36 46.1931 18.32C45.7931 18.16 45.5931 18.24 45.5131 18.68C45.4731 19.04 45.3931 19.28 45.2331 19.52C45.0731 19.76 44.9931 20.04 44.9931 20.32V20.56C44.9931 20.96 44.9931 21.04 44.7131 21.4L44.5531 21.92C44.5131 22 44.5131 22 44.5131 22.08C44.4331 22.56 44.5131 23 44.6331 23.52C44.6731 23.6 44.6731 23.76 44.7131 23.84C44.7531 23.92 44.7531 23.96 44.9131 24.08C45.7131 24.6 46.9131 24.48 47.6331 23.84L47.8331 23.6C48.1131 23.32 48.3531 23.16 48.7131 23.12C49.1131 23.12 49.0331 23.56 48.9131 24.48C48.8331 25.04 48.5931 25.32 48.0331 25.44C47.2731 25.6 46.9531 25.72 46.5931 25.92C46.3131 26.08 45.9131 26.24 45.5531 26.36L45.3531 26.44C44.6331 26.68 44.3931 26.8 44.0731 27.04C43.8731 27.2 43.5931 27.36 43.3531 27.48C42.3531 27.92 41.3531 28.68 40.2331 29.8C39.3131 30.72 38.8331 31.92 38.4331 33.2C38.4331 33.56 38.3531 33.88 38.3131 34.2C38.1531 34.84 38.1131 35.2 38.2331 35.52C38.3131 35.72 38.3131 35.88 38.2731 36.2C38.2731 36.52 38.2731 36.76 38.3531 36.92C38.4331 37 38.4331 37.04 38.5131 37.16C38.7131 37.52 38.9131 37.92 39.1531 38.16C39.2331 38.36 39.3931 38.56 39.4731 38.68C39.8331 39.12 40.3131 39.4 41.1131 39.48ZM41.5131 38.56C40.6331 38.64 39.9531 38.24 39.6331 37.44C39.2731 36.52 38.9131 35.68 39.1931 34.64C39.2331 34.6 39.2331 34.52 39.2331 34.48C39.0331 34.12 39.0331 33.84 39.2731 33.24C39.3131 33.12 39.3131 33.04 39.3531 32.88C39.6331 32.12 39.8731 31.64 40.2731 31.2L40.4731 31C40.8331 30.6 40.9531 30.44 41.1131 30.16C41.1931 29.96 41.4731 29.76 41.6731 29.6L42.1131 29.28C42.6331 28.92 42.8731 28.76 43.1931 28.52C43.7531 28.08 44.4331 27.72 45.0331 27.4L45.5131 27.16C46.0331 26.92 46.7131 26.64 47.2731 26.44L47.5931 26.32C47.9931 26.12 48.4731 26.4 48.4331 26.88C48.4331 27.04 48.3931 27.16 48.2731 27.44C48.2331 27.52 48.2331 27.6 48.1931 27.68C48.1931 27.76 48.1531 27.8 48.1531 27.88C48.1131 27.92 48.1131 27.96 48.1131 27.96C48.3131 28.32 48.3131 28.56 48.1131 29.12C48.0731 29.2 48.0731 29.24 48.0331 29.36L47.7931 29.96C47.5931 30.4 47.4331 30.76 47.4731 31.2C47.4731 31.28 47.4731 31.36 47.4331 31.4C47.1131 31.96 46.8731 32.6 46.6731 33.2C46.4331 33.88 46.3131 34.2 46.1531 34.56C45.7531 35.44 45.1931 36.16 44.5931 36.96C44.1531 37.52 43.5531 37.96 42.8331 38.28C42.3931 38.48 41.9531 38.6 41.5131 38.56ZM68.9847 26.16C69.0247 26.16 69.1447 26.08 69.2247 26.08C69.3447 26 69.3847 26 69.4647 25.96C71.4647 25.6 72.5847 24.92 73.5847 23.72L74.8247 22.32C74.9447 22.2 75.0247 21.72 74.9847 21.68C74.8247 21.44 74.7847 21.44 74.7047 21.44C74.5847 21.48 74.4247 21.56 74.3447 21.68C74.2647 21.76 74.1447 21.92 74.0647 22.04C73.6647 22.56 73.4647 22.8 73.1047 23.12C73.0247 23.28 72.7847 23.48 72.6247 23.6C72.4247 23.76 72.4247 23.8 72.3447 23.88C71.9447 24.36 71.1447 24.6 70.6647 24.72C70.3847 24.8 70.3447 24.8 70.3047 24.84C68.4647 26.12 67.3047 25.48 66.5047 25.2C66.0247 25 65.7047 24.6 65.6647 24.08C65.6647 24 65.6247 23.88 65.6247 23.76C65.5047 23.2 65.5047 22.96 65.5447 22.72C65.9047 21.2 66.4647 20.12 67.3847 19.2C67.6647 18.96 68.0247 18.84 68.4247 18.92C68.6247 19 68.8247 19.12 68.8647 19.28C68.9447 19.56 68.9047 19.84 68.7447 20.12V20.32C68.7447 20.44 69.0647 20.72 69.2647 20.72C69.4647 20.68 69.7447 20.48 69.7447 20.32V19.56C69.8247 19.32 69.7047 18.8 69.4647 18.44C69.3447 18.24 69.2247 18.2 69.2247 18.2C68.2247 18.04 67.8247 18.08 67.3447 18.52C67.1447 18.72 66.8247 19 66.4647 19.2C65.9047 19.52 65.5047 20.32 65.1447 20.92C64.8247 21.52 64.6647 21.96 64.5847 22.44C64.4647 23.08 64.5047 24 64.7447 24.48C65.1047 25.2 65.5047 25.6 66.1847 25.84C66.8647 26.12 68.3047 26.36 68.9847 26.16ZM86.8016 21.48C86.5616 21.36 86.4016 21.44 86.2416 21.64C85.9216 22 85.8016 22.16 85.6416 22.44C85.3216 23.12 84.9616 23.28 84.3616 23.68C84.1616 23.8 83.9616 24.04 83.7216 24.24C83.2816 24.68 83.0416 24.88 82.6816 25.04C82.4816 25.12 82.3616 25.2 82.2016 25.24C80.9216 25.8 80.5616 25.08 80.2416 24.24V23.32C80.2416 22.72 80.2416 22.44 80.3216 22.08C80.4416 21.76 80.6016 21.36 80.5616 20.8L80.4416 20.16C80.4016 19.96 80.3616 19.84 80.2016 19.76C79.8416 19.52 79.5216 19.48 79.0416 19.6C78.3216 19.88 78.0016 20.04 77.6816 20.44C77.5216 20.6 77.3216 20.8 77.1216 20.96C76.5216 21.56 76.3216 21.8 75.9216 22.12C75.9616 22.08 75.6416 22.08 75.5216 22C75.5216 22 75.4416 21.88 75.4416 21.84C75.4016 21.32 75.4816 20.92 75.7216 20.48C75.8816 20.2 76.0416 19.92 76.1216 19.56C76.2016 19.08 76.2016 19.12 76.4816 18.76C76.4416 18.36 76.5216 18.08 76.8416 17.44C76.9616 17.28 76.9616 17.2 77.0016 17.12C77.0816 16.96 77.5216 15.84 77.5616 15.64C77.6816 15.32 77.7616 15 77.8816 14.72C78.0416 14.16 78.2016 13.64 78.4416 13C78.7216 12.36 78.7616 11.52 78.5616 11C78.6016 10.88 78.5616 10.8 78.4016 10.76C78.1216 10.68 78.0416 10.76 77.9216 10.92C77.8816 11.08 77.8016 11.24 77.7216 11.4C77.4816 11.88 77.2816 12.28 77.2416 12.76C77.1616 13.12 77.0416 13.48 76.9216 13.84C76.8016 14.2 76.6816 14.52 76.6016 14.96C76.5616 15.2 76.4416 15.52 76.3216 15.8C76.1616 16.2 76.0016 16.6 76.0416 17.08C76.0416 17.16 76.0016 17.24 75.8816 17.4C75.8416 17.48 75.8016 17.52 75.8016 17.56C75.6416 17.76 75.5616 17.88 75.5616 18C75.6016 18.24 75.5216 18.44 75.3216 18.84L75.2016 19.16C75.1616 19.24 75.0816 19.36 75.0416 19.48C74.8416 19.84 74.8016 20.08 74.8816 20.32C74.9616 20.44 74.8816 20.6 74.7616 20.84L74.6816 20.92C74.3616 21.44 74.2416 21.92 74.2416 22.36C74.2416 22.48 74.2016 22.64 74.1616 22.8C73.8816 23.4 73.7216 24.12 73.5616 24.8L73.2416 25.96C73.2016 26.12 73.3216 26.4 73.4816 26.44C73.8416 26.56 74.1216 26.48 74.3216 26.16C74.3616 26.12 74.4016 26 74.4816 25.92C74.6816 25.56 74.8016 25.4 74.9616 25.16C75.4416 24.36 76.0816 23.52 76.6816 22.72C77.0016 22.32 77.1216 22.16 77.2816 21.92C77.7216 21.36 78.3616 20.96 78.9616 20.56C79.1616 20.44 79.6016 20.52 79.6816 20.76C79.8416 21 79.8416 21.24 79.8016 21.6V21.64L79.4416 22.64C79.0816 23.8 79.4416 25.2 80.3616 25.8C80.5216 25.92 80.6016 25.92 80.9216 26.08C81.4816 26.44 82.1616 26.4 82.7616 26C83.2816 25.72 83.6816 25.4 84.1216 25.04C84.4016 24.8 84.5216 24.68 84.7216 24.56C85.0016 24.36 85.1616 24.24 85.2416 24.12C85.4416 23.68 85.6816 23.44 85.9616 23.16C86.1216 23.04 86.2016 23 86.2816 22.88C86.6416 22.56 86.8416 22.2 86.9216 21.84C86.9616 21.72 86.9216 21.6 86.8016 21.48ZM98.7547 21.64C98.5547 21.48 98.3947 21.44 98.3147 21.56C98.2747 21.6 98.1947 21.68 98.1547 21.76C98.0747 21.84 98.0347 21.88 97.9947 21.96C97.8347 22.16 97.6747 22.4 97.5547 22.64C97.4347 22.88 97.3547 22.92 97.2747 23.08C97.0747 23.4 96.7947 23.6 96.5147 23.8L96.0347 24.28C95.1947 25.16 94.3147 25.24 93.7947 25.32C93.5547 25.4 93.3147 25.44 93.0347 25.48C92.4747 25.4 91.9947 25.08 91.7947 24.68C91.3547 24.04 91.2747 23.36 91.4747 22.56C91.5547 22.4 91.5147 22.2 91.4747 21.8C91.4747 21.68 91.2747 21.52 91.1947 21.56C90.8747 21.68 90.7147 21.8 90.5947 22C90.5547 22.12 90.4747 22.28 90.3947 22.4L90.2347 22.8C89.9947 23.36 89.7147 23.64 89.4347 23.84C89.1947 24.04 89.0347 24.2 88.8347 24.52C88.5947 24.84 88.1947 25.04 87.7947 25.24C87.4347 25.4 86.8347 25.12 86.7947 24.76C86.7947 24.64 86.7547 24.56 86.7547 24.48C86.7147 24.28 86.6747 24.16 86.6747 24.04C86.6747 23.84 86.7147 23.68 86.7147 23.52C86.7147 22.96 86.7547 22.6 87.2347 21.92C87.2747 21.84 87.3147 21.72 87.3147 21.6C87.3147 21.36 87.3947 21.24 87.6747 20.88C87.7947 20.76 87.7947 20.72 87.8747 20.6C88.0347 20.32 88.2347 20.12 88.4347 19.96C88.6347 19.8 88.7147 19.72 88.8347 19.56C89.1547 19.2 89.6347 19 90.2747 19C90.8747 19.04 91.1547 19.2 91.3147 19.64C91.3147 19.76 91.3547 19.8 91.4347 19.88C91.5547 20.04 91.5947 20.12 91.6347 20.24C91.6747 20.48 91.8747 20.6 92.1147 20.56C92.2747 20.52 92.4347 20.36 92.4747 20.12C92.4747 19.92 92.4347 19.84 92.3547 19.68C92.3147 19.6 92.2347 19.52 92.2347 19.44C91.8347 18.6 91.2347 18.16 90.1547 18C89.8347 17.96 89.6347 18 89.3147 18.24C89.2347 18.36 89.0347 18.44 88.9147 18.48C88.6347 18.64 88.5947 18.68 88.4747 18.84C87.8347 19.16 87.5947 19.32 87.2347 19.88C86.9547 20.48 86.6347 21 86.3147 21.52C86.1947 21.68 86.1947 21.8 86.2347 21.8C86.2747 22.12 86.1947 22.36 85.9947 22.88L85.8747 23.28C85.7547 23.64 85.7547 23.84 85.7947 24.2C85.7947 24.36 85.8347 24.56 85.8347 24.8C85.7947 25.12 85.9147 25.32 86.2347 25.56C86.9547 26.12 87.5547 26.16 88.3147 25.68C88.4747 25.64 88.6347 25.52 88.7947 25.4C88.8747 25.32 88.9147 25.32 88.9947 25.28L89.5547 24.84C89.8747 24.6 89.9947 24.52 90.1547 24.36C90.3147 24.32 90.6347 24.36 90.6747 24.44C90.7547 24.52 90.8347 24.64 90.8747 24.72C91.5147 25.68 91.8747 26.04 92.9147 26.2C92.9947 26.2 93.0747 26.2 93.1947 26.24H93.5947C93.8347 26.2 94.0747 26.12 94.2747 26.12C94.7947 26 95.1147 25.96 95.8347 25.48C95.8747 25.48 95.9947 25.44 96.0347 25.4C96.5147 25.12 96.7547 24.92 97.0747 24.48L98.4747 22.56C98.5147 22.56 98.5547 22.44 98.6747 22.2L98.7147 22.16C98.7147 22.12 98.7147 22.08 98.7547 22.04C98.8347 21.88 98.8347 21.72 98.7547 21.64ZM106.391 26.08C106.711 26.16 106.551 26.16 107.031 25.92C107.191 25.8 107.431 25.72 107.631 25.68C107.871 25.68 108.231 25.48 108.551 25.28L108.831 25.12C108.991 25.04 109.111 24.96 109.271 24.76C109.431 24.56 109.551 24.44 109.791 24.32C110.311 24.04 110.591 23.64 110.831 23.28C111.071 22.88 111.231 22.72 111.511 22.48C111.511 22.44 111.751 21.8 111.751 21.72C111.711 21.6 111.671 21.52 111.511 21.48C111.431 21.48 111.391 21.48 111.231 21.64C111.151 21.68 111.111 21.72 111.071 21.72C110.591 22.6 110.191 23.12 109.631 23.56C108.871 24.24 108.431 24.6 107.471 25.04C106.511 25.48 105.871 25.64 105.151 25.04C104.711 24.8 104.591 24.72 104.591 24.4C104.591 23.4 104.511 22.44 105.111 21.44C105.151 21.4 105.151 21.32 105.191 21.16C105.231 21 105.271 20.96 105.271 20.88C105.431 20.52 105.391 20.08 104.991 19.48C104.871 19.28 104.671 19.16 104.511 19.24C103.871 19.28 103.231 19.64 102.591 19.96C102.111 20.24 101.911 20.36 101.631 20.48L101.551 20.6L100.871 21.12C100.471 21.44 100.311 21.56 100.111 21.68C99.8706 21.84 99.5906 21.92 99.2706 22.04C98.9906 21.72 98.9906 21.6 99.2706 21.2C99.3106 21.16 99.3106 21.16 99.3106 21.12C99.3906 20.96 99.4706 20.68 99.5506 20.48C99.7506 19.8 99.8706 19.48 100.071 19.12C100.151 18.92 100.111 18.8 99.8706 18.56C99.6306 18.32 99.4706 18.32 99.3106 18.56C98.8306 19.2 98.6306 19.72 98.6306 20.4C98.6306 20.6 98.5506 20.72 98.3506 21.08C98.1106 21.52 97.9906 22.08 97.8306 22.72C97.7906 22.88 97.7506 23.08 97.7506 23.28C97.6706 23.92 97.6306 24.16 97.4306 24.44C97.3106 24.6 97.2306 24.92 97.2706 25.2C97.3506 25.44 97.6306 25.64 97.7906 25.56C97.9506 25.52 98.1106 25.32 98.2306 25.08C98.3906 24.88 98.4306 24.8 98.5506 24.68C98.7906 24.48 99.0306 24.12 99.2706 23.8C99.6306 23.24 99.8706 23 100.191 22.76C100.431 22.6 100.671 22.32 100.911 22.08C101.111 21.88 101.191 21.8 101.351 21.68C101.511 21.48 101.831 21.32 102.111 21.24C102.431 21.12 102.551 21.04 102.711 20.92C102.911 20.68 103.271 20.52 103.591 20.36C103.711 20.24 103.991 20.24 104.231 20.36C104.431 20.44 104.511 20.6 104.431 20.84L103.951 22.08C103.791 22.48 103.631 22.96 103.511 23.44C103.431 23.64 103.431 23.96 103.511 24.16C103.831 25 104.191 25.72 105.071 25.96C105.511 26.08 105.671 26.08 106.391 26.08Z" fill="white"/>
</svg>
