<?xml version="1.0" encoding="utf-8"?>
<!-- Generator: Adobe Illustrator 22.1.0, SVG Export Plug-In . SVG Version: 6.00 Build 0)  -->
<svg version="1.1" id="Layer_1" xmlns="http://www.w3.org/2000/svg" xmlns:xlink="http://www.w3.org/1999/xlink" x="0px" y="0px"
	 viewBox="0 0 1887 1000" style="enable-background:new 0 0 1887 1000;" xml:space="preserve">
<style type="text/css">
	.st0{display:none;}
	.st1{display:inline;}
	.st2{enable-background:new    ;}
	.st3{fill:#EAEAEA;}
</style>
<g id="Layer_1_1_" class="st0">
	<g id="U__S__E__R" class="st1">
		<g class="st2">
			<path class="st3" d="M566.2,379.7c0-0.7,0.3-1,0.9-1h0.3c0.7,0,1,0.4,1,1v16.7c0,6.5,2.9,9.9,8.8,9.9c5.9,0,8.8-3.3,8.8-9.9
				v-16.7c0-0.7,0.3-1,1-1h0.4c0.6,0,0.9,0.3,0.9,1v16.8c0,7.7-3.9,11.9-11.2,11.9c-7.2,0-11-4-11-11.8L566.2,379.7L566.2,379.7z"/>
			<path class="st3" d="M609.1,402.6c0-1,1.3-1.5,1.4-1.4c1.2,2.5,4,5.2,9,5.2c4.8,0,7.7-2.3,7.7-5.9c0-4.2-4-5.3-8.4-6.3
				c-4.5-1.1-9-2.4-9-8c0-4.6,4.1-7.8,9.5-7.8c3.9,0,6.7,1.3,8.1,2.8c0.9,0.9,1.3,1.8,1.3,2.3c0,1-1.3,1.5-1.4,1.4
				c-1.1-2.4-3.8-4.6-8-4.6s-7.2,2.3-7.2,5.8c0,4,3.4,4.9,7.9,5.9c4.7,1.1,9.4,2.7,9.4,8.3c0,4.8-3.9,8-9.9,8c-4.3,0-7.3-1.5-9-3.2
				C609.5,404.2,609.1,403.2,609.1,402.6z"/>
			<path class="st3" d="M650.8,406.5v-26.3c0-0.8,0.5-1.4,1.3-1.4h17.4c0.7,0,1.1,0.3,1.1,0.9v0.2c0,0.7-0.4,0.9-1.1,0.9h-16.4v11.1
				h12.7c0.7,0,1.1,0.3,1.1,0.9v0.1c0,0.6-0.4,0.9-1.1,0.9h-12.7v11.8h16.8c0.7,0,1.1,0.3,1.1,0.9v0.2c0,0.6-0.4,0.9-1.1,0.9h-17.8
				C651.3,407.9,650.8,407.4,650.8,406.5z"/>
			<path class="st3" d="M691.9,407v-26.8c0-0.8,0.5-1.4,1.3-1.4h7.9c6.8,0,10.5,2.9,10.5,8.3s-3.7,8.4-9.9,8.4h-1l10.8,11.5
				c0.1,0.2-0.4,1.1-1.4,1.1c-0.4,0-0.9-0.2-1.4-0.8l-10.9-11.8h-3.6v11.6c0,0.6-0.3,1-1,1h-0.3C692.2,408.1,691.9,407.7,691.9,407z
				 M701.3,393.5c5.3,0,7.9-2.5,7.9-6.3c0-4.1-2.7-6.3-8-6.3h-7v12.6L701.3,393.5L701.3,393.5z"/>
		</g>
	</g>
	<g id="D__E__S__I__G__N" class="st1">
		<g class="st2">
			<path class="st3" d="M1099.7,638.2c0-0.8,0.5-1.4,1.3-1.4h6.9c10,0,15.8,5.4,15.8,14.5s-6,14.6-16.1,14.6h-6.7
				c-0.8,0-1.3-0.6-1.3-1.4L1099.7,638.2L1099.7,638.2z M1121.3,651.4c0-7.8-5-12.5-13.5-12.5h-5.9V664h5.8
				C1116.4,663.9,1121.3,659.2,1121.3,651.4z"/>
			<path class="st3" d="M1145.3,664.5v-26.3c0-0.8,0.5-1.4,1.3-1.4h17.4c0.7,0,1.1,0.3,1.1,0.9v0.2c0,0.7-0.5,0.9-1.1,0.9h-16.4
				v11.1h12.7c0.7,0,1.1,0.3,1.1,0.9v0.1c0,0.6-0.4,0.9-1.1,0.9h-12.7v11.8h16.8c0.7,0,1.1,0.3,1.1,0.9v0.2c0,0.6-0.4,0.9-1.1,0.9
				h-17.8C1145.8,665.9,1145.3,665.4,1145.3,664.5z"/>
			<path class="st3" d="M1184.7,660.6c0-1,1.3-1.5,1.4-1.4c1.2,2.5,4,5.2,9,5.2c4.8,0,7.7-2.3,7.7-5.9c0-4.2-4-5.3-8.4-6.3
				c-4.5-1.1-9-2.4-9-8c0-4.6,4.1-7.8,9.5-7.8c3.9,0,6.7,1.3,8.1,2.8c0.9,0.9,1.3,1.8,1.3,2.3c0,1-1.3,1.5-1.4,1.4
				c-1.1-2.4-3.8-4.6-8-4.6s-7.2,2.3-7.2,5.8c0,4,3.4,4.9,7.9,5.9c4.7,1.1,9.5,2.7,9.5,8.3c0,4.8-3.9,8-9.9,8c-4.3,0-7.3-1.5-9-3.2
				C1185.1,662.2,1184.7,661.2,1184.7,660.6z"/>
			<path class="st3" d="M1226.8,637.7c0-0.7,0.3-1,0.9-1h0.3c0.7,0,1,0.4,1,1V665c0,0.7-0.4,1-1,1h-0.3c-0.6,0-0.9-0.4-0.9-1V637.7z
				"/>
			<path class="st3" d="M1276.9,653.3v12.5c0,0-0.3,0.2-0.7,0.2c-0.8,0-1.3-0.4-1.3-2.2v-3.6c-1.6,3.7-5.5,6.1-10.6,6.1
				c-8.4,0-13.6-6.3-13.6-14.9c0-8.8,5.8-15.1,14.3-15.1c4.4,0,7.5,1.7,9.1,3.3c1.1,1.1,1.6,2.2,1.6,2.7c0,1.3-1.3,1.4-1.4,1.3
				c-1.4-3-4.9-5.4-9.4-5.4c-7.1,0-11.9,5.4-11.9,13c0,7.5,4.3,13,11.6,13c5.7,0,9.9-3.7,10.3-8.8v-2h-8.9c-0.9,0-1.3-0.3-1.3-0.9
				v-0.2c0-0.6,0.4-0.9,1.3-0.9h9.3C1276.2,651.6,1276.9,652.3,1276.9,653.3z"/>
			<path class="st3" d="M1299,665v-26.8c0-0.9,0.4-1.5,1.2-1.5h0.6c0.8,0,1.2,0.5,1.8,1.2l17.5,24.5v-24.7c0-0.7,0.3-1,0.9-1h0.3
				c0.6,0,0.9,0.3,0.9,1v26.9c0,0.9-0.5,1.5-1.2,1.5h-0.2c-0.9,0-1.1-0.3-1.5-0.9l-18.1-25.4v25.3c0,0.7-0.3,1-1,1h-0.3
				C1299.2,666.1,1299,665.7,1299,665z"/>
		</g>
	</g>
</g>
<g id="Layer_2_1_">
	<g>
		
			<image style="overflow:visible;opacity:0.75;enable-background:new    ;" width="547" height="320" xlink:href="7130FF82AC2B5B3A.png"  transform="matrix(1 0 0 1 670 350)">
		</image>
		<g>
			<g class="st2">
				<path class="st3" d="M733,519.5c1.7,0,4.2,0.6,4.2,2.8c0,0.6-0.3,1.1-0.3,1.7c-2.8,13.4-15.1,35.3-30.8,35.3
					c-5.9,0-10.9-3.9-14-8.4c2.8,6.4,9,10.1,16,10.1c3.9,0,7.3-2,10.9-3.4c-3.4,2.2-8.1,4.2-12.3,4.2c-17.1,0-21.3-16-21.3-30
					c0-16.8,10.9-45.4,31.1-45.4c1.7,0,3.6,0.3,5.3,0.8c-1.4-0.6-2.8-0.6-4.2-0.6c-11.8,0-20.4,9.5-24.9,19.6c5-7.6,11.5-16,21.6-16
					c-6.7,1.1-11.8,3.9-16,9.2c3.9-4.2,9.5-7.6,15.7-7.6c7.3,0,12.9,3.6,12.9,11.5c0,10.6-10.4,23.5-21.6,23.5
					c-1.4,0-2.8-0.3-3.9-0.8c-0.6,2.5-0.6,5.3-0.6,7.8c0,2.5,0.3,5,0.6,7.6c-1.1-3.1-1.1-6.4-1.1-9.8c0-7.3,2.2-18.8,5.9-24.9
					c-5.9,3.6-8.1,20.4-8.1,27.2c0,3.6,0.8,12.6,5,14c-3.1-3.1-3.9-10.1-3.9-14.3c0-5.6,0.6-11.8,2.5-17.1
					c-1.1,4.8-1.7,9.5-1.7,14.6c0,5.9,0.6,18.2,8.7,18.2c10.6,0,22.4-20.7,23.8-30H733z M694.6,529.9c0,3.9,0.6,8.4,1.7,12
					c-0.6-4.2-0.8-8.4-0.8-12.6c0-9.5,5.9-29.7,17.6-29.7c-2.8,2.2-9.2,12.3-9.2,16v-0.3c-0.8,2-1.1,4.2-1.7,6.4
					c0.3,0.3,0.8,0.3,1.1,0.3c5.3,0,14-14.3,14-19.3c0-3.1-2.2-4.2-5-4.2c-3.4,0-6.4,2-8.7,4.2c-7.3,7-9.8,17.1-9.8,26.9
					c0,2.5,0,5.3,0.6,7.6c-0.3-2-0.3-3.9-0.3-5.6c0-8.1,2-17.1,6.2-23.8C697.4,514.8,694.6,522,694.6,529.9z M696.8,501.3l1.4-1.7
					L696.8,501.3z M725.4,503.6c0-2.8-1.1-7.8-4.2-8.7c2.2,2.2,3.4,6.4,3.4,9.5c0,9.2-6.4,16.8-14.6,20.4c-1.4,0.6-2.8,0.8-4.2,1.4
					C717,524,725.4,515.3,725.4,503.6z"/>
				<path class="st3" d="M753.7,546.1c3.6,10.4,11.5,24.9,23.5,26.3c-15.7,0-21.6-18.2-26.9-30c-3.6,8.7-9,25.5-7,34.7
					c-6.2,0-9.5-4.5-9.5-10.4c0-10.4,8.1-25.2,13.4-34.2c-7,10.1-15.7,24.4-15.7,37c0,2.8,0.3,5.9,1.4,8.4c-1.7-2.2-2.2-5.9-2.2-8.7
					c0-12.9,8.7-27.4,16-37.8c-1.7-5.6-3.1-11.2-4.2-17.1c-0.6,1.4-4.2,7.6-5.6,7.6c-1.7,0-3.6-1.7-4.8-3.1
					c1.7-6.4,6.7-22.1,6.7-27.7c0-4.8-2.5-9.2-2.5-14c0-5.6,14.6-8.4,18.8-8.4c3.4,0,4.2,1.7,4.2,4.8c0,4.5-2.8,11.2-4.5,15.4
					c1.4,8.1,3.1,16,4.8,24.1c4.8-7.3,18.8-28.3,20.7-35.6c4.8,1.1,5.9,4.8,5.9,9.2c0,3.1-20.7,28.8-24.4,35c1.7,5.9,8.1,33,14.8,33
					c7,0,12-30.5,12.9-36.4c2,0,4.2,0,6.2,0.6c0.3,0.6,0.3,1.1,0.3,1.7c0,11.2-7.3,45.6-21.8,45.6
					C764.3,566.3,757.3,553.7,753.7,546.1z M773.3,564.6c0.8,0,1.7,0,2.5-0.3c-4.5,0.6-9.5-2.8-12-6.4c2.5,2.8,7.3,5.3,11.2,5.3
					c2.5,0,4.8-1.4,6.4-3.1c-2,1.1-4.2,2-6.4,2c-15.4,0-24.9-38.4-28.6-50.4c3.1,15.7,8.4,30.8,15.7,45.1c-9-8.7-17.6-45.4-21-58.5
					C744.2,512.5,755.1,564.6,773.3,564.6z M746.4,511.7v-0.6V511.7z M759.8,514.5l0.8-1.4C760.4,513.6,760.1,513.9,759.8,514.5z
					 M760.7,513.1l20.2-28.6l-17.9,26.3l18.5-24.9c-2,3.1-3.6,6.2-5.6,9.2c2-2.5,7-9.2,7-12c0-1.1-0.6-2.2-1.7-2.8
					C779.4,486.2,764.9,506.9,760.7,513.1z M775.8,495.4c-0.3,0.3-0.3,0.3-0.3,0.6L775.8,495.4z M781.4,485.9c0-0.3,0-0.3,0.3-0.6
					L781.4,485.9z"/>
				<path class="st3" d="M860.1,524c0,6.4-22.7,26-28.6,29.7c-3.1,5-9.5,17.6-16.2,17.6c-3.4,0-7.3-2-10.4-3.6v1.1
					c0,12.3,3.6,35,7.3,46.8c-7.6-8.1-10.6-54-10.6-66.6c0-21,1.4-42.3,4.5-63c-7.8,6.4-8.1,60.5-7.8,72.2c-0.3-6.2-0.6-12-0.6-18.2
					c0-12.9,1.1-25.5,2.2-38.4c-2.5,12.3-3.4,24.6-3.4,37.2c0,19.3,1.4,38.4,3.9,57.4c-0.8-18.5-1.7-37-1.7-55.4
					c0-13.7,1.4-27.4,3.6-41.2c-1.7,14.6-2.2,29.4-2.2,44.2c0,16.5,2.2,59.6,8.7,73.4c-1.1,0.6-2.5,0.6-3.6,0.6
					c-5.9,0-10.1-4.8-12.6-9.5c-5-9.5-5.3-41.7-5-53.2c-0.6,7-0.8,14-0.8,21c0,11.5,1.1,23,2.8,34.2c-3.4-11.5-4.2-23.5-4.2-35.3
					c0-12.3,4.2-93,11.2-94.6c1.4-0.3,2.8-0.3,4.2-0.3c5.3,0,9,2,9,7.8c0,6.2-1.4,12-2.2,17.9c4.2-11.5,9.8-29.7,24.9-29.7
					c11.8,0,15.7,12.6,15.7,22.4c0,1.4,0,3.1-0.3,4.5c0-9.5-2.5-25.5-15.1-25.5c-3.9,0-9.8,2.5-11.8,6.2c3.4-3.1,6.4-4.2,10.9-4.2
					c12.9,0,13.4,14.8,13.4,24.4c0,12-2.8,23.5-7,34.7c5.3-4.8,15.4-12.6,17.4-19.6C857.8,519.5,860.1,521.5,860.1,524z M819.7,547
					c4.2-16.5,7.6-32.8,7.6-50.1c0-1.7,0-6.7-2.5-6.7c-5.6,0-13.7,20.2-15.4,25.2c-4.5,14-4.8,28-4.8,42.6
					C808,553.1,814.1,548.6,819.7,547z M807.7,505.5c0,0.3,0,0.6-0.3,0.8v-0.6L807.7,505.5z M816.1,565.2
					c7.3-3.6,10.9-13.7,12.9-21.3c-3.4,7-6.2,15.1-12.9,19.6c2.2-1.4,4.2-3.4,6.2-5.3c-2.5,3.9-6.4,7-10.9,8.7
					c19.9,0,26-38.1,28.3-52.9C837.1,526.5,829.5,561.2,816.1,565.2z M815.5,564c-0.6,0.3-0.8,0.3-1.4,0.6
					C814.7,564.3,815,564.3,815.5,564z M816.1,563.5c-0.3,0.3-0.6,0.3-0.6,0.6C815.5,563.8,815.8,563.8,816.1,563.5z"/>
				<path class="st3" d="M897,473.6c0-10.9,5.6-22.7,17.1-24.9c-8.4,3.4-14.8,11.5-14.8,20.7c0,1.4,0,2.8,0.3,4.2
					c0.8-7,5.3-17.6,13.7-17.6c8.4,0,10.4,9.5,10.4,16.2s-1.1,13.4-2.5,20.2c7,3.1,19.6,11.8,19.6,20.4c0,16.8-9,33-9,49.8
					c0,1.4,0.3,3.9,2.2,3.9c9.5,0,20.7-41.4,22.4-47.9c0.6-0.6,1.4-0.8,2-0.8c1.4,0,2.2,1.1,2.8,2.2c-3.1,16.8-9.5,56.6-32.5,56.6
					c-9,0-12.6-9.2-12.6-17.1c0-4.8,1.7-10.4,2.5-15.1c2.2-10.4,4.8-20.7,7.3-31.1c-3.9,12-12,38.4-12,50.7c0,6.4,2.2,16.5,9,19.3
					c-7.8-2.5-10.1-13.2-10.1-20.2c0-10.9,5.9-29.7,9-40.6c1.4-5,3.6-11.2,3.6-16.2c0-2.2-3.6-5.6-5.9-5.3
					c-5.9,20.7-16.5,59.9-43.7,59.9c-5.3,0-11.2-3.6-14.8-7.3c3.6,5.6,9.2,8.4,16,8.4c4.5,0,8.7-1.4,12.6-3.1
					c-3.6,2.5-8.4,3.9-12.9,3.9c-18.5,0-23-15.4-23-31.1c0-18.2,10.9-51.5,33-51.5c1.1,0,2.5,0,3.6,0.3c-14.8,0-23.5,9.2-28.8,22.4
					c5-8.4,12-18.2,23-18.2c-7.3,1.1-12.6,4.5-16.8,10.4c4.2-5,9.8-8.4,16.5-8.4c8.1,0,13.7,4.5,13.7,12.9c0,11.5-10.6,26.9-23,26.9
					c-1.4,0-2.8-0.3-4.2-0.8c-0.6,2.8-0.6,5.9-0.6,8.7c0,2.8,0.3,5.9,0.6,8.7c-1.1-3.6-1.4-7.6-1.4-11.2c0-8.1,2.5-21.3,6.4-28.3
					c-6.2,4.5-8.7,23.5-8.7,30.8c0,3.9,0.8,14.3,5.3,16c-3.4-3.6-4.2-11.5-4.2-16.2c0-6.2,0.6-12.9,2.5-18.8
					c-1.1,5.3-1.7,10.6-1.7,16c0,6.2,0.3,20.7,9.2,20.7c18.2,0,30.2-38.4,33.6-52.9C902.6,493.5,897,484.5,897,473.6z M863.4,529.9
					c0,4.2,0.6,9.5,2,13.4c-0.8-4.8-1.1-9.5-1.1-14.3c0-8.7,6.4-33.9,17.6-33.9c0.3,0,0.8,0.3,1.1,0.3c-2.8,2.5-9.8,14.3-9.8,17.9
					v-0.3c-0.8,2.5-1.1,5-1.7,7.6c0.3,0.3,0.8,0.3,1.1,0.3c5.9,0,14.8-16.8,14.8-22.1c0-3.4-2.2-4.8-5.3-4.8c-3.6,0-6.7,2.2-9.2,4.8
					c-7.6,7.6-10.4,20.2-10.4,30.5c0,2.8,0,5.9,0.6,8.7c-0.3-2.2-0.3-4.2-0.3-6.4c0-8.7,2-19.3,6.7-26.9
					C866.5,512.8,863.4,521.2,863.4,529.9z M896.2,499.9c0-3.1-1.1-9-4.5-10.1c2.5,2.5,3.6,7.3,3.6,10.9c0,9.5-6.4,19.6-15.4,23.2
					c-1.4,0.6-3.1,0.8-4.5,1.7C887.8,523.2,896.2,512.5,896.2,499.9z M890.3,480.6c0.6,0,1.1,0.3,1.7,0.6L890.3,480.6z M900.7,476.7
					c0,7.3,6.4,16,12.6,19.6c-5.3-4.8-11.2-13.2-11.2-20.7c0-3.1,0.8-6.4,2-9.2C902.1,469.1,900.7,473.3,900.7,476.7z M919.1,473.3
					c0,14.8-5.3,28.8-8.4,43.1v0.3c2.5-7.8,10.4-35.6,9.2-42c0.6,0.3,0.6,3.1,0.6,3.1c0,7.8-3.6,27.2-6.7,34.4
					c3.9-8.1,7.8-27.2,7.8-35.8c0-3.4-0.8-11.2-3.6-13.7C919.1,466,919.1,470,919.1,473.3z M914.7,463.5c-2.8,1.4-3.1,8.4-3.1,11.2
					c0,4.2,0.6,8.7,2,12.6c1.1-5.9,2-11.8,2-17.9C915.5,468,915.5,464.6,914.7,463.5z M930.1,574.7c3.1,0,6.7-1.4,8.7-3.6
					c-2,2-5,3.1-7.8,3.1c-8.4,0-9.8-7.8-9.8-14.6c0-11.2,5-25.8,7.3-37c-3.1,8.4-8.7,29.1-8.7,37.5c0,3.6,0.6,7.3,2.2,10.6
					c-2.5-2-3.1-8.7-3.1-11.8c0-14,7.3-31.9,10.1-45.9c-3.4,12.3-10.9,34.2-10.9,46.2C918,567.7,920.3,574.7,930.1,574.7z"/>
				<path class="st3" d="M955,548.4c-0.3,2.5-0.3,5-0.3,7.6c0,8.7,1.7,19,12.6,19h-1.4c-11.2,0-13.2-11.8-13.2-20.4
					c0-11.5,2-22.7,4.5-33.9l-1.4-1.4l5.9-23c1.7-0.3,3.6-0.3,5.3-0.3c1.4,0,3.1,0,4.5,0.3c-1.4,13.7-3.1,27.7-4.8,41.4
					c-0.3,1.4-0.3,2.8-0.3,4.2c1.4-13.4,3.9-26.9,6.4-40.3c0,13.4-4.2,26.9-4.8,40.3c0.3-0.6,0.3-0.8,0.3-1.4
					c0.8-14.8,3.9-29.4,7-44c-1.4,9.2-2.5,18.5-3.6,27.7c-0.8,8.4-2.8,17.4-2.8,25.8c0.6-2.2,0.6-4.5,0.8-6.7
					c1.7-15.1,3.9-30,6.2-45.1c0.3,0.3,0.6,0.6,0.6,1.1c0,7.3-0.6,14.8-1.4,22.1c-1.4,12.3-4.2,24.9-4.2,37.5c0,0.6,0,3.4,0.8,3.4
					c5,0,17.4-37.2,19.6-43.4c2,1.1,3.9,2,5.6,3.1c-4.5,13.4-12.3,49-30.5,49C955.3,571,955,556.5,955,548.4z M963.7,479.5
					c0-5,1.1-10.1,2.2-15.1c2-0.6,4.2-0.6,6.2-0.6c4.2,0,7.8,0.6,7.8,5.6c0,4.8-2.2,12.6-3.9,17.1c0.6-2,2.5-10.9,2.5-12.9v-2.8
					c-0.3,3.6-1.4,7-2.8,10.4c0.8-3.9,1.7-7.8,1.7-11.8c0-1.4-0.3-2.8-1.4-3.9c-0.8,5-2,10.1-2,15.4v2.5l2.2-15.7
					c-0.3,6.4-1.4,12.6-2,19C968.4,486.8,963.7,486.8,963.7,479.5z M965.9,569.6c-0.3,0.3-0.6,0.3-0.8,0.3
					C965.3,569.9,965.6,569.9,965.9,569.6z M965.9,569.6c3.4-0.6,6.2-2,9.2-3.4c-2,1.7-4.2,3.1-6.7,3.6
					c12.3-2.8,19.3-19.6,21.8-30.8c-2.5,8.1-7.6,21.6-14.6,26.6c7.3-9,10.4-17.1,14-28C985.5,549.2,979.1,566.3,965.9,569.6z
					 M968.1,542.2c-0.3,2.8-0.6,5.6-0.6,8.4c0,1.7,0.3,3.4,0.6,5C967.6,551.4,967.9,546.4,968.1,542.2z M990.5,534.9l-0.8,2.8
					L990.5,534.9z"/>
				<path class="st3" d="M1036.7,519.5c1.7,0,4.2,0.6,4.2,2.8c0,0.6-0.3,1.1-0.3,1.7c-2.8,13.4-15.1,35.3-30.8,35.3
					c-5.9,0-10.9-3.9-14-8.4c2.8,6.4,9,10.1,16,10.1c3.9,0,7.3-2,10.9-3.4c-3.4,2.2-8.1,4.2-12.3,4.2c-17.1,0-21.3-16-21.3-30
					c0-16.8,10.9-45.4,31.1-45.4c1.7,0,3.6,0.3,5.3,0.8c-1.4-0.6-2.8-0.6-4.2-0.6c-11.8,0-20.4,9.5-24.9,19.6c5-7.6,11.5-16,21.6-16
					c-6.7,1.1-11.8,3.9-16,9.2c3.9-4.2,9.5-7.6,15.7-7.6c7.3,0,12.9,3.6,12.9,11.5c0,10.6-10.4,23.5-21.6,23.5
					c-1.4,0-2.8-0.3-3.9-0.8c-0.6,2.5-0.6,5.3-0.6,7.8c0,2.5,0.3,5,0.6,7.6c-1.1-3.1-1.1-6.4-1.1-9.8c0-7.3,2.2-18.8,5.9-24.9
					c-5.9,3.6-8.1,20.4-8.1,27.2c0,3.6,0.8,12.6,5,14c-3.1-3.1-3.9-10.1-3.9-14.3c0-5.6,0.6-11.8,2.5-17.1
					c-1.1,4.8-1.7,9.5-1.7,14.6c0,5.9,0.6,18.2,8.7,18.2c10.6,0,22.4-20.7,23.8-30H1036.7z M998.4,529.9c0,3.9,0.6,8.4,1.7,12
					c-0.6-4.2-0.8-8.4-0.8-12.6c0-9.5,5.9-29.7,17.6-29.7c-2.8,2.2-9.2,12.3-9.2,16v-0.3c-0.8,2-1.1,4.2-1.7,6.4
					c0.3,0.3,0.8,0.3,1.1,0.3c5.3,0,14-14.3,14-19.3c0-3.1-2.2-4.2-5-4.2c-3.4,0-6.4,2-8.7,4.2c-7.3,7-9.8,17.1-9.8,26.9
					c0,2.5,0,5.3,0.6,7.6c-0.3-2-0.3-3.9-0.3-5.6c0-8.1,2-17.1,6.2-23.8C1001.2,514.8,998.4,522,998.4,529.9z M1000.6,501.3l1.4-1.7
					L1000.6,501.3z M1029.2,503.6c0-2.8-1.1-7.8-4.2-8.7c2.2,2.2,3.4,6.4,3.4,9.5c0,9.2-6.4,16.8-14.6,20.4
					c-1.4,0.6-2.8,0.8-4.2,1.4C1020.8,524,1029.2,515.3,1029.2,503.6z"/>
				<path class="st3" d="M1098.9,519c2.2,0,4.2,0.8,4.2,3.4c0,1.1-0.3,2-0.6,3.1c-2.5,9.2-10.4,29.7-21.8,29.7
					c-12.3,0-14.3-16.5-14.3-25.8c0-6.2,0.6-12.3,1.1-18.5c-0.6,1.4-1.7,2.2-2.5,3.6c-1.7,2.2-2.8,5.3-3.9,7.8
					c-2.8,6.2-4.2,12.6-6.4,19c-3.1,1.1-6.4,1.7-9.8,1.7c-8.7,0-9-8.7-9-15.1c0-9.2,0.6-18.2,2-27.4h1.7c2.2,0,12,0,12,3.4
					c0,7.3-0.3,14.6-0.6,21.8c3.6-10.4,10.4-34.2,24.1-34.2c0.6,0,1.4,0,2,0.3c-13.4-1.7-21.3,24.6-24.6,34.4
					c2.5-6.4,11.8-27.4,18.5-29.4c1.1-0.3,2.2-0.6,3.4-0.6c3.1,0,11.2,2,11.2,5.9c0,4.2-1.1,8.1-1.4,12.3
					c-0.8,9.2-2.2,18.5-2.2,27.7c0,0.8,0,4.8,1.4,4.8c5.9,0,13.7-22.7,15.4-28H1098.9z M1049.3,522.6c0-5.9,0.3-11.8,0.6-17.6
					c0,2.5,0,5,0,7.6c0,7.6,0.3,14.8,0.8,22.4c-0.3-3.4-0.3-6.7-0.3-10.1v-10.4l0.3,9.5c0-5.6,0-11.2,0-16.8c0-1.7-0.3-3.4-2-4.5
					c0,5.9-0.3,11.8-0.3,17.6c0,2.5,0,17.6,2,18.5C1049.6,533.5,1049.3,527.9,1049.3,522.6z M1088,546.4c-0.8,1.1-2.8,2.5-4.2,2.5
					c-3.1,0-3.1-4.8-3.1-7c0-12.6,1.4-24.9,2.8-37.5c-1.7,13.7-5,28.8-3.4,42.8c-1.4-0.3-1.4-8.7-1.4-10.1c0-9.2,1.4-18.2,2.5-27.2
					c-1.7,10.1-3.1,20.2-3.1,30.5c0,2.8,0,7.8,3.4,9c-7.3,0-7.6-20.2-6.7-25.2c-0.6,3.1-0.6,6.2-0.6,9.2c0,5,0.6,16.5,7.6,16.5
					C1084.1,550,1087.1,548.4,1088,546.4z"/>
				<path class="st3" d="M1155.2,524.8c-4.5,17.6-19,44.2-40.6,40.9c1.7,0.6,3.6,0.8,5.6,0.8c11.2,0,21-8.1,26-17.6
					c-4.5,10.6-15.4,19-27.2,19c-18.2,0-23.5-16-23.5-31.4c0-17.1,11.2-54.3,32.5-54.3c2.8,0,5,1.7,7.8,1.7
					c0.6-2.8,2.2-12.6,3.1-14.6h2.5c4.2,0,8.7,0.6,8.7,5.9c0,11.2-7,23.2-7.8,34.7c-0.6,0.3-1.1,0.6-1.7,0.6c-1.1,0-2-0.3-3.1-0.6
					c-1.4-1.7-1.4-4.2-1.4-6.4c0-9,1.7-17.9,3.4-26.9c-2,8.7-5.3,17.6-5.3,26.9c0,1.7,0.3,3.6,0.8,5.3c-1.7-1.7-1.7-3.6-1.7-5.9
					c0-4.2,0.8-8.4,1.4-12.6c-0.8-0.6-1.7-1.1-2.5-1.1c-2.5,0-4.8,2.5-6.2,4.2c-9.8,12-12.3,31.9-13.7,46.8V538
					c0-13.4,2.8-27.2,8.1-39.5c-6.2,10.9-9.8,26-9.8,38.6c0,4.5,0.3,9.2,2,13.4c-3.9-4.8-4.8-11.5-4.8-17.4c0-9.2,2-18.8,5.6-27.4
					c-4.2,8.4-6.2,17.6-6.2,26.9c0,10.4,2.5,23.2,15.4,23.2c8.4,0,16-9.8,19.6-16.5c3.4-6.4,5.6-13.4,9.5-19.6h0.8
					c1.7,0,2.8,1.1,2.8,2.8C1155.5,523.4,1155.5,524,1155.2,524.8z M1122.7,556.8c3.1,0,5.9-1.4,8.4-3.1c-2.8,1.4-5.9,2.5-9,2.5
					c-1.7,0-3.4-0.6-5-1.1l1.7,0.8c-1.7-0.3-3.1-1.4-4.5-2.2c-7-4.8-7.8-12.6-7.8-20.4c0-5.3,0.6-10.6,2-15.7
					c-1.7,5.9-2.8,11.8-2.8,17.9C1105.6,545.8,1110.9,556.8,1122.7,556.8z M1110.7,552.3l-1.1-1.4L1110.7,552.3z M1110.7,552.3
					l1.7,1.4L1110.7,552.3z M1111.2,508.3c0.8-2.5,1.7-4.8,3.1-7C1113.2,503.6,1112.1,505.8,1111.2,508.3z M1112.6,553.7h-0.3
					c0.6,0.6,1.4,1.1,2.2,1.4L1112.6,553.7z M1114.3,501.3c0-0.3,0.3-0.8,0.6-1.1C1114.6,500.5,1114.3,501,1114.3,501.3z
					 M1145.4,537.7c-4.5,9-12.9,21-24.1,21c-2,0-4.2-0.6-6.2-1.4c1.7,1.1,4.2,1.4,6.2,1.4c7.6,0,14.8-5,18.8-11.5
					c-5,7.6-10.4,12.6-19.9,12.6c0.8,0.3,2,0.3,2.8,0.3c3.1,0,6.7-2,9.5-3.4c-2.2,2.2-5.3,3.4-8.4,3.9
					C1136.1,559.3,1142,548.1,1145.4,537.7z M1139.5,476.7c0.3-2,0.6-3.9,1.1-5.9C1140.1,472.8,1139.8,474.7,1139.5,476.7z
					 M1148.2,477c0,6.2-4.5,21.3-6.2,28l3.6-16.2l-4.5,18.5l0.6,0.3c2.2-7.3,7.3-24.4,7.3-31.6c0-3.6-2.5-5.3-5.9-5.3
					c2.5,1.1,3.1,3.9,3.1,6.4c0,6.2-1.4,12-2.8,17.9c1.4-4.5,3.6-12.6,3.6-17.1c0-1.7,0-5-1.7-6.2
					C1147.3,472.2,1148.2,475,1148.2,477z"/>
				<path class="st3" d="M1197.4,519.5c1.7,0,4.2,0.6,4.2,2.8c0,0.6-0.3,1.1-0.3,1.7c-2.8,13.4-15.1,35.3-30.8,35.3
					c-5.9,0-10.9-3.9-14-8.4c2.8,6.4,9,10.1,16,10.1c3.9,0,7.3-2,10.9-3.4c-3.4,2.2-8.1,4.2-12.3,4.2c-17.1,0-21.3-16-21.3-30
					c0-16.8,10.9-45.4,31.1-45.4c1.7,0,3.6,0.3,5.3,0.8c-1.4-0.6-2.8-0.6-4.2-0.6c-11.8,0-20.4,9.5-24.9,19.6c5-7.6,11.5-16,21.6-16
					c-6.7,1.1-11.8,3.9-16,9.2c3.9-4.2,9.5-7.6,15.7-7.6c7.3,0,12.9,3.6,12.9,11.5c0,10.6-10.4,23.5-21.6,23.5
					c-1.4,0-2.8-0.3-3.9-0.8c-0.6,2.5-0.6,5.3-0.6,7.8c0,2.5,0.3,5,0.6,7.6c-1.1-3.1-1.1-6.4-1.1-9.8c0-7.3,2.2-18.8,5.9-24.9
					c-5.9,3.6-8.1,20.4-8.1,27.2c0,3.6,0.8,12.6,5,14c-3.1-3.1-3.9-10.1-3.9-14.3c0-5.6,0.6-11.8,2.5-17.1
					c-1.1,4.8-1.7,9.5-1.7,14.6c0,5.9,0.6,18.2,8.7,18.2c10.6,0,22.4-20.7,23.8-30H1197.4z M1159.1,529.9c0,3.9,0.6,8.4,1.7,12
					c-0.6-4.2-0.8-8.4-0.8-12.6c0-9.5,5.9-29.7,17.6-29.7c-2.8,2.2-9.2,12.3-9.2,16v-0.3c-0.8,2-1.1,4.2-1.7,6.4
					c0.3,0.3,0.8,0.3,1.1,0.3c5.3,0,14-14.3,14-19.3c0-3.1-2.2-4.2-5-4.2c-3.4,0-6.4,2-8.7,4.2c-7.3,7-9.8,17.1-9.8,26.9
					c0,2.5,0,5.3,0.6,7.6c-0.3-2-0.3-3.9-0.3-5.6c0-8.1,2-17.1,6.2-23.8C1161.9,514.8,1159.1,522,1159.1,529.9z M1161.3,501.3
					l1.4-1.7L1161.3,501.3z M1189.9,503.6c0-2.8-1.1-7.8-4.2-8.7c2.2,2.2,3.4,6.4,3.4,9.5c0,9.2-6.4,16.8-14.6,20.4
					c-1.4,0.6-2.8,0.8-4.2,1.4C1181.5,524,1189.9,515.3,1189.9,503.6z"/>
			</g>
		</g>
	</g>
</g>
</svg>
