<svg width="622" height="85" viewBox="0 0 622 85" fill="none" xmlns="http://www.w3.org/2000/svg">
<circle cx="35.5" cy="15" r="14.5" fill="#FFCC66" stroke="#5F6862"/>
<path d="M8.932 54.732L5.67 59.128L2.352 54.732H1.134V64H2.184V56.328L5.67 60.738L9.1 56.328V64H10.15V54.732H8.932ZM20.7853 55.74V54.732H14.0933V64H15.1433V59.982H20.1693V58.96H15.1433V55.74H20.7853ZM32.5719 54.62C29.7859 54.62 28.0079 56.734 28.0079 59.366C28.0079 61.998 29.7159 64.112 32.5439 64.112C34.2239 64.112 35.3159 63.258 35.9039 62.362V64H36.8699V59.072H32.5159V60.024H35.9039C35.9039 61.956 34.3079 63.09 32.6279 63.09C30.3739 63.09 29.0579 61.452 29.0579 59.366C29.0579 57.28 30.4019 55.642 32.6559 55.642C34.0699 55.642 35.0779 56.258 35.6379 57.252H36.7859C36.0999 55.698 34.5599 54.62 32.5719 54.62ZM44.5091 54.62C41.6951 54.62 39.8051 56.734 39.8051 59.366C39.8051 61.998 41.6951 64.112 44.5091 64.112C47.3231 64.112 49.2131 61.998 49.2131 59.366C49.2131 56.734 47.3231 54.62 44.5091 54.62ZM44.5091 63.09C42.2551 63.09 40.8551 61.452 40.8551 59.366C40.8551 57.28 42.2551 55.642 44.5091 55.642C46.7631 55.642 48.1631 57.28 48.1631 59.366C48.1631 61.452 46.7631 63.09 44.5091 63.09ZM52.5731 54.732V64H58.6771V62.992H53.6231V54.732H52.5731ZM65.6239 54.732H61.7179V64H65.6239C67.8359 64 69.8799 62.264 69.8799 59.366C69.8799 56.468 67.8359 54.732 65.6239 54.732ZM65.5819 63.006H62.7679V55.726H65.5819C67.5559 55.726 68.8299 57.378 68.8299 59.366C68.8299 61.354 67.5559 63.006 65.5819 63.006ZM1.05 73.812V74.722H2.478L2.198 76.738H0.63V77.648H2.072L1.792 79.65H2.702L2.982 77.648H4.606L4.326 79.65H5.236L5.516 77.648H7.084V76.738H5.642L5.922 74.722H7.504V73.812H6.048L6.342 71.81H5.432L5.138 73.812H3.514L3.808 71.81H2.898L2.604 73.812H1.05ZM3.388 74.722H5.012L4.732 76.738H3.108L3.388 74.722ZM17.6408 71.74V70.732H10.9488V80H11.9988V75.982H17.0248V74.96H11.9988V71.74H17.6408ZM27.4829 71.74V70.732H20.7909V80H21.8409V75.982H26.8669V74.96H21.8409V71.74H27.4829ZM34.609 79.09C32.355 79.09 31.095 77.452 31.095 75.366C31.095 73.28 32.355 71.642 34.609 71.642C36.135 71.642 37.143 72.37 37.619 73.504H38.725C38.137 71.81 36.625 70.62 34.525 70.62C31.739 70.62 30.045 72.734 30.045 75.366C30.045 77.998 31.739 80.112 34.525 80.112C36.625 80.112 38.137 78.922 38.725 77.228H37.619C37.143 78.362 36.135 79.09 34.609 79.09ZM45.8866 79.09C43.6326 79.09 42.3726 77.452 42.3726 75.366C42.3726 73.28 43.6326 71.642 45.8866 71.642C47.4126 71.642 48.4206 72.37 48.8966 73.504H50.0026C49.4146 71.81 47.9026 70.62 45.8026 70.62C43.0166 70.62 41.3226 72.734 41.3226 75.366C41.3226 77.998 43.0166 80.112 45.8026 80.112C47.9026 80.112 49.4146 78.922 50.0026 77.228H48.8966C48.4206 78.362 47.4126 79.09 45.8866 79.09ZM56.2387 70.62C53.9007 70.62 52.7247 72.44 52.7247 75.366C52.7247 78.404 53.9007 80.112 56.1547 80.112C57.9047 80.112 59.3467 78.838 59.3467 77.102C59.3467 75.338 57.9467 74.092 56.1967 74.092C55.1607 74.092 54.2227 74.638 53.7747 75.408C53.7747 73.308 54.5167 71.642 56.2387 71.642C57.2887 71.642 57.7087 72.286 57.9047 72.888H59.0807C58.8427 71.782 58.0167 70.62 56.2387 70.62ZM56.1547 75.086C57.3307 75.086 58.2967 75.954 58.2967 77.102C58.2967 78.264 57.3307 79.09 56.1547 79.09C54.9507 79.09 54.0127 78.264 54.0127 77.032C54.0127 75.884 54.9787 75.086 56.1547 75.086ZM65.6159 70.62C63.2779 70.62 62.1019 72.44 62.1019 75.366C62.1019 78.404 63.2779 80.112 65.5319 80.112C67.2819 80.112 68.7239 78.838 68.7239 77.102C68.7239 75.338 67.3239 74.092 65.5739 74.092C64.5379 74.092 63.5999 74.638 63.1519 75.408C63.1519 73.308 63.8939 71.642 65.6159 71.642C66.6659 71.642 67.0859 72.286 67.2819 72.888H68.4579C68.2199 71.782 67.3939 70.62 65.6159 70.62ZM65.5319 75.086C66.7079 75.086 67.6739 75.954 67.6739 77.102C67.6739 78.264 66.7079 79.09 65.5319 79.09C64.3279 79.09 63.3899 78.264 63.3899 77.032C63.3899 75.884 64.3559 75.086 65.5319 75.086Z" fill="#5F6862"/>
<circle cx="145.5" cy="15" r="14.5" fill="black" stroke="#5F6862"/>
<path d="M126.882 59.268C127.54 58.974 128.128 58.372 128.128 57.182C128.128 56.062 127.386 54.732 125.202 54.732H121.044V64H125.44C127.554 64 128.604 62.95 128.604 61.564C128.604 60.178 127.666 59.52 126.882 59.268ZM122.094 55.726H125.314C126.588 55.726 127.078 56.496 127.078 57.266C127.078 58.4 126.168 58.876 125.202 58.876H122.094V55.726ZM125.552 63.006H122.094V59.828H125.44C126.91 59.828 127.554 60.612 127.554 61.48C127.554 62.446 126.826 63.006 125.552 63.006ZM131.993 54.732V64H138.097V62.992H133.043V54.732H131.993ZM145.296 54.732H143.98L140.046 64H141.208L142.342 61.312H146.934L148.068 64H149.23L145.296 54.732ZM142.748 60.346L144.638 55.824L146.528 60.346H142.748ZM155.886 63.09C153.632 63.09 152.372 61.452 152.372 59.366C152.372 57.28 153.632 55.642 155.886 55.642C157.412 55.642 158.42 56.37 158.896 57.504H160.002C159.414 55.81 157.902 54.62 155.802 54.62C153.016 54.62 151.322 56.734 151.322 59.366C151.322 61.998 153.016 64.112 155.802 64.112C157.902 64.112 159.414 62.922 160.002 61.228H158.896C158.42 62.362 157.412 63.09 155.886 63.09ZM170.942 54.732H169.458L164.306 59.562V54.732H163.256V64H164.306V60.962L166.224 59.17L169.85 64H171.166L166.994 58.456L170.942 54.732ZM114.351 73.812V74.722H115.779L115.499 76.738H113.931V77.648H115.373L115.093 79.65H116.003L116.283 77.648H117.907L117.627 79.65H118.537L118.817 77.648H120.385V76.738H118.943L119.223 74.722H120.805V73.812H119.349L119.643 71.81H118.733L118.439 73.812H116.815L117.109 71.81H116.199L115.905 73.812H114.351ZM116.689 74.722H118.313L118.033 76.738H116.409L116.689 74.722ZM126.966 70.62C124.782 70.62 123.718 72.272 123.718 75.366C123.718 78.46 124.782 80.112 126.966 80.112C129.15 80.112 130.214 78.46 130.214 75.366C130.214 72.944 129.514 70.662 126.966 70.62ZM126.966 79.09C125.426 79.09 124.768 77.844 124.768 75.366C124.768 72.888 125.426 71.642 126.966 71.642C128.506 71.642 129.164 72.888 129.164 75.366C129.164 77.088 128.87 79.048 126.966 79.09ZM136.343 70.62C134.159 70.62 133.095 72.272 133.095 75.366C133.095 78.46 134.159 80.112 136.343 80.112C138.527 80.112 139.591 78.46 139.591 75.366C139.591 72.944 138.891 70.662 136.343 70.62ZM136.343 79.09C134.803 79.09 134.145 77.844 134.145 75.366C134.145 72.888 134.803 71.642 136.343 71.642C137.883 71.642 138.541 72.888 138.541 75.366C138.541 77.088 138.247 79.048 136.343 79.09ZM145.72 70.62C143.536 70.62 142.472 72.272 142.472 75.366C142.472 78.46 143.536 80.112 145.72 80.112C147.904 80.112 148.968 78.46 148.968 75.366C148.968 72.944 148.268 70.662 145.72 70.62ZM145.72 79.09C144.18 79.09 143.522 77.844 143.522 75.366C143.522 72.888 144.18 71.642 145.72 71.642C147.26 71.642 147.918 72.888 147.918 75.366C147.918 77.088 147.624 79.048 145.72 79.09ZM155.097 70.62C152.913 70.62 151.849 72.272 151.849 75.366C151.849 78.46 152.913 80.112 155.097 80.112C157.281 80.112 158.345 78.46 158.345 75.366C158.345 72.944 157.645 70.662 155.097 70.62ZM155.097 79.09C153.557 79.09 152.899 77.844 152.899 75.366C152.899 72.888 153.557 71.642 155.097 71.642C156.637 71.642 157.295 72.888 157.295 75.366C157.295 77.088 157.001 79.048 155.097 79.09ZM164.475 70.62C162.291 70.62 161.227 72.272 161.227 75.366C161.227 78.46 162.291 80.112 164.475 80.112C166.659 80.112 167.723 78.46 167.723 75.366C167.723 72.944 167.023 70.662 164.475 70.62ZM164.475 79.09C162.935 79.09 162.277 77.844 162.277 75.366C162.277 72.888 162.935 71.642 164.475 71.642C166.015 71.642 166.673 72.888 166.673 75.366C166.673 77.088 166.379 79.048 164.475 79.09ZM173.852 70.62C171.668 70.62 170.604 72.272 170.604 75.366C170.604 78.46 171.668 80.112 173.852 80.112C176.036 80.112 177.1 78.46 177.1 75.366C177.1 72.944 176.4 70.662 173.852 70.62ZM173.852 79.09C172.312 79.09 171.654 77.844 171.654 75.366C171.654 72.888 172.312 71.642 173.852 71.642C175.392 71.642 176.05 72.888 176.05 75.366C176.05 77.088 175.756 79.048 173.852 79.09Z" fill="#5F6862"/>
<circle cx="253" cy="15" r="14.5" fill="#F6F6F6" stroke="#5F6862"/>
<path d="M232.185 63.09C229.931 63.09 228.671 61.452 228.671 59.366C228.671 57.28 229.931 55.642 232.185 55.642C233.711 55.642 234.719 56.37 235.195 57.504H236.301C235.713 55.81 234.201 54.62 232.101 54.62C229.315 54.62 227.621 56.734 227.621 59.366C227.621 61.998 229.315 64.112 232.101 64.112C234.201 64.112 235.713 62.922 236.301 61.228H235.195C234.719 62.362 233.711 63.09 232.185 63.09ZM245.995 54.732V58.848H240.605V54.732H239.555V64H240.605V59.87H245.995V64H247.045V54.732H245.995ZM255.154 54.732H253.838L249.904 64H251.066L252.2 61.312H256.792L257.926 64H259.088L255.154 54.732ZM252.606 60.346L254.496 55.824L256.386 60.346H252.606ZM261.946 54.732V64H268.05V62.992H262.996V54.732H261.946ZM278.777 54.732H277.293L272.141 59.562V54.732H271.091V64H272.141V60.962L274.059 59.17L277.685 64H279.001L274.829 58.456L278.777 54.732ZM221.154 73.812V74.722H222.582L222.302 76.738H220.734V77.648H222.176L221.896 79.65H222.806L223.086 77.648H224.71L224.43 79.65H225.34L225.62 77.648H227.188V76.738H225.746L226.026 74.722H227.608V73.812H226.152L226.446 71.81H225.536L225.242 73.812H223.618L223.912 71.81H223.002L222.708 73.812H221.154ZM223.492 74.722H225.116L224.836 76.738H223.212L223.492 74.722ZM237.744 71.74V70.732H231.052V80H232.102V75.982H237.128V74.96H232.102V71.74H237.744ZM243.876 70.62C241.538 70.62 240.362 72.44 240.362 75.366C240.362 78.404 241.538 80.112 243.792 80.112C245.542 80.112 246.984 78.838 246.984 77.102C246.984 75.338 245.584 74.092 243.834 74.092C242.798 74.092 241.86 74.638 241.412 75.408C241.412 73.308 242.154 71.642 243.876 71.642C244.926 71.642 245.346 72.286 245.542 72.888H246.718C246.48 71.782 245.654 70.62 243.876 70.62ZM243.792 75.086C244.968 75.086 245.934 75.954 245.934 77.102C245.934 78.264 244.968 79.09 243.792 79.09C242.588 79.09 241.65 78.264 241.65 77.032C241.65 75.884 242.616 75.086 243.792 75.086ZM256.964 71.74V70.732H250.272V80H251.322V75.982H256.348V74.96H251.322V71.74H256.964ZM263.096 70.62C260.758 70.62 259.582 72.44 259.582 75.366C259.582 78.404 260.758 80.112 263.012 80.112C264.762 80.112 266.204 78.838 266.204 77.102C266.204 75.338 264.804 74.092 263.054 74.092C262.018 74.092 261.08 74.638 260.632 75.408C260.632 73.308 261.374 71.642 263.096 71.642C264.146 71.642 264.566 72.286 264.762 72.888H265.938C265.7 71.782 264.874 70.62 263.096 70.62ZM263.012 75.086C264.188 75.086 265.154 75.954 265.154 77.102C265.154 78.264 264.188 79.09 263.012 79.09C261.808 79.09 260.87 78.264 260.87 77.032C260.87 75.884 261.836 75.086 263.012 75.086ZM276.183 71.74V70.732H269.491V80H270.541V75.982H275.567V74.96H270.541V71.74H276.183ZM282.315 70.62C279.977 70.62 278.801 72.44 278.801 75.366C278.801 78.404 279.977 80.112 282.231 80.112C283.981 80.112 285.423 78.838 285.423 77.102C285.423 75.338 284.023 74.092 282.273 74.092C281.237 74.092 280.299 74.638 279.851 75.408C279.851 73.308 280.593 71.642 282.315 71.642C283.365 71.642 283.785 72.286 283.981 72.888H285.157C284.919 71.782 284.093 70.62 282.315 70.62ZM282.231 75.086C283.407 75.086 284.373 75.954 284.373 77.102C284.373 78.264 283.407 79.09 282.231 79.09C281.027 79.09 280.089 78.264 280.089 77.032C280.089 75.884 281.055 75.086 282.231 75.086Z" fill="#5F6862"/>
<circle cx="364" cy="15" r="14.5" fill="#AEAEAE" stroke="#5F6862"/>
<path d="M348.304 54.62C345.518 54.62 343.74 56.734 343.74 59.366C343.74 61.998 345.448 64.112 348.276 64.112C349.956 64.112 351.048 63.258 351.636 62.362V64H352.602V59.072H348.248V60.024H351.636C351.636 61.956 350.04 63.09 348.36 63.09C346.106 63.09 344.79 61.452 344.79 59.366C344.79 57.28 346.134 55.642 348.388 55.642C349.802 55.642 350.81 56.258 351.37 57.252H352.518C351.832 55.698 350.292 54.62 348.304 54.62ZM357.175 60.444H360.395L362.635 64H363.881L361.445 60.262C362.481 60.024 363.685 59.422 363.685 57.63C363.685 55.866 362.467 54.732 360.563 54.732H356.125V64H357.175V60.444ZM357.175 55.726H360.437C361.753 55.726 362.635 56.454 362.635 57.63C362.635 59.072 361.375 59.45 360.381 59.45H357.175V55.726ZM371.328 54.732H370.012L366.078 64H367.24L368.374 61.312H372.966L374.1 64H375.262L371.328 54.732ZM368.78 60.346L370.67 55.824L372.56 60.346H368.78ZM380.929 60.332L384.807 54.732H383.533L380.397 59.24L377.261 54.732H375.987L379.879 60.332V64H380.929V60.332ZM329.262 73.812V74.722H330.69L330.41 76.738H328.842V77.648H330.284L330.004 79.65H330.914L331.194 77.648H332.818L332.538 79.65H333.448L333.728 77.648H335.296V76.738H333.854L334.134 74.722H335.716V73.812H334.26L334.554 71.81H333.644L333.35 73.812H331.726L332.02 71.81H331.11L330.816 73.812H329.262ZM331.6 74.722H333.224L332.944 76.738H331.32L331.6 74.722ZM343.319 70.732H342.003L338.069 80H339.231L340.365 77.312H344.957L346.091 80H347.253L343.319 70.732ZM340.771 76.346L342.661 71.824L344.551 76.346H340.771ZM356.928 71.74V70.732H350.11V80H356.928V78.992H351.16V75.87H356.312V74.848H351.16V71.74H356.928ZM364.466 70.732H363.15L359.216 80H360.378L361.512 77.312H366.104L367.238 80H368.4L364.466 70.732ZM361.918 76.346L363.808 71.824L365.698 76.346H361.918ZM378.075 71.74V70.732H371.257V80H378.075V78.992H372.307V75.87H377.459V74.848H372.307V71.74H378.075ZM385.613 70.732H384.297L380.363 80H381.525L382.659 77.312H387.251L388.385 80H389.547L385.613 70.732ZM383.065 76.346L384.955 71.824L386.845 76.346H383.065ZM399.222 71.74V70.732H392.404V80H399.222V78.992H393.454V75.87H398.606V74.848H393.454V71.74H399.222Z" fill="#5F6862"/>
<circle cx="477" cy="15" r="14.5" fill="#3D3D3D" stroke="#5F6862"/>
<path d="M438.872 63.09C436.618 63.09 435.358 61.452 435.358 59.366C435.358 57.28 436.618 55.642 438.872 55.642C440.398 55.642 441.406 56.37 441.882 57.504H442.988C442.4 55.81 440.888 54.62 438.788 54.62C436.002 54.62 434.308 56.734 434.308 59.366C434.308 61.998 436.002 64.112 438.788 64.112C440.888 64.112 442.4 62.922 442.988 61.228H441.882C441.406 62.362 440.398 63.09 438.872 63.09ZM452.682 54.732V58.848H447.292V54.732H446.242V64H447.292V59.87H452.682V64H453.732V54.732H452.682ZM461.841 54.732H460.525L456.591 64H457.753L458.887 61.312H463.479L464.613 64H465.775L461.841 54.732ZM459.293 60.346L461.183 55.824L463.073 60.346H459.293ZM469.683 60.444H472.903L475.143 64H476.389L473.953 60.262C474.989 60.024 476.193 59.422 476.193 57.63C476.193 55.866 474.975 54.732 473.071 54.732H468.633V64H469.683V60.444ZM469.683 55.726H472.945C474.261 55.726 475.143 56.454 475.143 57.63C475.143 59.072 473.883 59.45 472.889 59.45H469.683V55.726ZM483.654 63.09C481.4 63.09 480.14 61.452 480.14 59.366C480.14 57.28 481.4 55.642 483.654 55.642C485.18 55.642 486.188 56.37 486.664 57.504H487.77C487.182 55.81 485.67 54.62 483.57 54.62C480.784 54.62 479.09 56.734 479.09 59.366C479.09 61.998 480.784 64.112 483.57 64.112C485.67 64.112 487.182 62.922 487.77 61.228H486.664C486.188 62.362 485.18 63.09 483.654 63.09ZM495.072 54.62C492.258 54.62 490.368 56.734 490.368 59.366C490.368 61.998 492.258 64.112 495.072 64.112C497.886 64.112 499.776 61.998 499.776 59.366C499.776 56.734 497.886 54.62 495.072 54.62ZM495.072 63.09C492.818 63.09 491.418 61.452 491.418 59.366C491.418 57.28 492.818 55.642 495.072 55.642C497.326 55.642 498.726 57.28 498.726 59.366C498.726 61.452 497.326 63.09 495.072 63.09ZM507.116 54.732H505.8L501.866 64H503.028L504.162 61.312H508.754L509.888 64H511.05L507.116 54.732ZM504.568 60.346L506.458 55.824L508.348 60.346H504.568ZM513.908 54.732V64H520.012V62.992H514.958V54.732H513.908ZM442.611 73.812V74.722H444.039L443.759 76.738H442.191V77.648H443.633L443.353 79.65H444.263L444.543 77.648H446.167L445.887 79.65H446.797L447.077 77.648H448.645V76.738H447.203L447.483 74.722H449.065V73.812H447.609L447.903 71.81H446.993L446.699 73.812H445.075L445.369 71.81H444.459L444.165 73.812H442.611ZM444.949 74.722H446.573L446.293 76.738H444.669L444.949 74.722ZM456.695 75.058C457.325 74.862 458.095 74.008 458.095 73.084C458.095 71.642 456.989 70.62 455.169 70.62C453.363 70.62 452.327 71.824 452.201 72.958H453.223C453.349 72.244 454.063 71.642 455.197 71.642C456.415 71.642 457.045 72.244 457.045 73.126C457.045 74.022 456.191 74.638 455.225 74.638H454.287V75.604H455.351C456.527 75.604 457.353 76.43 457.353 77.368C457.353 78.32 456.569 79.09 455.253 79.09C454.133 79.09 453.153 78.418 453.013 77.55H451.949C452.089 78.992 453.517 80.112 455.253 80.112C457.003 80.112 458.403 78.992 458.403 77.34C458.403 76.346 457.773 75.464 456.695 75.058ZM465.793 70.732H461.887V80H465.793C468.005 80 470.049 78.264 470.049 75.366C470.049 72.468 468.005 70.732 465.793 70.732ZM465.751 79.006H462.937V71.726H465.751C467.725 71.726 468.999 73.378 468.999 75.366C468.999 77.354 467.725 79.006 465.751 79.006ZM477.61 75.058C478.24 74.862 479.01 74.008 479.01 73.084C479.01 71.642 477.904 70.62 476.084 70.62C474.278 70.62 473.242 71.824 473.116 72.958H474.138C474.264 72.244 474.978 71.642 476.112 71.642C477.33 71.642 477.96 72.244 477.96 73.126C477.96 74.022 477.106 74.638 476.14 74.638H475.202V75.604H476.266C477.442 75.604 478.268 76.43 478.268 77.368C478.268 78.32 477.484 79.09 476.168 79.09C475.048 79.09 474.068 78.418 473.928 77.55H472.864C473.004 78.992 474.432 80.112 476.168 80.112C477.918 80.112 479.318 78.992 479.318 77.34C479.318 76.346 478.688 75.464 477.61 75.058ZM486.707 70.732H482.801V80H486.707C488.919 80 490.963 78.264 490.963 75.366C490.963 72.468 488.919 70.732 486.707 70.732ZM486.665 79.006H483.851V71.726H486.665C488.639 71.726 489.913 73.378 489.913 75.366C489.913 77.354 488.639 79.006 486.665 79.006ZM498.525 75.058C499.155 74.862 499.925 74.008 499.925 73.084C499.925 71.642 498.819 70.62 496.999 70.62C495.193 70.62 494.157 71.824 494.031 72.958H495.053C495.179 72.244 495.893 71.642 497.027 71.642C498.245 71.642 498.875 72.244 498.875 73.126C498.875 74.022 498.021 74.638 497.055 74.638H496.117V75.604H497.181C498.357 75.604 499.183 76.43 499.183 77.368C499.183 78.32 498.399 79.09 497.083 79.09C495.963 79.09 494.983 78.418 494.843 77.55H493.779C493.919 78.992 495.347 80.112 497.083 80.112C498.833 80.112 500.233 78.992 500.233 77.34C500.233 76.346 499.603 75.464 498.525 75.058ZM507.622 70.732H503.716V80H507.622C509.834 80 511.878 78.264 511.878 75.366C511.878 72.468 509.834 70.732 507.622 70.732ZM507.58 79.006H504.766V71.726H507.58C509.554 71.726 510.828 73.378 510.828 75.366C510.828 77.354 509.554 79.006 507.58 79.006Z" fill="#5F6862"/>
<circle cx="588" cy="15" r="14.5" fill="white" stroke="#5F6862"/>
<path d="M569.881 56.216L572.387 64H573.577L576.461 54.732H575.355L572.975 62.516L570.483 54.732H569.279L566.787 62.516L564.407 54.732H563.301L566.185 64H567.375L569.881 56.216ZM585.841 54.732V58.848H580.451V54.732H579.401V64H580.451V59.87H585.841V64H586.891V54.732H585.841ZM591.893 54.732H590.843V64H591.893V54.732ZM602.425 54.732H594.907V55.74H598.141V64H599.191V55.74H602.425V54.732ZM612.259 55.74V54.732H605.441V64H612.259V62.992H606.491V59.87H611.643V58.848H606.491V55.74H612.259ZM555.456 73.812V74.722H556.884L556.604 76.738H555.036V77.648H556.478L556.198 79.65H557.108L557.388 77.648H559.012L558.732 79.65H559.642L559.922 77.648H561.49V76.738H560.048L560.328 74.722H561.91V73.812H560.454L560.748 71.81H559.838L559.544 73.812H557.92L558.214 71.81H557.304L557.01 73.812H555.456ZM557.794 74.722H559.418L559.138 76.738H557.514L557.794 74.722ZM572.047 71.74V70.732H565.355V80H566.405V75.982H571.431V74.96H566.405V71.74H572.047ZM581.889 71.74V70.732H575.197V80H576.247V75.982H581.273V74.96H576.247V71.74H581.889ZM591.731 71.74V70.732H585.039V80H586.089V75.982H591.115V74.96H586.089V71.74H591.731ZM601.573 71.74V70.732H594.881V80H595.931V75.982H600.957V74.96H595.931V71.74H601.573ZM611.415 71.74V70.732H604.723V80H605.773V75.982H610.799V74.96H605.773V71.74H611.415ZM621.258 71.74V70.732H614.566V80H615.616V75.982H620.642V74.96H615.616V71.74H621.258Z" fill="#5F6862"/>
</svg>
