<svg width="620" height="120" viewBox="0 0 620 120" fill="none" xmlns="http://www.w3.org/2000/svg">
<path d="M1.386 8.18H3.872V24.218H8.426V26H1.386V8.18ZM13.4301 26.176C12.0808 26.176 11.1201 25.78 10.5481 24.988C9.99081 24.1813 9.71214 23.0153 9.71214 21.49V17.794C9.71214 16.2687 9.99081 15.11 10.5481 14.318C11.1201 13.5113 12.0808 13.108 13.4301 13.108C14.7648 13.108 15.7108 13.5113 16.2681 14.318C16.8401 15.11 17.1261 16.2687 17.1261 17.794V21.49C17.1261 23.0153 16.8401 24.1813 16.2681 24.988C15.7108 25.78 14.7648 26.176 13.4301 26.176ZM13.4301 24.438C13.8555 24.438 14.1635 24.3133 14.3541 24.064C14.5448 23.8147 14.6621 23.5067 14.7061 23.14C14.7501 22.7733 14.7721 22.2747 14.7721 21.644V17.662C14.7721 17.0313 14.7501 16.5327 14.7061 16.166C14.6621 15.7847 14.5448 15.4693 14.3541 15.22C14.1635 14.9707 13.8555 14.846 13.4301 14.846C13.0048 14.846 12.6895 14.9707 12.4841 15.22C12.2935 15.4693 12.1761 15.7847 12.1321 16.166C12.0881 16.5327 12.0661 17.0313 12.0661 17.662V21.644C12.0661 22.2747 12.0881 22.7733 12.1321 23.14C12.1761 23.5067 12.2935 23.8147 12.4841 24.064C12.6895 24.3133 13.0048 24.438 13.4301 24.438ZM19.3438 13.284H21.6978V15.088C22.1378 14.3693 22.5852 13.8633 23.0398 13.57C23.5092 13.2767 24.0005 13.13 24.5138 13.13C24.6458 13.13 24.7705 13.1373 24.8878 13.152V15.748C24.4185 15.572 23.9858 15.484 23.5898 15.484C23.2085 15.484 22.8638 15.5793 22.5558 15.77C22.2625 15.946 21.9765 16.2613 21.6978 16.716V26H19.3438V13.284ZM29.8662 26.176C28.8835 26.176 28.1209 25.9927 27.5782 25.626C27.0355 25.2447 26.6542 24.6873 26.4342 23.954C26.2142 23.2207 26.1042 22.2673 26.1042 21.094V18.19C26.1042 16.43 26.3755 15.1467 26.9182 14.34C27.4755 13.5187 28.4582 13.108 29.8662 13.108C30.8929 13.108 31.6629 13.3207 32.1762 13.746C32.7042 14.1713 33.0489 14.7727 33.2102 15.55C33.3862 16.3127 33.4742 17.3467 33.4742 18.652V19.686H28.4582V22.238C28.4582 23.0153 28.5682 23.58 28.7882 23.932C29.0229 24.2693 29.3895 24.438 29.8882 24.438C30.3869 24.438 30.7242 24.2693 30.9002 23.932C31.0762 23.58 31.1642 23.052 31.1642 22.348V21.578H33.4522V22.062C33.4522 23.3967 33.1662 24.416 32.5942 25.12C32.0222 25.824 31.1129 26.176 29.8662 26.176ZM31.1642 18.41V17.266C31.1642 16.4007 31.0762 15.7847 30.9002 15.418C30.7389 15.0367 30.3869 14.846 29.8442 14.846C29.4629 14.846 29.1695 14.934 28.9642 15.11C28.7735 15.286 28.6415 15.5793 28.5682 15.99C28.4949 16.386 28.4582 16.9653 28.4582 17.728V18.41H31.1642ZM35.606 13.284H37.784V14.494C38.2093 14.0247 38.6713 13.6727 39.17 13.438C39.6833 13.1887 40.2186 13.064 40.776 13.064C41.8613 13.064 42.5506 13.5993 42.844 14.67C43.724 13.5993 44.78 13.064 46.012 13.064C46.672 13.064 47.2073 13.306 47.618 13.79C48.0433 14.274 48.256 15.0147 48.256 16.012V26H46.1V16.166C46.1 15.5793 46.0046 15.176 45.814 14.956C45.6233 14.7213 45.352 14.604 45 14.604C44.6773 14.604 44.34 14.6993 43.988 14.89C43.636 15.066 43.3133 15.3153 43.02 15.638V16.012V26H40.864V16.166C40.864 15.5793 40.7686 15.176 40.578 14.956C40.3873 14.7213 40.116 14.604 39.764 14.604C39.456 14.604 39.126 14.6993 38.774 14.89C38.422 15.066 38.092 15.3153 37.784 15.638V26H35.606V13.284ZM55.7404 8.928H58.0944V11.392H55.7404V8.928ZM55.7404 13.284H58.0944V26H55.7404V13.284ZM60.6138 13.284H62.9678V14.296C63.6571 13.504 64.4638 13.108 65.3878 13.108C66.5464 13.108 67.3164 13.6067 67.6978 14.604C68.0938 15.5867 68.2918 16.6793 68.2918 17.882V20.962C68.2918 22.5167 68.0498 23.778 67.5658 24.746C67.0964 25.6993 66.2824 26.176 65.1238 26.176C64.3758 26.176 63.6571 25.802 62.9678 25.054V30.18H60.6138V13.284ZM64.6618 24.328C65.2044 24.328 65.5491 24.0567 65.6958 23.514C65.8571 22.9567 65.9378 22.106 65.9378 20.962V17.882C65.9378 16.9433 65.8498 16.2247 65.6738 15.726C65.4978 15.2127 65.1311 14.956 64.5738 14.956C64.0311 14.956 63.4958 15.176 62.9678 15.616V23.756C63.4811 24.1373 64.0458 24.328 64.6618 24.328ZM73.3801 26.176C72.3535 26.176 71.5175 25.8533 70.8721 25.208C70.2415 24.5627 69.8821 23.6973 69.7941 22.612L71.7521 22.018C71.8695 22.8393 72.0675 23.448 72.3461 23.844C72.6395 24.24 73.0501 24.438 73.5781 24.438C73.9888 24.438 74.3041 24.3207 74.5241 24.086C74.7588 23.8367 74.8761 23.5067 74.8761 23.096C74.8761 22.7293 74.7955 22.3993 74.6341 22.106C74.4728 21.8127 74.2088 21.512 73.8421 21.204L71.6641 19.334C71.1655 18.9087 70.7768 18.4613 70.4981 17.992C70.2341 17.508 70.1021 16.9213 70.1021 16.232C70.1021 15.2493 70.3955 14.4867 70.9821 13.944C71.5688 13.3867 72.3681 13.108 73.3801 13.108C74.3481 13.108 75.1035 13.4233 75.6461 14.054C76.2035 14.67 76.5261 15.4693 76.6141 16.452L75.0301 17.046C74.9275 16.3273 74.7588 15.7847 74.5241 15.418C74.2895 15.0367 73.9375 14.846 73.4681 14.846C73.0868 14.846 72.7788 14.9707 72.5441 15.22C72.3241 15.4693 72.2141 15.7773 72.2141 16.144C72.2141 16.6133 72.4268 17.0387 72.8521 17.42L75.0961 19.488C75.6681 20.016 76.1081 20.5367 76.4161 21.05C76.7388 21.5633 76.9001 22.1867 76.9001 22.92C76.9001 23.976 76.5848 24.7827 75.9541 25.34C75.3235 25.8973 74.4655 26.176 73.3801 26.176ZM80.4867 26.176C79.7973 26.176 79.306 25.9267 79.0127 25.428C78.7193 24.9293 78.5727 24.3133 78.5727 23.58V13.284H80.9267V22.876C80.9267 23.36 81 23.7267 81.1467 23.976C81.2933 24.2107 81.5573 24.328 81.9387 24.328C82.408 24.328 82.958 24.064 83.5887 23.536V13.284H85.9427V26H83.5887V24.746C82.5767 25.6993 81.5427 26.176 80.4867 26.176ZM88.3501 13.284H90.5281V14.494C90.9534 14.0247 91.4154 13.6727 91.9141 13.438C92.4274 13.1887 92.9628 13.064 93.5201 13.064C94.6054 13.064 95.2948 13.5993 95.5881 14.67C96.4681 13.5993 97.5241 13.064 98.7561 13.064C99.4161 13.064 99.9514 13.306 100.362 13.79C100.787 14.274 101 15.0147 101 16.012V26H98.8441V16.166C98.8441 15.5793 98.7488 15.176 98.5581 14.956C98.3674 14.7213 98.0961 14.604 97.7441 14.604C97.4214 14.604 97.0841 14.6993 96.7321 14.89C96.3801 15.066 96.0574 15.3153 95.7641 15.638V16.012V26H93.6081V16.166C93.6081 15.5793 93.5128 15.176 93.3221 14.956C93.1314 14.7213 92.8601 14.604 92.5081 14.604C92.2001 14.604 91.8701 14.6993 91.5181 14.89C91.1661 15.066 90.8361 15.3153 90.5281 15.638V26H88.3501V13.284ZM111.279 26.176C110.179 26.176 109.372 25.78 108.859 24.988C108.345 24.1813 108.089 22.854 108.089 21.006V18.542C108.089 16.8553 108.309 15.528 108.749 14.56C109.203 13.592 110.025 13.108 111.213 13.108C111.961 13.108 112.665 13.438 113.325 14.098V8.18H115.679V26H113.325V25.186C112.709 25.846 112.027 26.176 111.279 26.176ZM111.873 24.328C112.342 24.328 112.826 24.1667 113.325 23.844V15.506C112.782 15.1393 112.283 14.956 111.829 14.956C110.905 14.956 110.443 15.8433 110.443 17.618V21.204C110.443 22.2307 110.538 23.008 110.729 23.536C110.919 24.064 111.301 24.328 111.873 24.328ZM121.561 26.176C120.212 26.176 119.251 25.78 118.679 24.988C118.122 24.1813 117.843 23.0153 117.843 21.49V17.794C117.843 16.2687 118.122 15.11 118.679 14.318C119.251 13.5113 120.212 13.108 121.561 13.108C122.896 13.108 123.842 13.5113 124.399 14.318C124.971 15.11 125.257 16.2687 125.257 17.794V21.49C125.257 23.0153 124.971 24.1813 124.399 24.988C123.842 25.78 122.896 26.176 121.561 26.176ZM121.561 24.438C121.986 24.438 122.294 24.3133 122.485 24.064C122.676 23.8147 122.793 23.5067 122.837 23.14C122.881 22.7733 122.903 22.2747 122.903 21.644V17.662C122.903 17.0313 122.881 16.5327 122.837 16.166C122.793 15.7847 122.676 15.4693 122.485 15.22C122.294 14.9707 121.986 14.846 121.561 14.846C121.136 14.846 120.82 14.9707 120.615 15.22C120.424 15.4693 120.307 15.7847 120.263 16.166C120.219 16.5327 120.197 17.0313 120.197 17.662V21.644C120.197 22.2747 120.219 22.7733 120.263 23.14C120.307 23.5067 120.424 23.8147 120.615 24.064C120.82 24.3133 121.136 24.438 121.561 24.438ZM127.629 8.18H129.983V26H127.629V8.18ZM135.934 26.176C134.585 26.176 133.624 25.78 133.052 24.988C132.495 24.1813 132.216 23.0153 132.216 21.49V17.794C132.216 16.2687 132.495 15.11 133.052 14.318C133.624 13.5113 134.585 13.108 135.934 13.108C137.269 13.108 138.215 13.5113 138.772 14.318C139.344 15.11 139.63 16.2687 139.63 17.794V21.49C139.63 23.0153 139.344 24.1813 138.772 24.988C138.215 25.78 137.269 26.176 135.934 26.176ZM135.934 24.438C136.359 24.438 136.667 24.3133 136.858 24.064C137.049 23.8147 137.166 23.5067 137.21 23.14C137.254 22.7733 137.276 22.2747 137.276 21.644V17.662C137.276 17.0313 137.254 16.5327 137.21 16.166C137.166 15.7847 137.049 15.4693 136.858 15.22C136.667 14.9707 136.359 14.846 135.934 14.846C135.509 14.846 135.193 14.9707 134.988 15.22C134.797 15.4693 134.68 15.7847 134.636 16.166C134.592 16.5327 134.57 17.0313 134.57 17.662V21.644C134.57 22.2747 134.592 22.7733 134.636 23.14C134.68 23.5067 134.797 23.8147 134.988 24.064C135.193 24.3133 135.509 24.438 135.934 24.438ZM141.848 13.284H144.202V15.088C144.642 14.3693 145.089 13.8633 145.544 13.57C146.013 13.2767 146.504 13.13 147.018 13.13C147.15 13.13 147.274 13.1373 147.392 13.152V15.748C146.922 15.572 146.49 15.484 146.094 15.484C145.712 15.484 145.368 15.5793 145.06 15.77C144.766 15.946 144.48 16.2613 144.202 16.716V26H141.848V13.284ZM156.825 26.176C155.799 26.176 154.963 25.8533 154.317 25.208C153.687 24.5627 153.327 23.6973 153.239 22.612L155.197 22.018C155.315 22.8393 155.513 23.448 155.791 23.844C156.085 24.24 156.495 24.438 157.023 24.438C157.434 24.438 157.749 24.3207 157.969 24.086C158.204 23.8367 158.321 23.5067 158.321 23.096C158.321 22.7293 158.241 22.3993 158.079 22.106C157.918 21.8127 157.654 21.512 157.287 21.204L155.109 19.334C154.611 18.9087 154.222 18.4613 153.943 17.992C153.679 17.508 153.547 16.9213 153.547 16.232C153.547 15.2493 153.841 14.4867 154.427 13.944C155.014 13.3867 155.813 13.108 156.825 13.108C157.793 13.108 158.549 13.4233 159.091 14.054C159.649 14.67 159.971 15.4693 160.059 16.452L158.475 17.046C158.373 16.3273 158.204 15.7847 157.969 15.418C157.735 15.0367 157.383 14.846 156.913 14.846C156.532 14.846 156.224 14.9707 155.989 15.22C155.769 15.4693 155.659 15.7773 155.659 16.144C155.659 16.6133 155.872 17.0387 156.297 17.42L158.541 19.488C159.113 20.016 159.553 20.5367 159.861 21.05C160.184 21.5633 160.345 22.1867 160.345 22.92C160.345 23.976 160.03 24.7827 159.399 25.34C158.769 25.8973 157.911 26.176 156.825 26.176ZM162.26 8.928H164.614V11.392H162.26V8.928ZM162.26 13.284H164.614V26H162.26V13.284ZM170.521 26.176C168.688 26.176 167.771 25.164 167.771 23.14V14.846H166.429V13.284H167.771V9.566H170.125V13.284H172.171V14.846H170.125V22.986C170.125 23.4993 170.206 23.8587 170.367 24.064C170.529 24.2693 170.837 24.372 171.291 24.372C171.585 24.372 171.871 24.35 172.149 24.306V26.044C171.563 26.132 171.02 26.176 170.521 26.176ZM181.216 26.176C180.732 26.176 180.292 26.0367 179.896 25.758C179.515 25.4793 179.214 25.1127 178.994 24.658C178.774 24.2033 178.664 23.7267 178.664 23.228C178.664 22.2307 178.877 21.424 179.302 20.808C179.728 20.1773 180.27 19.6787 180.93 19.312C181.59 18.9453 182.507 18.5273 183.68 18.058V17.156C183.68 16.32 183.592 15.7333 183.416 15.396C183.255 15.044 182.918 14.868 182.404 14.868C181.51 14.868 181.062 15.4693 181.062 16.672V17.31L178.73 17.222C178.76 15.814 179.082 14.78 179.698 14.12C180.314 13.4453 181.268 13.108 182.558 13.108C183.776 13.108 184.656 13.4453 185.198 14.12C185.756 14.78 186.034 15.7847 186.034 17.134V22.942C186.034 23.8953 186.108 24.9147 186.254 26H184.098C183.937 25.164 183.834 24.5407 183.79 24.13C183.614 24.702 183.306 25.186 182.866 25.582C182.441 25.978 181.891 26.176 181.216 26.176ZM182.14 24.152C182.448 24.152 182.749 24.0347 183.042 23.8C183.336 23.5507 183.548 23.316 183.68 23.096V19.488C183.05 19.84 182.558 20.148 182.206 20.412C181.869 20.6613 181.583 20.9547 181.348 21.292C181.128 21.6293 181.018 22.0327 181.018 22.502C181.018 23.03 181.114 23.4407 181.304 23.734C181.495 24.0127 181.774 24.152 182.14 24.152ZM188.295 13.284H190.473V14.494C190.899 14.0247 191.361 13.6727 191.859 13.438C192.373 13.1887 192.908 13.064 193.465 13.064C194.551 13.064 195.24 13.5993 195.533 14.67C196.413 13.5993 197.469 13.064 198.701 13.064C199.361 13.064 199.897 13.306 200.307 13.79C200.733 14.274 200.945 15.0147 200.945 16.012V26H198.789V16.166C198.789 15.5793 198.694 15.176 198.503 14.956C198.313 14.7213 198.041 14.604 197.689 14.604C197.367 14.604 197.029 14.6993 196.677 14.89C196.325 15.066 196.003 15.3153 195.709 15.638V16.012V26H193.553V16.166C193.553 15.5793 193.458 15.176 193.267 14.956C193.077 14.7213 192.805 14.604 192.453 14.604C192.145 14.604 191.815 14.6993 191.463 14.89C191.111 15.066 190.781 15.3153 190.473 15.638V26H188.295V13.284ZM206.769 26.176C205.786 26.176 205.023 25.9927 204.481 25.626C203.938 25.2447 203.557 24.6873 203.337 23.954C203.117 23.2207 203.007 22.2673 203.007 21.094V18.19C203.007 16.43 203.278 15.1467 203.821 14.34C204.378 13.5187 205.361 13.108 206.769 13.108C207.795 13.108 208.565 13.3207 209.079 13.746C209.607 14.1713 209.951 14.7727 210.113 15.55C210.289 16.3127 210.377 17.3467 210.377 18.652V19.686H205.361V22.238C205.361 23.0153 205.471 23.58 205.691 23.932C205.925 24.2693 206.292 24.438 206.791 24.438C207.289 24.438 207.627 24.2693 207.803 23.932C207.979 23.58 208.067 23.052 208.067 22.348V21.578H210.355V22.062C210.355 23.3967 210.069 24.416 209.497 25.12C208.925 25.824 208.015 26.176 206.769 26.176ZM208.067 18.41V17.266C208.067 16.4007 207.979 15.7847 207.803 15.418C207.641 15.0367 207.289 14.846 206.747 14.846C206.365 14.846 206.072 14.934 205.867 15.11C205.676 15.286 205.544 15.5793 205.471 15.99C205.397 16.386 205.361 16.9653 205.361 17.728V18.41H208.067ZM215.896 26.176C214.063 26.176 213.146 25.164 213.146 23.14V14.846H211.804V13.284H213.146V9.566H215.5V13.284H217.546V14.846H215.5V22.986C215.5 23.4993 215.581 23.8587 215.742 24.064C215.904 24.2693 216.212 24.372 216.666 24.372C216.96 24.372 217.246 24.35 217.524 24.306V26.044C216.938 26.132 216.395 26.176 215.896 26.176ZM218.968 27.87C219.364 27.738 219.672 27.5033 219.892 27.166C220.127 26.8433 220.244 26.4547 220.244 26H218.99V23.47H221.41V25.956C221.41 26.7333 221.241 27.3493 220.904 27.804C220.567 28.2733 220.046 28.6327 219.342 28.882L218.968 27.87ZM4.664 59.176C3.66667 59.176 2.89667 58.978 2.354 58.582C1.81133 58.1713 1.43733 57.6067 1.232 56.888C1.04133 56.1547 0.946 55.2307 0.946 54.116V51.19C0.946 50.046 1.04133 49.1073 1.232 48.374C1.43733 47.6407 1.81133 47.0833 2.354 46.702C2.89667 46.306 3.66667 46.108 4.664 46.108C5.57333 46.108 6.27733 46.2547 6.776 46.548C7.28933 46.8413 7.64133 47.2813 7.832 47.868C8.03733 48.44 8.14 49.188 8.14 50.112V50.86H6.006V50.09C6.006 49.254 5.91067 48.6747 5.72 48.352C5.544 48.0147 5.19933 47.846 4.686 47.846C4.29 47.846 3.99667 47.934 3.806 48.11C3.61533 48.286 3.48333 48.572 3.41 48.968C3.33667 49.364 3.3 49.9433 3.3 50.706V54.71C3.3 55.4433 3.344 56.008 3.432 56.404C3.52 56.7853 3.65933 57.0567 3.85 57.218C4.05533 57.3647 4.34133 57.438 4.708 57.438C5.25067 57.438 5.60267 57.262 5.764 56.91C5.92533 56.5433 6.006 55.986 6.006 55.238V54.204H8.14V55.084C8.14 56.4627 7.88333 57.4893 7.37 58.164C6.87133 58.8387 5.96933 59.176 4.664 59.176ZM13.7309 59.176C12.3816 59.176 11.4209 58.78 10.8489 57.988C10.2916 57.1813 10.0129 56.0153 10.0129 54.49V50.794C10.0129 49.2687 10.2916 48.11 10.8489 47.318C11.4209 46.5113 12.3816 46.108 13.7309 46.108C15.0656 46.108 16.0116 46.5113 16.5689 47.318C17.1409 48.11 17.4269 49.2687 17.4269 50.794V54.49C17.4269 56.0153 17.1409 57.1813 16.5689 57.988C16.0116 58.78 15.0656 59.176 13.7309 59.176ZM13.7309 57.438C14.1563 57.438 14.4643 57.3133 14.6549 57.064C14.8456 56.8147 14.9629 56.5067 15.0069 56.14C15.0509 55.7733 15.0729 55.2747 15.0729 54.644V50.662C15.0729 50.0313 15.0509 49.5327 15.0069 49.166C14.9629 48.7847 14.8456 48.4693 14.6549 48.22C14.4643 47.9707 14.1563 47.846 13.7309 47.846C13.3056 47.846 12.9903 47.9707 12.7849 48.22C12.5943 48.4693 12.4769 48.7847 12.4329 49.166C12.3889 49.5327 12.3669 50.0313 12.3669 50.662V54.644C12.3669 55.2747 12.3889 55.7733 12.4329 56.14C12.4769 56.5067 12.5943 56.8147 12.7849 57.064C12.9903 57.3133 13.3056 57.438 13.7309 57.438ZM19.5786 46.284H21.9326V47.538C22.9446 46.5847 23.9786 46.108 25.0346 46.108C25.724 46.108 26.2153 46.3573 26.5086 46.856C26.802 47.3547 26.9486 47.9707 26.9486 48.704V59H24.5946V49.386C24.5946 48.902 24.5213 48.5427 24.3746 48.308C24.228 48.0733 23.964 47.956 23.5826 47.956C23.1133 47.956 22.5633 48.22 21.9326 48.748V59H19.5786V46.284ZM32.1946 59.176C31.1679 59.176 30.3319 58.8533 29.6866 58.208C29.0559 57.5627 28.6966 56.6973 28.6086 55.612L30.5666 55.018C30.6839 55.8393 30.8819 56.448 31.1606 56.844C31.4539 57.24 31.8646 57.438 32.3926 57.438C32.8033 57.438 33.1186 57.3207 33.3386 57.086C33.5733 56.8367 33.6906 56.5067 33.6906 56.096C33.6906 55.7293 33.6099 55.3993 33.4486 55.106C33.2873 54.8127 33.0233 54.512 32.6566 54.204L30.4786 52.334C29.9799 51.9087 29.5913 51.4613 29.3126 50.992C29.0486 50.508 28.9166 49.9213 28.9166 49.232C28.9166 48.2493 29.2099 47.4867 29.7966 46.944C30.3833 46.3867 31.1826 46.108 32.1946 46.108C33.1626 46.108 33.9179 46.4233 34.4606 47.054C35.0179 47.67 35.3406 48.4693 35.4286 49.452L33.8446 50.046C33.7419 49.3273 33.5733 48.7847 33.3386 48.418C33.1039 48.0367 32.7519 47.846 32.2826 47.846C31.9013 47.846 31.5933 47.9707 31.3586 48.22C31.1386 48.4693 31.0286 48.7773 31.0286 49.144C31.0286 49.6133 31.2413 50.0387 31.6666 50.42L33.9106 52.488C34.4826 53.016 34.9226 53.5367 35.2306 54.05C35.5533 54.5633 35.7146 55.1867 35.7146 55.92C35.7146 56.976 35.3993 57.7827 34.7686 58.34C34.1379 58.8973 33.2799 59.176 32.1946 59.176ZM40.9951 59.176C40.0124 59.176 39.2498 58.9927 38.7071 58.626C38.1644 58.2447 37.7831 57.6873 37.5631 56.954C37.3431 56.2207 37.2331 55.2673 37.2331 54.094V51.19C37.2331 49.43 37.5044 48.1467 38.0471 47.34C38.6044 46.5187 39.5871 46.108 40.9951 46.108C42.0218 46.108 42.7918 46.3207 43.3051 46.746C43.8331 47.1713 44.1778 47.7727 44.3391 48.55C44.5151 49.3127 44.6031 50.3467 44.6031 51.652V52.686H39.5871V55.238C39.5871 56.0153 39.6971 56.58 39.9171 56.932C40.1518 57.2693 40.5184 57.438 41.0171 57.438C41.5158 57.438 41.8531 57.2693 42.0291 56.932C42.2051 56.58 42.2931 56.052 42.2931 55.348V54.578H44.5811V55.062C44.5811 56.3967 44.2951 57.416 43.7231 58.12C43.1511 58.824 42.2418 59.176 40.9951 59.176ZM42.2931 51.41V50.266C42.2931 49.4007 42.2051 48.7847 42.0291 48.418C41.8678 48.0367 41.5158 47.846 40.9731 47.846C40.5918 47.846 40.2984 47.934 40.0931 48.11C39.9024 48.286 39.7704 48.5793 39.6971 48.99C39.6238 49.386 39.5871 49.9653 39.5871 50.728V51.41H42.2931ZM50.2109 59.176C49.2135 59.176 48.4435 58.978 47.9009 58.582C47.3582 58.1713 46.9842 57.6067 46.7789 56.888C46.5882 56.1547 46.4929 55.2307 46.4929 54.116V51.19C46.4929 50.046 46.5882 49.1073 46.7789 48.374C46.9842 47.6407 47.3582 47.0833 47.9009 46.702C48.4435 46.306 49.2135 46.108 50.2109 46.108C51.1202 46.108 51.8242 46.2547 52.3229 46.548C52.8362 46.8413 53.1882 47.2813 53.3789 47.868C53.5842 48.44 53.6869 49.188 53.6869 50.112V50.86H51.5529V50.09C51.5529 49.254 51.4575 48.6747 51.2669 48.352C51.0909 48.0147 50.7462 47.846 50.2329 47.846C49.8369 47.846 49.5435 47.934 49.3529 48.11C49.1622 48.286 49.0302 48.572 48.9569 48.968C48.8835 49.364 48.8469 49.9433 48.8469 50.706V54.71C48.8469 55.4433 48.8909 56.008 48.9789 56.404C49.0669 56.7853 49.2062 57.0567 49.3969 57.218C49.6022 57.3647 49.8882 57.438 50.2549 57.438C50.7975 57.438 51.1495 57.262 51.3109 56.91C51.4722 56.5433 51.5529 55.986 51.5529 55.238V54.204H53.6869V55.084C53.6869 56.4627 53.4302 57.4893 52.9169 58.164C52.4182 58.8387 51.5162 59.176 50.2109 59.176ZM59.1678 59.176C57.3345 59.176 56.4178 58.164 56.4178 56.14V47.846H55.0758V46.284H56.4178V42.566H58.7718V46.284H60.8178V47.846H58.7718V55.986C58.7718 56.4993 58.8525 56.8587 59.0138 57.064C59.1751 57.2693 59.4831 57.372 59.9378 57.372C60.2311 57.372 60.5171 57.35 60.7958 57.306V59.044C60.2091 59.132 59.6665 59.176 59.1678 59.176ZM66.0674 59.176C65.0847 59.176 64.322 58.9927 63.7794 58.626C63.2367 58.2447 62.8554 57.6873 62.6354 56.954C62.4154 56.2207 62.3054 55.2673 62.3054 54.094V51.19C62.3054 49.43 62.5767 48.1467 63.1194 47.34C63.6767 46.5187 64.6594 46.108 66.0674 46.108C67.094 46.108 67.864 46.3207 68.3774 46.746C68.9054 47.1713 69.25 47.7727 69.4114 48.55C69.5874 49.3127 69.6754 50.3467 69.6754 51.652V52.686H64.6594V55.238C64.6594 56.0153 64.7694 56.58 64.9894 56.932C65.224 57.2693 65.5907 57.438 66.0894 57.438C66.588 57.438 66.9254 57.2693 67.1014 56.932C67.2774 56.58 67.3654 56.052 67.3654 55.348V54.578H69.6534V55.062C69.6534 56.3967 69.3674 57.416 68.7954 58.12C68.2234 58.824 67.314 59.176 66.0674 59.176ZM67.3654 51.41V50.266C67.3654 49.4007 67.2774 48.7847 67.1014 48.418C66.94 48.0367 66.588 47.846 66.0454 47.846C65.664 47.846 65.3707 47.934 65.1654 48.11C64.9747 48.286 64.8427 48.5793 64.7694 48.99C64.696 49.386 64.6594 49.9653 64.6594 50.728V51.41H67.3654ZM75.1951 59.176C73.3618 59.176 72.4451 58.164 72.4451 56.14V47.846H71.1031V46.284H72.4451V42.566H74.7991V46.284H76.8451V47.846H74.7991V55.986C74.7991 56.4993 74.8798 56.8587 75.0411 57.064C75.2025 57.2693 75.5105 57.372 75.9651 57.372C76.2585 57.372 76.5445 57.35 76.8231 57.306V59.044C76.2365 59.132 75.6938 59.176 75.1951 59.176ZM80.4007 59.176C79.7114 59.176 79.2201 58.9267 78.9267 58.428C78.6334 57.9293 78.4867 57.3133 78.4867 56.58V46.284H80.8407V55.876C80.8407 56.36 80.9141 56.7267 81.0607 56.976C81.2074 57.2107 81.4714 57.328 81.8527 57.328C82.3221 57.328 82.8721 57.064 83.5027 56.536V46.284H85.8567V59H83.5027V57.746C82.4907 58.6993 81.4567 59.176 80.4007 59.176ZM88.3302 46.284H90.6842V48.088C91.1242 47.3693 91.5715 46.8633 92.0262 46.57C92.4955 46.2767 92.9868 46.13 93.5002 46.13C93.6322 46.13 93.7568 46.1373 93.8742 46.152V48.748C93.4048 48.572 92.9722 48.484 92.5762 48.484C92.1948 48.484 91.8502 48.5793 91.5422 48.77C91.2488 48.946 90.9628 49.2613 90.6842 49.716V59H88.3302V46.284ZM102.648 59.176C102.164 59.176 101.724 59.0367 101.328 58.758C100.947 58.4793 100.646 58.1127 100.426 57.658C100.206 57.2033 100.096 56.7267 100.096 56.228C100.096 55.2307 100.309 54.424 100.734 53.808C101.159 53.1773 101.702 52.6787 102.362 52.312C103.022 51.9453 103.939 51.5273 105.112 51.058V50.156C105.112 49.32 105.024 48.7333 104.848 48.396C104.687 48.044 104.349 47.868 103.836 47.868C102.941 47.868 102.494 48.4693 102.494 49.672V50.31L100.162 50.222C100.191 48.814 100.514 47.78 101.13 47.12C101.746 46.4453 102.699 46.108 103.99 46.108C105.207 46.108 106.087 46.4453 106.63 47.12C107.187 47.78 107.466 48.7847 107.466 50.134V55.942C107.466 56.8953 107.539 57.9147 107.686 59H105.53C105.369 58.164 105.266 57.5407 105.222 57.13C105.046 57.702 104.738 58.186 104.298 58.582C103.873 58.978 103.323 59.176 102.648 59.176ZM103.572 57.152C103.88 57.152 104.181 57.0347 104.474 56.8C104.767 56.5507 104.98 56.316 105.112 56.096V52.488C104.481 52.84 103.99 53.148 103.638 53.412C103.301 53.6613 103.015 53.9547 102.78 54.292C102.56 54.6293 102.45 55.0327 102.45 55.502C102.45 56.03 102.545 56.4407 102.736 56.734C102.927 57.0127 103.205 57.152 103.572 57.152ZM112.675 59.176C111.575 59.176 110.768 58.78 110.255 57.988C109.742 57.1813 109.485 55.854 109.485 54.006V51.542C109.485 49.8553 109.705 48.528 110.145 47.56C110.6 46.592 111.421 46.108 112.609 46.108C113.357 46.108 114.061 46.438 114.721 47.098V41.18H117.075V59H114.721V58.186C114.105 58.846 113.423 59.176 112.675 59.176ZM113.269 57.328C113.738 57.328 114.222 57.1667 114.721 56.844V48.506C114.178 48.1393 113.68 47.956 113.225 47.956C112.301 47.956 111.839 48.8433 111.839 50.618V54.204C111.839 55.2307 111.934 56.008 112.125 56.536C112.316 57.064 112.697 57.328 113.269 57.328ZM119.613 41.928H121.967V44.392H119.613V41.928ZM119.613 46.284H121.967V59H119.613V46.284ZM124.487 46.284H126.841V47.296C127.53 46.504 128.337 46.108 129.261 46.108C130.419 46.108 131.189 46.6067 131.571 47.604C131.967 48.5867 132.165 49.6793 132.165 50.882V53.962C132.165 55.5167 131.923 56.778 131.439 57.746C130.969 58.6993 130.155 59.176 128.997 59.176C128.249 59.176 127.53 58.802 126.841 58.054V63.18H124.487V46.284ZM128.535 57.328C129.077 57.328 129.422 57.0567 129.569 56.514C129.73 55.9567 129.811 55.106 129.811 53.962V50.882C129.811 49.9433 129.723 49.2247 129.547 48.726C129.371 48.2127 129.004 47.956 128.447 47.956C127.904 47.956 127.369 48.176 126.841 48.616V56.756C127.354 57.1373 127.919 57.328 128.535 57.328ZM134.459 41.928H136.813V44.392H134.459V41.928ZM134.459 46.284H136.813V59H134.459V46.284ZM142.281 59.176C141.254 59.176 140.418 58.8533 139.773 58.208C139.142 57.5627 138.783 56.6973 138.695 55.612L140.653 55.018C140.77 55.8393 140.968 56.448 141.247 56.844C141.54 57.24 141.951 57.438 142.479 57.438C142.889 57.438 143.205 57.3207 143.425 57.086C143.659 56.8367 143.777 56.5067 143.777 56.096C143.777 55.7293 143.696 55.3993 143.535 55.106C143.373 54.8127 143.109 54.512 142.743 54.204L140.565 52.334C140.066 51.9087 139.677 51.4613 139.399 50.992C139.135 50.508 139.003 49.9213 139.003 49.232C139.003 48.2493 139.296 47.4867 139.883 46.944C140.469 46.3867 141.269 46.108 142.281 46.108C143.249 46.108 144.004 46.4233 144.547 47.054C145.104 47.67 145.427 48.4693 145.515 49.452L143.931 50.046C143.828 49.3273 143.659 48.7847 143.425 48.418C143.19 48.0367 142.838 47.846 142.369 47.846C141.987 47.846 141.679 47.9707 141.445 48.22C141.225 48.4693 141.115 48.7773 141.115 49.144C141.115 49.6133 141.327 50.0387 141.753 50.42L143.997 52.488C144.569 53.016 145.009 53.5367 145.317 54.05C145.639 54.5633 145.801 55.1867 145.801 55.92C145.801 56.976 145.485 57.7827 144.855 58.34C144.224 58.8973 143.366 59.176 142.281 59.176ZM151.037 59.176C150.04 59.176 149.27 58.978 148.727 58.582C148.184 58.1713 147.81 57.6067 147.605 56.888C147.414 56.1547 147.319 55.2307 147.319 54.116V51.19C147.319 50.046 147.414 49.1073 147.605 48.374C147.81 47.6407 148.184 47.0833 148.727 46.702C149.27 46.306 150.04 46.108 151.037 46.108C151.946 46.108 152.65 46.2547 153.149 46.548C153.662 46.8413 154.014 47.2813 154.205 47.868C154.41 48.44 154.513 49.188 154.513 50.112V50.86H152.379V50.09C152.379 49.254 152.284 48.6747 152.093 48.352C151.917 48.0147 151.572 47.846 151.059 47.846C150.663 47.846 150.37 47.934 150.179 48.11C149.988 48.286 149.856 48.572 149.783 48.968C149.71 49.364 149.673 49.9433 149.673 50.706V54.71C149.673 55.4433 149.717 56.008 149.805 56.404C149.893 56.7853 150.032 57.0567 150.223 57.218C150.428 57.3647 150.714 57.438 151.081 57.438C151.624 57.438 151.976 57.262 152.137 56.91C152.298 56.5433 152.379 55.986 152.379 55.238V54.204H154.513V55.084C154.513 56.4627 154.256 57.4893 153.743 58.164C153.244 58.8387 152.342 59.176 151.037 59.176ZM156.76 41.928H159.114V44.392H156.76V41.928ZM156.76 46.284H159.114V59H156.76V46.284ZM161.633 46.284H163.987V47.538C164.999 46.5847 166.033 46.108 167.089 46.108C167.779 46.108 168.27 46.3573 168.563 46.856C168.857 47.3547 169.003 47.9707 169.003 48.704V59H166.649V49.386C166.649 48.902 166.576 48.5427 166.429 48.308C166.283 48.0733 166.019 47.956 165.637 47.956C165.168 47.956 164.618 48.22 163.987 48.748V59H161.633V46.284ZM174.601 62.938C173.369 62.938 172.387 62.74 171.653 62.344C170.92 61.9627 170.553 61.3613 170.553 60.54C170.553 59.9827 170.722 59.4987 171.059 59.088C171.411 58.6773 171.851 58.3473 172.379 58.098C171.983 57.9807 171.675 57.7973 171.455 57.548C171.25 57.2987 171.147 57.0273 171.147 56.734C171.147 56.294 171.257 55.9127 171.477 55.59C171.697 55.2673 172.057 54.8787 172.555 54.424C172.057 54.0427 171.683 53.566 171.433 52.994C171.199 52.4073 171.081 51.6227 171.081 50.64C171.081 49.1587 171.382 48.0367 171.983 47.274C172.599 46.4967 173.494 46.108 174.667 46.108C175.342 46.108 175.892 46.2253 176.317 46.46C176.743 46.6947 177.065 47.0467 177.285 47.516C177.388 47.3547 177.601 47.142 177.923 46.878C178.261 46.5993 178.62 46.372 179.001 46.196L179.353 46.042L179.947 47.56C179.654 47.6187 179.243 47.7433 178.715 47.934C178.202 48.1247 177.894 48.2713 177.791 48.374C177.894 48.638 177.982 49.0047 178.055 49.474C178.143 49.9433 178.187 50.354 178.187 50.706C178.187 52.0993 177.916 53.1847 177.373 53.962C176.831 54.7247 175.929 55.106 174.667 55.106C174.271 55.106 173.868 55.0547 173.457 54.952C173.179 55.3627 173.039 55.6853 173.039 55.92C173.039 56.0813 173.12 56.2133 173.281 56.316C173.457 56.404 173.729 56.4627 174.095 56.492L176.075 56.668C177.073 56.756 177.813 57.0567 178.297 57.57C178.781 58.0833 179.023 58.8167 179.023 59.77C179.023 61.882 177.549 62.938 174.601 62.938ZM174.667 53.456C175.298 53.456 175.709 53.236 175.899 52.796C176.09 52.356 176.185 51.6373 176.185 50.64C176.185 49.628 176.09 48.8947 175.899 48.44C175.709 47.9707 175.305 47.736 174.689 47.736C174.073 47.736 173.655 47.9707 173.435 48.44C173.23 48.8947 173.127 49.628 173.127 50.64C173.127 51.5493 173.23 52.246 173.435 52.73C173.655 53.214 174.066 53.456 174.667 53.456ZM174.777 61.09C175.613 61.09 176.229 60.9873 176.625 60.782C177.021 60.5913 177.219 60.276 177.219 59.836C177.219 59.4253 177.095 59.1247 176.845 58.934C176.596 58.7287 176.141 58.5967 175.481 58.538L173.479 58.362C173.171 58.67 172.937 58.9413 172.775 59.176C172.614 59.4107 172.533 59.6673 172.533 59.946C172.533 60.342 172.695 60.628 173.017 60.804C173.355 60.9947 173.941 61.09 174.777 61.09ZM189.409 59.176C188.427 59.176 187.664 58.9927 187.121 58.626C186.579 58.2447 186.197 57.6873 185.977 56.954C185.757 56.2207 185.647 55.2673 185.647 54.094V51.19C185.647 49.43 185.919 48.1467 186.461 47.34C187.019 46.5187 188.001 46.108 189.409 46.108C190.436 46.108 191.206 46.3207 191.719 46.746C192.247 47.1713 192.592 47.7727 192.753 48.55C192.929 49.3127 193.017 50.3467 193.017 51.652V52.686H188.001V55.238C188.001 56.0153 188.111 56.58 188.331 56.932C188.566 57.2693 188.933 57.438 189.431 57.438C189.93 57.438 190.267 57.2693 190.443 56.932C190.619 56.58 190.707 56.052 190.707 55.348V54.578H192.995V55.062C192.995 56.3967 192.709 57.416 192.137 58.12C191.565 58.824 190.656 59.176 189.409 59.176ZM190.707 51.41V50.266C190.707 49.4007 190.619 48.7847 190.443 48.418C190.282 48.0367 189.93 47.846 189.387 47.846C189.006 47.846 188.713 47.934 188.507 48.11C188.317 48.286 188.185 48.5793 188.111 48.99C188.038 49.386 188.001 49.9653 188.001 50.728V51.41H190.707ZM195.369 41.18H197.723V59H195.369V41.18ZM200.33 41.928H202.684V44.392H200.33V41.928ZM200.33 46.284H202.684V59H200.33V46.284ZM208.592 59.176C206.758 59.176 205.842 58.164 205.842 56.14V47.846H204.5V46.284H205.842V42.566H208.196V46.284H210.242V47.846H208.196V55.986C208.196 56.4993 208.276 56.8587 208.438 57.064C208.599 57.2693 208.907 57.372 209.362 57.372C209.655 57.372 209.941 57.35 210.22 57.306V59.044C209.633 59.132 209.09 59.176 208.592 59.176ZM211.861 56.382H214.215V59H211.861V56.382Z" fill="black"/>
<path d="M356.673 21H364.77V19.5156H358.347V7.18182H356.673V21ZM371.355 21.2159C374.162 21.2159 376.051 19.0838 376.051 15.8722C376.051 12.6335 374.162 10.5014 371.355 10.5014C368.548 10.5014 366.659 12.6335 366.659 15.8722C366.659 19.0838 368.548 21.2159 371.355 21.2159ZM371.355 19.7855C369.223 19.7855 368.251 17.9503 368.251 15.8722C368.251 13.794 369.223 11.9318 371.355 11.9318C373.487 11.9318 374.459 13.794 374.459 15.8722C374.459 17.9503 373.487 19.7855 371.355 19.7855ZM378.482 21H380.074V14.4418C380.074 13.0384 381.181 12.0128 382.692 12.0128C383.117 12.0128 383.556 12.0938 383.664 12.1207V10.5014C383.481 10.4879 383.063 10.4744 382.827 10.4744C381.585 10.4744 380.506 11.1761 380.128 12.2017H380.02V10.6364H378.482V21ZM389.581 21.2159C391.686 21.2159 393.224 20.1634 393.71 18.598L392.172 18.1662C391.767 19.2457 390.829 19.7855 389.581 19.7855C387.712 19.7855 386.423 18.5778 386.349 16.358H393.872V15.6832C393.872 11.8239 391.578 10.5014 389.419 10.5014C386.612 10.5014 384.75 12.7145 384.75 15.8991C384.75 19.0838 386.585 21.2159 389.581 21.2159ZM386.349 14.9815C386.457 13.369 387.597 11.9318 389.419 11.9318C391.146 11.9318 392.253 13.2273 392.253 14.9815H386.349ZM396.294 21H397.887V14.5227C397.887 13.0046 398.993 11.9318 400.235 11.9318C401.442 11.9318 402.286 12.7212 402.286 13.902V21H403.905V14.2528C403.905 12.9169 404.742 11.9318 406.199 11.9318C407.333 11.9318 408.304 12.5323 408.304 14.0639V21H409.897V14.0639C409.897 11.6282 408.588 10.5014 406.739 10.5014C405.255 10.5014 404.168 11.1829 403.635 12.2557H403.527C403.014 11.1491 402.11 10.5014 400.747 10.5014C399.398 10.5014 398.399 11.1491 397.968 12.2557H397.833V10.6364H396.294V21ZM418.152 21H419.744V10.6364H418.152V21ZM418.961 8.90909C419.582 8.90909 420.095 8.4233 420.095 7.82955C420.095 7.2358 419.582 6.75 418.961 6.75C418.341 6.75 417.828 7.2358 417.828 7.82955C417.828 8.4233 418.341 8.90909 418.961 8.90909ZM422.661 24.8864H424.253V19.4077H424.388C424.739 19.9744 425.413 21.2159 427.411 21.2159C430.001 21.2159 431.81 19.1378 431.81 15.8452C431.81 12.5795 430.001 10.5014 427.384 10.5014C425.359 10.5014 424.739 11.7429 424.388 12.2827H424.199V10.6364H422.661V24.8864ZM424.226 15.8182C424.226 13.4972 425.251 11.9318 427.195 11.9318C429.219 11.9318 430.217 13.6321 430.217 15.8182C430.217 18.0312 429.192 19.7855 427.195 19.7855C425.278 19.7855 424.226 18.1662 424.226 15.8182ZM441.58 12.9574C441.08 11.4865 439.96 10.5014 437.909 10.5014C435.723 10.5014 434.104 11.7429 434.104 13.4972C434.104 14.9276 434.954 15.8857 436.857 16.331L438.584 16.7358C439.63 16.9787 440.122 17.478 440.122 18.1932C440.122 19.0838 439.178 19.8125 437.693 19.8125C436.391 19.8125 435.575 19.2525 435.291 18.1392L433.78 18.517C434.151 20.2781 435.602 21.2159 437.72 21.2159C440.129 21.2159 441.768 19.9002 441.768 18.1122C441.768 16.6683 440.864 15.7575 439.016 15.3054L437.477 14.9276C436.249 14.6239 435.696 14.2124 435.696 13.4162C435.696 12.5256 436.641 11.8778 437.909 11.8778C439.299 11.8778 439.873 12.647 440.149 13.3622L441.58 12.9574ZM450.697 16.7628C450.697 18.706 449.212 19.5966 448.025 19.5966C446.702 19.5966 445.758 18.625 445.758 17.1136V10.6364H444.165V17.2216C444.165 19.8665 445.569 21.1349 447.512 21.1349C449.077 21.1349 450.103 20.2983 450.589 19.2457H450.697V21H452.289V10.6364H450.697V16.7628ZM455.205 21H456.798V14.5227C456.798 13.0046 457.904 11.9318 459.146 11.9318C460.354 11.9318 461.197 12.7212 461.197 13.902V21H462.816V14.2528C462.816 12.9169 463.653 11.9318 465.11 11.9318C466.244 11.9318 467.215 12.5323 467.215 14.0639V21H468.808V14.0639C468.808 11.6282 467.499 10.5014 465.65 10.5014C464.166 10.5014 463.079 11.1829 462.546 12.2557H462.438C461.926 11.1491 461.021 10.5014 459.659 10.5014C458.309 10.5014 457.311 11.1491 456.879 12.2557H456.744V10.6364H455.205V21ZM480.976 21.2159C482.973 21.2159 483.648 19.9744 483.999 19.4077H484.188V21H485.726V7.18182H484.134V12.2827H483.999C483.648 11.7429 483.027 10.5014 481.003 10.5014C478.385 10.5014 476.577 12.5795 476.577 15.8452C476.577 19.1378 478.385 21.2159 480.976 21.2159ZM481.192 19.7855C479.195 19.7855 478.169 18.0312 478.169 15.8182C478.169 13.6321 479.168 11.9318 481.192 11.9318C483.135 11.9318 484.161 13.4972 484.161 15.8182C484.161 18.1662 483.108 19.7855 481.192 19.7855ZM493.074 21.2159C495.881 21.2159 497.77 19.0838 497.77 15.8722C497.77 12.6335 495.881 10.5014 493.074 10.5014C490.267 10.5014 488.378 12.6335 488.378 15.8722C488.378 19.0838 490.267 21.2159 493.074 21.2159ZM493.074 19.7855C490.942 19.7855 489.97 17.9503 489.97 15.8722C489.97 13.794 490.942 11.9318 493.074 11.9318C495.206 11.9318 496.178 13.794 496.178 15.8722C496.178 17.9503 495.206 19.7855 493.074 19.7855ZM501.793 7.18182H500.201V21H501.793V7.18182ZM508.92 21.2159C511.726 21.2159 513.616 19.0838 513.616 15.8722C513.616 12.6335 511.726 10.5014 508.92 10.5014C506.113 10.5014 504.224 12.6335 504.224 15.8722C504.224 19.0838 506.113 21.2159 508.92 21.2159ZM508.92 19.7855C506.787 19.7855 505.816 17.9503 505.816 15.8722C505.816 13.794 506.787 11.9318 508.92 11.9318C511.052 11.9318 512.023 13.794 512.023 15.8722C512.023 17.9503 511.052 19.7855 508.92 19.7855ZM516.046 21H517.639V14.4418C517.639 13.0384 518.745 12.0128 520.256 12.0128C520.682 12.0128 521.12 12.0938 521.228 12.1207V10.5014C521.046 10.4879 520.628 10.4744 520.391 10.4744C519.15 10.4744 518.07 11.1761 517.693 12.2017H517.585V10.6364H516.046V21ZM535.8 12.9574C535.301 11.4865 534.181 10.5014 532.13 10.5014C529.944 10.5014 528.324 11.7429 528.324 13.4972C528.324 14.9276 529.175 15.8857 531.077 16.331L532.805 16.7358C533.85 16.9787 534.343 17.478 534.343 18.1932C534.343 19.0838 533.398 19.8125 531.914 19.8125C530.612 19.8125 529.795 19.2525 529.512 18.1392L528.001 18.517C528.372 20.2781 529.822 21.2159 531.941 21.2159C534.35 21.2159 535.989 19.9002 535.989 18.1122C535.989 16.6683 535.085 15.7575 533.236 15.3054L531.698 14.9276C530.47 14.6239 529.917 14.2124 529.917 13.4162C529.917 12.5256 530.861 11.8778 532.13 11.8778C533.52 11.8778 534.093 12.647 534.37 13.3622L535.8 12.9574ZM538.386 21H539.978V10.6364H538.386V21ZM539.196 8.90909C539.816 8.90909 540.329 8.4233 540.329 7.82955C540.329 7.2358 539.816 6.75 539.196 6.75C538.575 6.75 538.062 7.2358 538.062 7.82955C538.062 8.4233 538.575 8.90909 539.196 8.90909ZM547.402 10.6364H545.189V8.15341H543.597V10.6364H542.031V11.9858H543.597V18.4631C543.597 20.2713 545.054 21.1349 546.403 21.1349C546.997 21.1349 547.375 21.027 547.591 20.946L547.267 19.5156C547.132 19.5426 546.916 19.5966 546.565 19.5966C545.864 19.5966 545.189 19.3807 545.189 18.0312V11.9858H547.402V10.6364ZM558.191 21.2429C559.999 21.2429 560.944 20.2713 561.267 19.5966H561.348V21H562.941V14.1719C562.941 10.8793 560.431 10.5014 559.108 10.5014C557.543 10.5014 555.762 11.0412 554.952 12.9304L556.463 13.4702C556.814 12.7145 557.644 11.9048 559.162 11.9048C560.626 11.9048 561.348 12.6808 561.348 14.0099V14.0639C561.348 14.8331 560.566 14.7656 558.676 15.0085C556.754 15.2582 554.655 15.6832 554.655 18.0582C554.655 20.0824 556.221 21.2429 558.191 21.2429ZM558.434 19.8125C557.165 19.8125 556.248 19.2457 556.248 18.1392C556.248 16.9247 557.354 16.5469 558.596 16.3849C559.27 16.304 561.078 16.1151 561.348 15.7912V17.2486C561.348 18.544 560.323 19.8125 558.434 19.8125ZM565.847 21H567.439V14.5227C567.439 13.0046 568.546 11.9318 569.787 11.9318C570.995 11.9318 571.839 12.7212 571.839 13.902V21H573.458V14.2528C573.458 12.9169 574.294 11.9318 575.752 11.9318C576.885 11.9318 577.857 12.5323 577.857 14.0639V21H579.449V14.0639C579.449 11.6282 578.14 10.5014 576.292 10.5014C574.807 10.5014 573.721 11.1829 573.188 12.2557H573.08C572.567 11.1491 571.663 10.5014 570.3 10.5014C568.951 10.5014 567.952 11.1491 567.52 12.2557H567.385V10.6364H565.847V21ZM586.706 21.2159C588.811 21.2159 590.349 20.1634 590.835 18.598L589.297 18.1662C588.892 19.2457 587.954 19.7855 586.706 19.7855C584.837 19.7855 583.548 18.5778 583.474 16.358H590.997V15.6832C590.997 11.8239 588.703 10.5014 586.544 10.5014C583.737 10.5014 581.875 12.7145 581.875 15.8991C581.875 19.0838 583.71 21.2159 586.706 21.2159ZM583.474 14.9815C583.582 13.369 584.722 11.9318 586.544 11.9318C588.271 11.9318 589.378 13.2273 589.378 14.9815H583.474ZM597.926 10.6364H595.713V8.15341H594.121V10.6364H592.556V11.9858H594.121V18.4631C594.121 20.2713 595.578 21.1349 596.928 21.1349C597.522 21.1349 597.899 21.027 598.115 20.946L597.791 19.5156C597.657 19.5426 597.441 19.5966 597.09 19.5966C596.388 19.5966 595.713 19.3807 595.713 18.0312V11.9858H597.926V10.6364ZM602.697 19.1108H600.969L600.888 19.8665C600.693 21.695 600.308 23.5167 600.133 24.3736H601.347C601.671 23.456 602.359 21.3778 602.589 19.8395L602.697 19.1108ZM360.668 50.2159C362.962 50.2159 364.473 48.8125 364.743 46.9773H363.151C362.854 48.1108 361.909 48.7855 360.668 48.7855C358.778 48.7855 357.564 47.2202 357.564 44.8182C357.564 42.4702 358.805 40.9318 360.668 40.9318C362.071 40.9318 362.908 41.7955 363.151 42.7401H364.743C364.473 40.7969 362.827 39.5014 360.641 39.5014C357.834 39.5014 355.972 41.7145 355.972 44.8722C355.972 47.9759 357.753 50.2159 360.668 50.2159ZM371.281 50.2159C374.088 50.2159 375.977 48.0838 375.977 44.8722C375.977 41.6335 374.088 39.5014 371.281 39.5014C368.474 39.5014 366.585 41.6335 366.585 44.8722C366.585 48.0838 368.474 50.2159 371.281 50.2159ZM371.281 48.7855C369.149 48.7855 368.177 46.9503 368.177 44.8722C368.177 42.794 369.149 40.9318 371.281 40.9318C373.413 40.9318 374.385 42.794 374.385 44.8722C374.385 46.9503 373.413 48.7855 371.281 48.7855ZM380 43.7656C380 41.9574 381.12 40.9318 382.645 40.9318C384.122 40.9318 385.02 41.8967 385.02 43.5227V50H386.612V43.4148C386.612 40.7699 385.202 39.5014 383.104 39.5014C381.538 39.5014 380.567 40.2031 380.081 41.2557H379.946V39.6364H378.408V50H380V43.7656ZM396.863 41.9574C396.363 40.4865 395.243 39.5014 393.192 39.5014C391.006 39.5014 389.387 40.7429 389.387 42.4972C389.387 43.9276 390.237 44.8857 392.14 45.331L393.867 45.7358C394.913 45.9787 395.405 46.478 395.405 47.1932C395.405 48.0838 394.461 48.8125 392.976 48.8125C391.674 48.8125 390.858 48.2525 390.574 47.1392L389.063 47.517C389.434 49.2781 390.885 50.2159 393.003 50.2159C395.412 50.2159 397.052 48.9002 397.052 47.1122C397.052 45.6683 396.148 44.7575 394.299 44.3054L392.76 43.9276C391.532 43.6239 390.979 43.2124 390.979 42.4162C390.979 41.5256 391.924 40.8778 393.192 40.8778C394.582 40.8778 395.156 41.647 395.432 42.3622L396.863 41.9574ZM403.794 50.2159C405.899 50.2159 407.437 49.1634 407.923 47.598L406.385 47.1662C405.98 48.2457 405.042 48.7855 403.794 48.7855C401.925 48.7855 400.636 47.5778 400.562 45.358H408.085V44.6832C408.085 40.8239 405.791 39.5014 403.632 39.5014C400.825 39.5014 398.963 41.7145 398.963 44.8991C398.963 48.0838 400.798 50.2159 403.794 50.2159ZM400.562 43.9815C400.67 42.369 401.81 40.9318 403.632 40.9318C405.359 40.9318 406.466 42.2273 406.466 43.9815H400.562ZM414.717 50.2159C417.011 50.2159 418.523 48.8125 418.793 46.9773H417.2C416.903 48.1108 415.959 48.7855 414.717 48.7855C412.828 48.7855 411.614 47.2202 411.614 44.8182C411.614 42.4702 412.855 40.9318 414.717 40.9318C416.121 40.9318 416.957 41.7955 417.2 42.7401H418.793C418.523 40.7969 416.877 39.5014 414.69 39.5014C411.884 39.5014 410.021 41.7145 410.021 44.8722C410.021 47.9759 411.803 50.2159 414.717 50.2159ZM425.628 39.6364H423.415V37.1534H421.822V39.6364H420.257V40.9858H421.822V47.4631C421.822 49.2713 423.28 50.1349 424.629 50.1349C425.223 50.1349 425.601 50.027 425.816 49.946L425.493 48.5156C425.358 48.5426 425.142 48.5966 424.791 48.5966C424.089 48.5966 423.415 48.3807 423.415 47.0312V40.9858H425.628V39.6364ZM432.257 50.2159C434.362 50.2159 435.9 49.1634 436.386 47.598L434.848 47.1662C434.443 48.2457 433.505 48.7855 432.257 48.7855C430.388 48.7855 429.099 47.5778 429.025 45.358H436.548V44.6832C436.548 40.8239 434.254 39.5014 432.095 39.5014C429.288 39.5014 427.426 41.7145 427.426 44.8991C427.426 48.0838 429.261 50.2159 432.257 50.2159ZM429.025 43.9815C429.133 42.369 430.273 40.9318 432.095 40.9318C433.822 40.9318 434.929 42.2273 434.929 43.9815H429.025ZM443.477 39.6364H441.264V37.1534H439.672V39.6364H438.106V40.9858H439.672V47.4631C439.672 49.2713 441.129 50.1349 442.479 50.1349C443.072 50.1349 443.45 50.027 443.666 49.946L443.342 48.5156C443.207 48.5426 442.991 48.5966 442.641 48.5966C441.939 48.5966 441.264 48.3807 441.264 47.0312V40.9858H443.477V39.6364ZM452.404 45.7628C452.404 47.706 450.919 48.5966 449.732 48.5966C448.409 48.5966 447.465 47.625 447.465 46.1136V39.6364H445.872V46.2216C445.872 48.8665 447.276 50.1349 449.219 50.1349C450.784 50.1349 451.81 49.2983 452.296 48.2457H452.404V50H453.996V39.6364H452.404V45.7628ZM456.912 50H458.505V43.4418C458.505 42.0384 459.611 41.0128 461.123 41.0128C461.548 41.0128 461.986 41.0938 462.094 41.1207V39.5014C461.912 39.4879 461.494 39.4744 461.258 39.4744C460.016 39.4744 458.937 40.1761 458.559 41.2017H458.451V39.6364H456.912V50ZM472.375 50.2429C474.184 50.2429 475.128 49.2713 475.452 48.5966H475.533V50H477.125V43.1719C477.125 39.8793 474.615 39.5014 473.293 39.5014C471.728 39.5014 469.946 40.0412 469.137 41.9304L470.648 42.4702C470.999 41.7145 471.829 40.9048 473.347 40.9048C474.811 40.9048 475.533 41.6808 475.533 43.0099V43.0639C475.533 43.8331 474.75 43.7656 472.861 44.0085C470.938 44.2582 468.84 44.6832 468.84 47.0582C468.84 49.0824 470.405 50.2429 472.375 50.2429ZM472.618 48.8125C471.35 48.8125 470.432 48.2457 470.432 47.1392C470.432 45.9247 471.539 45.5469 472.78 45.3849C473.455 45.304 475.263 45.1151 475.533 44.7912V46.2486C475.533 47.544 474.507 48.8125 472.618 48.8125ZM483.945 50.2159C485.942 50.2159 486.617 48.9744 486.968 48.4077H487.157V50H488.695V36.1818H487.103V41.2827H486.968C486.617 40.7429 485.996 39.5014 483.972 39.5014C481.354 39.5014 479.546 41.5795 479.546 44.8452C479.546 48.1378 481.354 50.2159 483.945 50.2159ZM484.161 48.7855C482.164 48.7855 481.138 47.0312 481.138 44.8182C481.138 42.6321 482.137 40.9318 484.161 40.9318C486.104 40.9318 487.13 42.4972 487.13 44.8182C487.13 47.1662 486.077 48.7855 484.161 48.7855ZM491.832 50H493.425V39.6364H491.832V50ZM492.642 37.9091C493.263 37.9091 493.776 37.4233 493.776 36.8295C493.776 36.2358 493.263 35.75 492.642 35.75C492.021 35.75 491.509 36.2358 491.509 36.8295C491.509 37.4233 492.021 37.9091 492.642 37.9091ZM496.341 53.8864H497.934V48.4077H498.068C498.419 48.9744 499.094 50.2159 501.091 50.2159C503.682 50.2159 505.49 48.1378 505.49 44.8452C505.49 41.5795 503.682 39.5014 501.064 39.5014C499.04 39.5014 498.419 40.7429 498.068 41.2827H497.88V39.6364H496.341V53.8864ZM497.907 44.8182C497.907 42.4972 498.932 40.9318 500.875 40.9318C502.899 40.9318 503.898 42.6321 503.898 44.8182C503.898 47.0312 502.872 48.7855 500.875 48.7855C498.959 48.7855 497.907 47.1662 497.907 44.8182ZM507.919 50H509.512V39.6364H507.919V50ZM508.729 37.9091C509.35 37.9091 509.862 37.4233 509.862 36.8295C509.862 36.2358 509.35 35.75 508.729 35.75C508.108 35.75 507.595 36.2358 507.595 36.8295C507.595 37.4233 508.108 37.9091 508.729 37.9091ZM519.769 41.9574C519.27 40.4865 518.15 39.5014 516.099 39.5014C513.912 39.5014 512.293 40.7429 512.293 42.4972C512.293 43.9276 513.143 44.8857 515.046 45.331L516.773 45.7358C517.819 45.9787 518.312 46.478 518.312 47.1932C518.312 48.0838 517.367 48.8125 515.883 48.8125C514.58 48.8125 513.764 48.2525 513.481 47.1392L511.969 47.517C512.34 49.2781 513.791 50.2159 515.91 50.2159C518.318 50.2159 519.958 48.9002 519.958 47.1122C519.958 45.6683 519.054 44.7575 517.205 44.3054L515.667 43.9276C514.439 43.6239 513.885 43.2124 513.885 42.4162C513.885 41.5256 514.83 40.8778 516.099 40.8778C517.488 40.8778 518.062 41.647 518.339 42.3622L519.769 41.9574ZM526.565 50.2159C528.859 50.2159 530.37 48.8125 530.64 46.9773H529.048C528.751 48.1108 527.807 48.7855 526.565 48.7855C524.676 48.7855 523.461 47.2202 523.461 44.8182C523.461 42.4702 524.703 40.9318 526.565 40.9318C527.968 40.9318 528.805 41.7955 529.048 42.7401H530.64C530.37 40.7969 528.724 39.5014 526.538 39.5014C523.731 39.5014 521.869 41.7145 521.869 44.8722C521.869 47.9759 523.65 50.2159 526.565 50.2159ZM532.968 50H534.56V39.6364H532.968V50ZM533.778 37.9091C534.399 37.9091 534.911 37.4233 534.911 36.8295C534.911 36.2358 534.399 35.75 533.778 35.75C533.157 35.75 532.644 36.2358 532.644 36.8295C532.644 37.4233 533.157 37.9091 533.778 37.9091ZM539.069 43.7656C539.069 41.9574 540.189 40.9318 541.714 40.9318C543.192 40.9318 544.089 41.8967 544.089 43.5227V50H545.681V43.4148C545.681 40.7699 544.271 39.5014 542.173 39.5014C540.608 39.5014 539.636 40.2031 539.15 41.2557H539.015V39.6364H537.477V50H539.069V43.7656ZM552.774 54.1023C555.257 54.1023 557.255 52.9688 557.255 50.2969V39.6364H555.716V41.2827H555.554C555.203 40.7429 554.556 39.5014 552.532 39.5014C549.914 39.5014 548.105 41.5795 548.105 44.7642C548.105 48.0028 549.995 49.8381 552.505 49.8381C554.529 49.8381 555.176 48.6506 555.527 48.0838H555.662V50.1889C555.662 51.9162 554.448 52.6989 552.774 52.6989C550.892 52.6989 550.231 51.707 549.806 51.1335L548.537 52.0241C549.185 53.1104 550.46 54.1023 552.774 54.1023ZM552.72 48.4077C550.723 48.4077 549.698 46.8963 549.698 44.7372C549.698 42.6321 550.696 40.9318 552.72 40.9318C554.664 40.9318 555.689 42.4972 555.689 44.7372C555.689 47.0312 554.637 48.4077 552.72 48.4077ZM569.858 50.2159C571.963 50.2159 573.502 49.1634 573.987 47.598L572.449 47.1662C572.044 48.2457 571.106 48.7855 569.858 48.7855C567.989 48.7855 566.701 47.5778 566.626 45.358H574.149V44.6832C574.149 40.8239 571.855 39.5014 569.696 39.5014C566.889 39.5014 565.027 41.7145 565.027 44.8991C565.027 48.0838 566.862 50.2159 569.858 50.2159ZM566.626 43.9815C566.734 42.369 567.875 40.9318 569.696 40.9318C571.424 40.9318 572.53 42.2273 572.53 43.9815H566.626ZM578.164 36.1818H576.572V50H578.164V36.1818ZM581.08 50H582.673V39.6364H581.08V50ZM581.89 37.9091C582.511 37.9091 583.024 37.4233 583.024 36.8295C583.024 36.2358 582.511 35.75 581.89 35.75C581.269 35.75 580.757 36.2358 580.757 36.8295C580.757 37.4233 581.269 37.9091 581.89 37.9091ZM590.096 39.6364H587.883V37.1534H586.291V39.6364H584.726V40.9858H586.291V47.4631C586.291 49.2713 587.748 50.1349 589.098 50.1349C589.691 50.1349 590.069 50.027 590.285 49.946L589.961 48.5156C589.826 48.5426 589.611 48.5966 589.26 48.5966C588.558 48.5966 587.883 48.3807 587.883 47.0312V40.9858H590.096V39.6364ZM593.652 50.108C594.32 50.108 594.867 49.5614 594.867 48.8935C594.867 48.2255 594.32 47.679 593.652 47.679C592.984 47.679 592.438 48.2255 592.438 48.8935C592.438 49.5614 592.984 50.108 593.652 50.108Z" fill="black"/>
<path d="M5.25 89.62C2.436 89.62 0.546 91.734 0.546 94.366C0.546 96.998 2.436 99.112 5.25 99.112C8.064 99.112 9.954 96.998 9.954 94.366C9.954 91.734 8.064 89.62 5.25 89.62ZM5.25 98.09C2.996 98.09 1.596 96.452 1.596 94.366C1.596 92.28 2.996 90.642 5.25 90.642C7.504 90.642 8.904 92.28 8.904 94.366C8.904 96.452 7.504 98.09 5.25 98.09ZM13.93 92.168C13.93 91.552 14.294 90.6 16.394 90.6C18.088 90.6 18.872 91.342 18.984 92.266H20.062C19.978 90.88 18.858 89.62 16.394 89.62C14.07 89.62 12.908 90.67 12.908 92.182C12.908 95.36 19.25 94.212 19.25 96.48C19.25 97.572 18.27 98.118 16.702 98.118C15.092 98.118 13.79 97.572 13.72 96.228H12.628C12.768 97.894 13.888 99.112 16.632 99.112C18.914 99.112 20.3 98.16 20.3 96.438C20.3 93.204 13.93 94.324 13.93 92.168ZM29.1793 91.216L31.6853 99H32.8753L35.7593 89.732H34.6533L32.2733 97.516L29.7813 89.732H28.5773L26.0853 97.516L23.7053 89.732H22.5993L25.4833 99H26.6733L29.1793 91.216ZM42.3925 89.732H41.0765L37.1425 99H38.3045L39.4385 96.312H44.0305L45.1645 99H46.3265L42.3925 89.732ZM39.8445 95.346L41.7345 90.824L43.6245 95.346H39.8445ZM49.1841 89.732V99H55.2881V97.992H50.2341V89.732H49.1841ZM62.2349 89.732H58.3289V99H62.2349C64.4469 99 66.4909 97.264 66.4909 94.366C66.4909 91.468 64.4469 89.732 62.2349 89.732ZM62.1929 98.006H59.3789V90.726H62.1929C64.1669 90.726 65.4409 92.378 65.4409 94.366C65.4409 96.354 64.1669 98.006 62.1929 98.006ZM69.4743 97.572V99H70.8323V97.572H69.4743ZM69.4743 92V93.428H70.8323V92H69.4743Z" fill="black"/>
<path d="M85.4906 89.732V93.848H80.1006V89.732H79.0506V99H80.1006V94.87H85.4906V99H86.5406V89.732H85.4906ZM97.3103 90.74V89.732H90.4923V99H97.3103V97.992H91.5423V94.87H96.6943V93.848H91.5423V90.74H97.3103ZM104.848 89.732H103.532L99.5979 99H100.76L101.894 96.312H106.486L107.62 99H108.782L104.848 89.732ZM102.3 95.346L104.19 90.824L106.08 95.346H102.3ZM115.545 89.732H111.639V99H115.545C117.757 99 119.801 97.264 119.801 94.366C119.801 91.468 117.757 89.732 115.545 89.732ZM115.503 98.006H112.689V90.726H115.503C117.477 90.726 118.751 92.378 118.751 94.366C118.751 96.354 117.477 98.006 115.503 98.006ZM129.995 90.74V89.732H123.177V99H129.995V97.992H124.227V94.87H129.379V93.848H124.227V90.74H129.995ZM134.424 95.444H137.644L139.884 99H141.13L138.694 95.262C139.73 95.024 140.934 94.422 140.934 92.63C140.934 90.866 139.716 89.732 137.812 89.732H133.374V99H134.424V95.444ZM134.424 90.726H137.686C139.002 90.726 139.884 91.454 139.884 92.63C139.884 94.072 138.624 94.45 137.63 94.45H134.424V90.726ZM145.036 92.168C145.036 91.552 145.4 90.6 147.5 90.6C149.194 90.6 149.978 91.342 150.09 92.266H151.168C151.084 90.88 149.964 89.62 147.5 89.62C145.176 89.62 144.014 90.67 144.014 92.182C144.014 95.36 150.356 94.212 150.356 96.48C150.356 97.572 149.376 98.118 147.808 98.118C146.198 98.118 144.896 97.572 144.826 96.228H143.734C143.874 97.894 144.994 99.112 147.738 99.112C150.02 99.112 151.406 98.16 151.406 96.438C151.406 93.204 145.036 94.324 145.036 92.168ZM153.733 100.862H154.685L155.917 97.88H154.545L153.733 100.862ZM170.948 90.74V89.732H164.13V99H170.948V97.992H165.18V94.87H170.332V93.848H165.18V90.74H170.948ZM178.121 95.332L181.999 89.732H180.725L177.589 94.24L174.453 89.732H173.179L177.071 95.332V99H178.121V95.332ZM191.63 90.74V89.732H184.812V99H191.63V97.992H185.862V94.87H191.014V93.848H185.862V90.74H191.63ZM200.847 94.268C201.505 93.974 202.093 93.372 202.093 92.182C202.093 91.062 201.351 89.732 199.167 89.732H195.009V99H199.405C201.519 99 202.569 97.95 202.569 96.564C202.569 95.178 201.631 94.52 200.847 94.268ZM196.059 90.726H199.279C200.553 90.726 201.043 91.496 201.043 92.266C201.043 93.4 200.133 93.876 199.167 93.876H196.059V90.726ZM199.517 98.006H196.059V94.828H199.405C200.875 94.828 201.519 95.612 201.519 96.48C201.519 97.446 200.791 98.006 199.517 98.006ZM207.009 95.444H210.229L212.469 99H213.715L211.279 95.262C212.315 95.024 213.519 94.422 213.519 92.63C213.519 90.866 212.301 89.732 210.397 89.732H205.959V99H207.009V95.444ZM207.009 90.726H210.271C211.587 90.726 212.469 91.454 212.469 92.63C212.469 94.072 211.209 94.45 210.215 94.45H207.009V90.726ZM221.12 89.62C218.306 89.62 216.416 91.734 216.416 94.366C216.416 96.998 218.306 99.112 221.12 99.112C223.934 99.112 225.824 96.998 225.824 94.366C225.824 91.734 223.934 89.62 221.12 89.62ZM221.12 98.09C218.866 98.09 217.466 96.452 217.466 94.366C217.466 92.28 218.866 90.642 221.12 90.642C223.374 90.642 224.774 92.28 224.774 94.366C224.774 96.452 223.374 98.09 221.12 98.09ZM234.66 91.216L237.166 99H238.356L241.24 89.732H240.134L237.754 97.516L235.262 89.732H234.058L231.566 97.516L229.186 89.732H228.08L230.964 99H232.154L234.66 91.216ZM244.797 92.168C244.797 91.552 245.161 90.6 247.261 90.6C248.955 90.6 249.739 91.342 249.851 92.266H250.929C250.845 90.88 249.725 89.62 247.261 89.62C244.937 89.62 243.775 90.67 243.775 92.182C243.775 95.36 250.117 94.212 250.117 96.48C250.117 97.572 249.137 98.118 247.569 98.118C245.959 98.118 244.657 97.572 244.587 96.228H243.495C243.635 97.894 244.755 99.112 247.499 99.112C249.781 99.112 251.167 98.16 251.167 96.438C251.167 93.204 244.797 94.324 244.797 92.168ZM3.906 105.62C1.89 105.62 0.826 106.712 0.826 108.154C0.826 109.078 1.596 109.904 2.226 110.1C1.148 110.506 0.518 111.346 0.518 112.34C0.518 113.992 2.016 115.112 3.766 115.112C5.74 115.112 6.93 114.006 6.93 112.424V110.646H7.84V109.708H6.93V109.092H5.95V109.708H3.696C2.73 109.708 1.876 109.218 1.876 108.168C1.876 107.286 2.492 106.572 3.878 106.572C4.97 106.572 5.6 107.104 5.74 107.552H6.846C6.65 106.6 5.81 105.62 3.906 105.62ZM5.95 110.646V112.508C5.95 113.376 5.236 114.174 3.766 114.174C2.45 114.174 1.568 113.32 1.568 112.368C1.568 111.43 2.394 110.646 3.57 110.646H5.95ZM22.5396 105.732V113.53L16.8136 105.732H15.5956V115H16.6456V107.174L22.3716 115H23.5896V105.732H22.5396ZM31.7011 105.732H30.3851L26.4511 115H27.6131L28.7471 112.312H33.3391L34.4731 115H35.6351L31.7011 105.732ZM29.1531 111.346L31.0431 106.824L32.9331 111.346H29.1531ZM44.3591 105.732L41.1531 113.81L37.9471 105.732H36.7991L40.5511 115H41.7551L45.5071 105.732H44.3591ZM49.4121 105.732H48.3621V115H49.4121V105.732ZM57.3404 105.62C54.5544 105.62 52.7764 107.734 52.7764 110.366C52.7764 112.998 54.4844 115.112 57.3124 115.112C58.9924 115.112 60.0844 114.258 60.6724 113.362V115H61.6384V110.072H57.2844V111.024H60.6724C60.6724 112.956 59.0764 114.09 57.3964 114.09C55.1424 114.09 53.8264 112.452 53.8264 110.366C53.8264 108.28 55.1704 106.642 57.4244 106.642C58.8384 106.642 59.8464 107.258 60.4064 108.252H61.5544C60.8684 106.698 59.3284 105.62 57.3404 105.62ZM69.3196 105.732H68.0036L64.0696 115H65.2316L66.3656 112.312H70.9576L72.0916 115H73.2536L69.3196 105.732ZM66.7716 111.346L68.6616 106.824L70.5516 111.346H66.7716ZM81.8708 105.732H74.3528V106.74H77.5868V115H78.6368V106.74H81.8708V105.732ZM85.9368 105.732H84.8868V115H85.9368V105.732ZM94.0051 105.62C91.1911 105.62 89.3011 107.734 89.3011 110.366C89.3011 112.998 91.1911 115.112 94.0051 115.112C96.8191 115.112 98.7091 112.998 98.7091 110.366C98.7091 107.734 96.8191 105.62 94.0051 105.62ZM94.0051 114.09C91.7511 114.09 90.3511 112.452 90.3511 110.366C90.3511 108.28 91.7511 106.642 94.0051 106.642C96.2591 106.642 97.6591 108.28 97.6591 110.366C97.6591 112.452 96.2591 114.09 94.0051 114.09ZM109.013 105.732V113.53L103.287 105.732H102.069V115H103.119V107.174L108.845 115H110.063V105.732H109.013ZM118.175 105.732H116.859L112.925 115H114.087L115.221 112.312H119.813L120.947 115H122.109L118.175 105.732ZM115.627 111.346L117.517 106.824L119.407 111.346H115.627ZM124.966 105.732V115H131.07V113.992H126.016V105.732H124.966ZM138.771 105.732V115H144.875V113.992H139.821V105.732H138.771ZM148.966 105.732H147.916V115H148.966V105.732ZM159.863 105.732V113.53L154.137 105.732H152.919V115H153.969V107.174L159.695 115H160.913V105.732H159.863ZM172.552 105.732H171.068L165.916 110.562V105.732H164.866V115H165.916V111.962L167.834 110.17L171.46 115H172.776L168.604 109.456L172.552 105.732ZM175.885 108.168C175.885 107.552 176.249 106.6 178.349 106.6C180.043 106.6 180.827 107.342 180.939 108.266H182.017C181.933 106.88 180.813 105.62 178.349 105.62C176.025 105.62 174.863 106.67 174.863 108.182C174.863 111.36 181.205 110.212 181.205 112.48C181.205 113.572 180.225 114.118 178.657 114.118C177.047 114.118 175.745 113.572 175.675 112.228H174.583C174.723 113.894 175.843 115.112 178.587 115.112C180.869 115.112 182.255 114.16 182.255 112.438C182.255 109.204 175.885 110.324 175.885 108.168Z" fill="#5F6862"/>
<path d="M357.184 89.732H356.134V99H357.184V89.732ZM368.08 89.732V97.53L362.354 89.732H361.136V99H362.186V91.174L367.912 99H369.13V89.732H368.08ZM379.664 89.732H372.146V90.74H375.38V99H376.43V90.74H379.664V89.732ZM389.498 90.74V89.732H382.68V99H389.498V97.992H383.73V94.87H388.882V93.848H383.73V90.74H389.498ZM393.927 95.444H397.147L399.387 99H400.633L398.197 95.262C399.233 95.024 400.437 94.422 400.437 92.63C400.437 90.866 399.219 89.732 397.315 89.732H392.877V99H393.927V95.444ZM393.927 90.726H397.189C398.505 90.726 399.387 91.454 399.387 92.63C399.387 94.072 398.127 94.45 397.133 94.45H393.927V90.726ZM415.303 89.732V95.038C415.303 97.194 413.875 98.09 412.405 98.09C410.935 98.09 409.521 97.194 409.521 95.038V89.732H408.471V95.01C408.471 97.474 410.095 99.112 412.405 99.112C414.729 99.112 416.353 97.46 416.353 95.01V89.732H415.303ZM421.239 89.732H420.189V99H421.239V89.732ZM424.799 97.572V99H426.157V97.572H424.799ZM424.799 92V93.428H426.157V92H424.799Z" fill="black"/>
<path d="M440.213 94.268C440.871 93.974 441.459 93.372 441.459 92.182C441.459 91.062 440.717 89.732 438.533 89.732H434.375V99H438.771C440.885 99 441.935 97.95 441.935 96.564C441.935 95.178 440.997 94.52 440.213 94.268ZM435.425 90.726H438.645C439.919 90.726 440.409 91.496 440.409 92.266C440.409 93.4 439.499 93.876 438.533 93.876H435.425V90.726ZM438.883 98.006H435.425V94.828H438.771C440.241 94.828 440.885 95.612 440.885 96.48C440.885 97.446 440.157 98.006 438.883 98.006ZM449.441 89.62C446.627 89.62 444.737 91.734 444.737 94.366C444.737 96.998 446.627 99.112 449.441 99.112C452.255 99.112 454.145 96.998 454.145 94.366C454.145 91.734 452.255 89.62 449.441 89.62ZM449.441 98.09C447.187 98.09 445.787 96.452 445.787 94.366C445.787 92.28 447.187 90.642 449.441 90.642C451.695 90.642 453.095 92.28 453.095 94.366C453.095 96.452 451.695 98.09 449.441 98.09ZM461.411 89.732H457.505V99H461.411C463.623 99 465.667 97.264 465.667 94.366C465.667 91.468 463.623 89.732 461.411 89.732ZM461.369 98.006H458.555V90.726H461.369C463.343 90.726 464.617 92.378 464.617 94.366C464.617 96.354 463.343 98.006 461.369 98.006ZM472.344 95.332L476.222 89.732H474.948L471.812 94.24L468.676 89.732H467.402L471.294 95.332V99H472.344V95.332ZM490.275 89.732H482.757V90.74H485.991V99H487.041V90.74H490.275V89.732ZM500.109 90.74V89.732H493.291V99H500.109V97.992H494.341V94.87H499.493V93.848H494.341V90.74H500.109ZM510.727 89.732H509.397L506.639 93.372L503.895 89.732H502.565L506.009 94.212L502.313 99H503.643L506.639 95.024L509.649 99H510.979L507.283 94.212L510.727 89.732ZM520.335 89.732H512.817V90.74H516.051V99H517.101V90.74H520.335V89.732ZM530.783 89.62C528.767 89.62 527.703 90.712 527.703 92.154C527.703 93.078 528.473 93.904 529.103 94.1C528.025 94.506 527.395 95.346 527.395 96.34C527.395 97.992 528.893 99.112 530.643 99.112C532.617 99.112 533.807 98.006 533.807 96.424V94.646H534.717V93.708H533.807V93.092H532.827V93.708H530.573C529.607 93.708 528.753 93.218 528.753 92.168C528.753 91.286 529.369 90.572 530.755 90.572C531.847 90.572 532.477 91.104 532.617 91.552H533.723C533.527 90.6 532.687 89.62 530.783 89.62ZM532.827 94.646V96.508C532.827 97.376 532.113 98.174 530.643 98.174C529.327 98.174 528.445 97.32 528.445 96.368C528.445 95.43 529.271 94.646 530.447 94.646H532.827ZM542.473 89.732V99H548.577V97.992H543.523V89.732H542.473ZM552.668 89.732H551.618V99H552.668V89.732ZM563.564 89.732V97.53L557.838 89.732H556.62V99H557.67V91.174L563.396 99H564.614V89.732H563.564ZM576.254 89.732H574.77L569.618 94.562V89.732H568.568V99H569.618V95.962L571.536 94.17L575.162 99H576.478L572.306 93.456L576.254 89.732ZM579.586 92.168C579.586 91.552 579.95 90.6 582.05 90.6C583.744 90.6 584.528 91.342 584.64 92.266H585.718C585.634 90.88 584.514 89.62 582.05 89.62C579.726 89.62 578.564 90.67 578.564 92.182C578.564 95.36 584.906 94.212 584.906 96.48C584.906 97.572 583.926 98.118 582.358 98.118C580.748 98.118 579.446 97.572 579.376 96.228H578.284C578.424 97.894 579.544 99.112 582.288 99.112C584.57 99.112 585.956 98.16 585.956 96.438C585.956 93.204 579.586 94.324 579.586 92.168Z" fill="#5F6862"/>
</svg>
