<?xml version="1.0" encoding="utf-8"?>
<!-- Generator: Adobe Illustrator 22.1.0, SVG Export Plug-In . SVG Version: 6.00 Build 0)  -->
<svg version="1.1" id="Layer_1" xmlns="http://www.w3.org/2000/svg" xmlns:xlink="http://www.w3.org/1999/xlink" x="0px" y="0px"
	 viewBox="0 0 250 250" style="enable-background:new 0 0 250 250;" xml:space="preserve">
<style type="text/css">
	.st0{display:none;}
	.st1{display:inline;}
	.st2{fill:none;stroke:#FFFFFF;stroke-width:4;stroke-miterlimit:10;}
	.st3{fill:none;stroke:#FFFFFF;stroke-width:4;stroke-linecap:round;stroke-miterlimit:10;}
	.st4{display:inline;fill:#FFFFFF;stroke:#62C4B1;stroke-width:7;stroke-miterlimit:10;}
</style>
<g id="Layer_2_1_" class="st0">
	<g id="dbV3dI.tif" class="st1">
		
			<image style="overflow:visible;enable-background:new    ;" width="910" height="846" xlink:href="3C42805BACE8FB7.png"  transform="matrix(0.2732 2.850038e-02 -3.123358e-02 0.2994 13.8863 -19.5292)">
		</image>
	</g>
</g>
<g id="Layer_5">
</g>
<g id="Layer_4">
</g>
<g id="Layer_6">
	<g>
		<path class="st2" d="M43.7,129.8c15.2,160.4,153,150,159.5-8"/>
		<path class="st2" d="M81.6,234.8c-22.3,4.8-59.8,3.9-71.2-9.1c16.5-41.5-4.2-51.3,0-93.3C17.3,63.8,33.1,9,96.3,18.2
			c74.6-28.8,144.5,8.5,144.5,123.9c-1.5,39.2-14.6,64.4-5.7,88.6c-18.5,7.6-44,8.2-68.9,0.4c-2-0.6-2.5-3.2-1-4.6
			c38.2-33.7,38-104.7,38-104.7c-42.9,7.3-77.9-14.3-89.4-32.4c-5.8,13.7-46,36.6-70,40.4c1.7,40.5,17.9,72.9,39.4,97.7
			C85.3,230,84.9,234.1,81.6,234.8z"/>
	</g>
	<path class="st2" d="M42.1,139.1c-16.7-4.7-14.7,28.9,7.6,23.9"/>
	<path class="st2" d="M198.5,160.7c27.9,0,17.1-31.4,3-23.5"/>
	<g>
		<path class="st3" d="M69.7,152.3c10.5-11.6,28.3-6.4,31,2.7"/>
	</g>
	<g>
		<path class="st3" d="M176.7,154.3c-10.6-11.6-28.4-6.4-31.1,2.7"/>
	</g>
</g>
<g id="Layer_7" class="st0">
	<circle class="st4" cx="165" cy="144.3" r="5.7"/>
	<circle class="st4" cx="78.7" cy="145.3" r="5.7"/>
</g>
</svg>
