<svg version="1.1" width="100.000000" height="100.000000" viewBox="0.000000 0.000000 50.000000 50.000000" xmlns="http://www.w3.org/2000/svg" xmlns:xlink="http://www.w3.org/1999/xlink" overflow="hidden"><style>
.MsftOfcThm_Background1_Fill {
 fill:#FFFFFF; 
}
</style>
<g id="surface1"><path d=" M 23.750000 2.000000 C 12.800781 2.000000 6.000000 8.820313 6.000000 19.781250 C 6.000000 21.343750 6.214844 22.882812 6.437500 24.531250 C 7.042969 28.972656 7.671875 33.578125 4.000000 38.562500 C 3.839844 38.781250 3.765625 39.042969 3.812500 39.312500 C 3.859375 39.582031 4.023438 39.816406 4.250000 39.968750 C 4.417969 40.078125 8.402344 42.679688 17.500000 43.687500 C 19.804688 46.464844 22.449219 48.000000 25.000000 48.000000 C 27.562500 48.000000 30.226562 46.472656 32.531250 43.687500 C 41.625000 42.671875 45.855469 40.109375 46.031250 40.000000 C 46.273438 39.851562 46.417969 39.589844 46.468750 39.312500 C 46.519531 39.035156 46.457031 38.753906 46.281250 38.531250 C 42.554688 33.742188 43.054688 29.667969 43.593750 25.343750 C 43.785156 23.800781 44.000000 22.195312 44.000000 20.562500 C 44.000000 14.027344 41.078125 6.410156 32.875000 6.156250 C 29.402344 2.718750 26.007812 2.000000 23.750000 2.000000 Z M 31.843750 17.343750 C 33.328125 18.921875 36.000000 22.531250 36.000000 28.281250 C 36.000000 35.953125 31.234375 42.062500 31.187500 42.125000 C 31.179688 42.136719 31.195312 42.144531 31.187500 42.156250 C 29.218750 44.628906 27.023438 46.000000 25.000000 46.000000 C 22.972656 46.000000 20.757812 44.621094 18.781250 42.125000 C 18.773438 42.113281 18.757812 42.105469 18.750000 42.093750 C 18.703125 42.050781 14.000000 37.570312 14.000000 31.000000 C 14.000000 25.996094 18.296875 24.945312 22.093750 24.031250 C 22.878906 23.843750 23.609375 23.675781 24.281250 23.468750 C 28.769531 22.078125 30.921875 19.125000 31.843750 17.343750 Z M 19.500000 28.000000 C 18.671875 28.000000 18.000000 28.671875 18.000000 29.500000 C 18.000000 30.328125 18.671875 31.000000 19.500000 31.000000 C 20.328125 31.000000 21.000000 30.328125 21.000000 29.500000 C 21.000000 28.671875 20.328125 28.000000 19.500000 28.000000 Z M 30.500000 28.000000 C 29.671875 28.000000 29.000000 28.671875 29.000000 29.500000 C 29.000000 30.328125 29.671875 31.000000 30.500000 31.000000 C 31.328125 31.000000 32.000000 30.328125 32.000000 29.500000 C 32.000000 28.671875 31.328125 28.000000 30.500000 28.000000 Z" stroke="none" stroke-width="1.000000" stroke-dasharray="" stroke-dashoffset="1.000000" fill="#FFFFFF" fill-opacity="1.000000"/></g></svg>